<svg id="Capa_1" enable-background="new 0 0 512 512" height="512" viewBox="0 0 512 512" width="512" xmlns="http://www.w3.org/2000/svg"><g><path d="m40.322 464.131c0 4.142 3.358 7.5 7.5 7.5s7.5-3.358 7.5-7.5c0-4.142-3.358-7.5-7.5-7.5s-7.5 3.358-7.5 7.5z"/><path d="m448.36 417.182c-16.028 0-29.472 11.237-32.893 26.244h-44.915c-3.084 0-5.817-1.851-6.964-4.713l-22.842-57.073c42.695-4.422 82.365-22.84 113.349-52.986 37.34-36.331 57.905-85.086 57.905-137.285 0-52.2-20.564-100.956-57.903-137.287-35.814-34.845-83.229-54.036-133.511-54.036-50.278 0-97.699 19.192-133.51 54.035-7.494 7.292-14.307 15.09-20.431 23.346l-37.885-16.227c-8.505-3.643-18.229-1.77-24.77 4.772l-31.754 31.754c-5.329-3.365-11.505-5.175-17.962-5.175-9.013 0-17.487 3.51-23.86 9.883-6.374 6.373-9.883 14.847-9.883 23.86 0 9.014 3.51 17.487 9.883 23.86 6.374 6.373 14.847 9.883 23.86 9.883 9.014 0 17.487-3.51 23.86-9.883s9.883-14.847 9.883-23.86c0-6.457-1.81-12.632-5.175-17.962l31.754-31.754c2.179-2.181 5.421-2.806 8.256-1.591l35.193 15.075c-5.9 9.469-10.973 19.46-15.165 29.941-9.609 24.019-14.207 49.378-13.668 75.374.086 4.142 3.521 7.435 7.654 7.343 4.141-.086 7.429-3.513 7.343-7.654-.498-23.972 3.741-47.352 12.598-69.491 4.151-10.375 9.236-20.232 15.203-29.531l27.759 11.891c-17.57 25.294-26.698 55.36-26.005 86.735.835 37.833 16.133 73.506 43.075 100.447 24.476 24.476 56.16 39.338 90.123 42.478l12.038 30.076c-45.762-.399-88.843-18.028-121.464-49.766-25.606-24.914-42.854-56.545-49.879-91.476-.816-4.06-4.771-6.689-8.831-5.874-4.061.816-6.691 4.77-5.874 8.831 5.468 27.189 16.642 52.533 32.773 74.667l-28.283 28.283-1.662-1.662c-4.25-4.25-9.9-6.59-15.91-6.59s-11.66 2.34-15.91 6.59l-87.947 87.947c-10.326 10.326-16.013 24.056-16.013 38.66s5.687 28.333 16.014 38.66c10.326 10.327 24.056 16.014 38.66 16.014s28.333-5.687 38.66-16.014l41.909-41.91c2.929-2.929 2.929-7.678 0-10.607s-7.678-2.929-10.606 0l-41.909 41.91c-7.493 7.493-17.456 11.62-28.053 11.62s-20.56-4.127-28.053-11.62c-7.495-7.493-11.622-17.456-11.622-28.053s4.127-20.56 11.62-28.053l87.947-87.947c1.416-1.417 3.3-2.197 5.303-2.197s3.887.78 5.303 2.197l45.5 45.5c1.417 1.417 2.197 3.3 2.197 5.304 0 2.003-.78 3.887-2.197 5.303l-22.925 22.925c-2.929 2.929-2.929 7.678 0 10.607s7.678 2.929 10.607 0l22.925-22.925c4.25-4.25 6.59-9.9 6.59-15.91s-2.34-11.661-6.59-15.91l-1.662-1.662 28.288-28.287c32.48 23.666 71.624 36.467 112.682 36.466 1.47 0 2.938-.02 4.403-.052l24.673 61.649c3.439 8.589 11.639 14.139 20.89 14.139h44.915c3.421 15.007 16.864 26.244 32.893 26.244 18.606 0 33.744-15.137 33.744-33.744-.002-18.608-15.139-33.746-33.746-33.746zm-380.832-277.634c-3.54 3.541-8.247 5.49-13.254 5.49-5.006 0-9.713-1.95-13.254-5.49-3.54-3.54-5.49-8.247-5.49-13.254 0-5.006 1.95-9.713 5.49-13.254 3.541-3.54 8.248-5.49 13.254-5.49 5.007 0 9.714 1.949 13.254 5.49s5.49 8.248 5.49 13.254c0 5.007-1.949 9.714-5.49 13.254zm101.483 224.357-20.962-20.962 27.049-27.048c3.782 4.411 7.775 8.672 11.979 12.762 2.919 2.84 5.922 5.564 8.99 8.194zm109.575-238.528-54.777-23.464c.615-.664 1.232-1.326 1.861-1.979 24.604-25.531 57.605-39.881 92.92-40.407 4.142-.062 7.449-3.469 7.388-7.611-.062-4.141-3.489-7.446-7.61-7.387-39.343.585-76.099 16.566-103.498 44.997-1.935 2.007-3.798 4.064-5.604 6.158l-28.408-12.168c5.078-6.563 10.635-12.803 16.678-18.683 32.998-32.105 76.698-49.787 123.05-49.786 46.353 0 90.053 17.681 123.05 49.787 34.413 33.481 53.364 78.419 53.364 126.535 0 48.115-18.952 93.052-53.364 126.534-29.57 28.771-67.737 45.948-108.703 49.208l-11.574-28.919c38.149-.69 73.827-15.831 101.022-43.027 28.636-28.636 43.915-66.669 43.022-107.095-.724-32.798-12.714-64.841-33.761-90.224-20.766-25.045-49.525-42.728-80.98-49.791-4.044-.906-8.053 1.634-8.961 5.675-.908 4.042 1.633 8.053 5.674 8.961 21.792 4.893 42.133 15.492 58.868 30.413l-90.766 90.766h-128.534c1.418-25.383 10.041-49.465 24.938-69.889l58.799 25.186c.963.413 1.964.608 2.949.608 2.91 0 5.68-1.705 6.898-4.549 1.631-3.809-.133-8.218-3.941-9.849zm140.285-21.687c1.095 1.224 2.175 2.463 3.225 3.729 18.897 22.791 29.662 51.55 30.311 80.981.745 33.786-11.098 65.709-33.48 90.703l-87.736-87.734zm-191.425 180.82c-23.117-23.116-36.679-53.379-38.498-85.641h128.53l90.843 90.842c-24.99 22.382-56.891 34.224-90.702 33.481-.089-.002-.178-.007-.268-.009l-14.325-35.793c-1.539-3.846-5.905-5.716-9.75-4.176-3.846 1.539-5.715 5.904-4.176 9.75l11.502 28.74c-27.532-4.212-53.048-17.087-73.156-37.194zm220.914 185.16c-10.335 0-18.743-8.408-18.743-18.744s8.408-18.744 18.743-18.744c10.336 0 18.744 8.409 18.744 18.744s-8.408 18.744-18.744 18.744z"/></g></svg>