<svg id="Capa_1" enable-background="new 0 0 512 512" height="512" viewBox="0 0 512 512" width="512" xmlns="http://www.w3.org/2000/svg"><g><path d="m7.5 180.903c4.142 0 7.5-3.358 7.5-7.5v-143.403c0-4.136 3.364-7.5 7.5-7.5h112.243v88.906c0 4.853 2.649 9.307 6.913 11.623 4.264 2.317 9.442 2.116 13.514-.525l38.11-24.718 38.11 24.718c2.185 1.417 4.688 2.131 7.198 2.131 2.168 0 4.34-.533 6.316-1.606 4.264-2.317 6.913-6.771 6.913-11.623v-88.906h112.243c4.136 0 7.5 3.364 7.5 7.5v55.915c0 4.142 3.358 7.5 7.5 7.5s7.5-3.358 7.5-7.5v-55.915c0-12.407-10.093-22.5-22.5-22.5h-341.56c-12.407 0-22.5 10.093-22.5 22.5v143.403c0 4.142 3.358 7.5 7.5 7.5zm229.317-72.757-36.339-23.569c-4.372-2.836-10.023-2.836-14.396 0l-36.339 23.569v-85.646h87.074z"/><path d="m364.752 357.252c19.021-19.021 29.497-44.348 29.497-71.316s-10.475-52.295-29.497-71.316c-39.324-39.323-103.308-39.324-142.632 0s-39.324 103.309-.001 142.632c19.021 19.021 44.349 29.496 71.316 29.496 26.969 0 52.296-10.475 71.317-29.496zm-132.025-132.026c33.475-33.475 87.943-33.475 121.419 0 16.188 16.188 25.103 37.748 25.103 60.709s-8.915 44.521-25.103 60.709-37.749 25.104-60.71 25.104-44.522-8.915-60.71-25.103c-33.475-33.475-33.475-87.943.001-121.419z"/><path d="m501.402 442.733-86.157-86.157c12.327-21.212 18.905-45.409 18.905-70.64 0-37.643-14.621-72.995-41.17-99.544-2.093-2.093-4.246-4.103-6.446-6.046.012-.171.026-.341.026-.516v-61.229c0-4.142-3.358-7.5-7.5-7.5s-7.5 3.358-7.5 7.5v50.186c-22.916-15.33-49.875-23.565-78.124-23.565-37.643 0-72.995 14.621-99.544 41.17-49.704 49.704-54.398 127.633-14.084 182.669h-157.308c-4.136 0-7.5-3.364-7.5-7.5v-155.472c0-4.142-3.358-7.5-7.5-7.5s-7.5 3.358-7.5 7.5v155.471c0 12.407 10.093 22.5 22.5 22.5h170.008c.461.474.915.951 1.384 1.419 5.008 5.008 10.421 9.665 16.088 13.842 3.333 2.456 8.029 1.746 10.487-1.588 2.458-3.335 1.747-8.03-1.588-10.487-5.064-3.732-9.902-7.895-14.381-12.374-49.04-49.04-49.04-128.835.001-177.876 23.716-23.716 55.301-36.776 88.938-36.776 33.636 0 65.222 13.061 88.938 36.776 23.716 23.716 36.776 55.301 36.776 88.938 0 33.636-13.061 65.222-36.776 88.937-35.963 35.963-89.669 46.706-136.822 27.368-3.834-1.571-8.213.262-9.785 4.094-1.572 3.833.261 8.213 4.093 9.785 17.423 7.145 35.643 10.619 53.688 10.619 24.676-.001 49.014-6.509 70.518-19.004l86.167 86.167c6.834 6.834 15.92 10.598 25.585 10.598 9.664 0 18.75-3.764 25.584-10.598s10.598-15.92 10.598-25.584c-.001-9.663-3.765-18.749-10.599-25.583zm-10.606 40.563c-4.001 4.001-9.32 6.204-14.978 6.204s-10.977-2.203-14.978-6.204l-83.961-83.961c5.646-4.164 11.031-8.785 16.101-13.855 5.06-5.06 9.684-10.442 13.859-16.097l83.957 83.957c4.001 4.001 6.204 9.32 6.204 14.978s-2.203 10.977-6.204 14.978z"/><path d="m344.103 327.925c4.142 0 7.5-3.358 7.5-7.5v-68.979c0-4.142-3.358-7.5-7.5-7.5s-7.5 3.358-7.5 7.5v68.979c0 4.142 3.357 7.5 7.5 7.5z"/><path d="m242.77 243.946c-4.142 0-7.5 3.358-7.5 7.5v68.979c0 4.142 3.358 7.5 7.5 7.5s7.5-3.358 7.5-7.5v-68.979c0-4.142-3.358-7.5-7.5-7.5z"/><path d="m276.547 271.523c-4.142 0-7.5 3.358-7.5 7.5v41.402c0 4.142 3.358 7.5 7.5 7.5s7.5-3.358 7.5-7.5v-41.402c0-4.142-3.357-7.5-7.5-7.5z"/><path d="m310.325 327.925c4.142 0 7.5-3.358 7.5-7.5v-41.402c0-4.142-3.358-7.5-7.5-7.5s-7.5 3.358-7.5 7.5v41.402c0 4.142 3.358 7.5 7.5 7.5z"/><path d="m128.76 288.954h-83.717c-6.893 0-12.5 5.607-12.5 12.5v33.943c0 6.893 5.607 12.5 12.5 12.5h83.717c6.893 0 12.5-5.607 12.5-12.5v-33.943c0-6.893-5.607-12.5-12.5-12.5zm-2.5 43.943h-78.717v-28.943h78.717z"/></g></svg>