<svg id="Capa_1" enable-background="new 0 0 512 512" height="512" viewBox="0 0 512 512" width="512" xmlns="http://www.w3.org/2000/svg"><g><path d="m27.351 176.675c4.142 0 7.5-3.357 7.5-7.5v-61.823c0-8.516 6.929-15.444 15.445-15.444h264.774c4.142 0 7.5-3.357 7.5-7.5s-3.358-7.5-7.5-7.5h-51.57v-26.558h24.787c8.912 0 16.162-7.25 16.162-16.162v-18.026c0-8.912-7.25-16.162-16.162-16.162h-64.574c-8.912 0-16.162 7.25-16.162 16.162v18.025c0 8.912 7.25 16.162 16.162 16.162h24.787v26.558h-118.961v-26.557h24.787c8.912 0 16.163-7.25 16.163-16.162v-18.026c-.001-8.912-7.251-16.162-16.163-16.162h-64.574c-8.912 0-16.163 7.25-16.163 16.162v18.025c0 8.912 7.25 16.162 16.163 16.162h24.787v26.558h-64.244c-16.787 0-30.445 13.657-30.445 30.444v61.823c.001 4.143 3.358 7.501 7.501 7.501zm195.2-142.487v-18.026c0-.641.521-1.162 1.162-1.162h64.574c.641 0 1.162.521 1.162 1.162v18.025c0 .641-.522 1.162-1.162 1.162h-64.574c-.641.001-1.162-.521-1.162-1.161zm-133.962 0v-18.026c0-.641.521-1.162 1.163-1.162h64.574c.641 0 1.163.521 1.163 1.162v18.025c0 .641-.521 1.162-1.163 1.162h-64.574c-.641.001-1.163-.521-1.163-1.161z"/><path d="m492.149 342.705v-235.353c0-16.787-13.658-30.444-30.445-30.444h-64.244v-26.558h24.787c8.912 0 16.163-7.25 16.163-16.162v-18.026c.001-8.912-7.25-16.162-16.162-16.162h-64.574c-8.912 0-16.163 7.25-16.163 16.162v18.025c0 8.912 7.25 16.162 16.163 16.162h24.787v26.558h-34.705c-4.142 0-7.5 3.357-7.5 7.5s3.358 7.5 7.5 7.5h113.949c8.516 0 15.445 6.929 15.445 15.444v234.137h-442.299v-139.627c0-4.143-3.358-7.5-7.5-7.5s-7.5 3.357-7.5 7.5v140.843c-11.477 3.503-19.851 14.189-19.851 26.796v.81c0 15.446 12.566 28.013 28.012 28.013h165.844v106.177c0 4.143 3.358 7.5 7.5 7.5h109.289c4.142 0 7.5-3.357 7.5-7.5v-106.178h75.077c4.142 0 7.5-3.357 7.5-7.5s-3.358-7.5-7.5-7.5h-365.21c-7.175 0-13.012-5.838-13.012-13.013v-.81c0-7.175 5.837-13.012 13.012-13.012h455.976c7.175 0 13.012 5.837 13.012 13.012v.81c0 7.175-5.837 13.013-13.012 13.013h-58.08c-4.142 0-7.5 3.357-7.5 7.5s3.358 7.5 7.5 7.5h58.08c15.446 0 28.012-12.566 28.012-28.013v-.81c0-12.606-8.374-23.292-19.851-26.794zm-135.637-308.517v-18.026c0-.641.521-1.162 1.163-1.162h64.574c.641 0 1.163.521 1.163 1.162v18.025c0 .641-.521 1.162-1.163 1.162h-64.574c-.642.001-1.163-.521-1.163-1.161zm-100.512 418.881 38.188 43.931h-76.376zm-47.145 31.372v-85.606l37.208 42.803zm57.082-42.803 37.208-42.803v85.606zm-9.937-11.431-27.716-31.884h55.432z"/><path d="m70.464 222.598c0 54.744 44.537 99.282 99.28 99.284h.001.001.003.003.001.001c54.743-.002 99.28-44.54 99.28-99.284 0-54.745-44.539-99.284-99.285-99.284s-99.285 44.538-99.285 99.284zm183.218-7.5h-33.787c-.605-10.414-2.473-20.614-5.52-30.4 7.631-3.848 14.784-8.71 21.3-14.521 10.01 12.562 16.509 28.029 18.007 44.921zm-18.007 59.921c-6.519-5.814-13.674-10.677-21.309-14.526 3.041-9.779 4.909-19.976 5.521-30.396h33.795c-1.498 16.893-7.997 32.36-18.007 44.922zm-149.86-44.921h33.795c.613 10.419 2.48 20.617 5.521 30.396-7.635 3.849-14.791 8.712-21.309 14.526-10.01-12.563-16.509-28.03-18.007-44.922zm18.007-59.922c6.516 5.811 13.669 10.673 21.3 14.521-3.046 9.787-4.915 19.986-5.52 30.4h-33.787c1.498-16.891 7.997-32.358 18.007-44.921zm91.351 6.174c-8.104 2.547-16.649 3.869-25.424 3.869s-17.32-1.322-25.424-3.869c5.999-13.267 14.582-25.361 25.424-35.542 10.842 10.181 19.425 22.275 25.424 35.542zm-25.425 128.018c-10.839-10.157-19.421-22.244-25.419-35.524 8.102-2.546 16.646-3.867 25.419-3.867s17.317 1.322 25.419 3.867c-5.997 13.28-14.579 25.367-25.419 35.524zm0-54.391c-10.597 0-20.909 1.64-30.669 4.79-2.374-7.963-3.872-16.23-4.435-24.669h70.208c-.563 8.439-2.061 16.706-4.435 24.669-9.759-3.15-20.071-4.79-30.669-4.79zm-35.111-34.879c.556-8.435 2.054-16.703 4.432-24.672 9.763 3.152 20.078 4.794 30.679 4.794s20.916-1.641 30.679-4.794c2.378 7.969 3.876 16.238 4.432 24.672zm-4.155-44.546c-5.804-3.066-11.269-6.827-16.294-11.254 9.869-8.673 21.764-15.089 34.886-18.411-7.577 9.03-13.819 19.014-18.592 29.665zm.004 104.089c4.773 10.661 11.016 20.647 18.593 29.668-13.124-3.321-25.021-9.738-34.891-18.412 5.027-4.427 10.492-8.19 16.298-11.256zm78.525 0c5.806 3.066 11.271 6.828 16.298 11.256-9.87 8.674-21.767 15.091-34.891 18.412 7.577-9.021 13.819-19.006 18.593-29.668zm.004-104.089c-4.773-10.65-11.015-20.635-18.593-29.665 13.122 3.322 25.017 9.738 34.886 18.411-5.025 4.427-10.489 8.188-16.293 11.254z"/><path d="m331.413 275.99h54.559c4.142 0 7.5-3.357 7.5-7.5s-3.358-7.5-7.5-7.5h-54.559c-4.142 0-7.5 3.357-7.5 7.5s3.357 7.5 7.5 7.5z"/><path d="m331.413 230.102h102.623c4.142 0 7.5-3.357 7.5-7.5s-3.358-7.5-7.5-7.5h-102.623c-4.142 0-7.5 3.357-7.5 7.5 0 4.142 3.357 7.5 7.5 7.5z"/><path d="m331.413 184.213h102.623c4.142 0 7.5-3.357 7.5-7.5s-3.358-7.5-7.5-7.5h-102.623c-4.142 0-7.5 3.357-7.5 7.5 0 4.142 3.357 7.5 7.5 7.5z"/></g></svg>