<svg id="Capa_1" enable-background="new 0 0 512 512" height="512" viewBox="0 0 512 512" width="512" xmlns="http://www.w3.org/2000/svg"><g><path d="m444.856 460.757h-2.207v-42.181h10.855c6.264 0 12.31-2.624 16.589-7.198s6.493-10.783 6.075-17.033l-15.037-224.707c-.276-4.134-3.848-7.275-7.984-6.982-4.133.276-7.259 3.852-6.982 7.984l11.632 173.82h-152.596l16.292-243.453c.177-2.651 3.718-5.489 8.707-5.489h102.598c4.989 0 8.53 2.838 8.707 5.489l2.472 36.946c.276 4.132 3.837 7.251 7.984 6.982 4.133-.276 7.259-3.852 6.983-7.984l-2.472-36.946c-.527-7.869-6.079-14.49-13.822-17.591v-31.171h2.207c13.987 0 25.367-11.379 25.367-25.366v-.511c-.001-13.987-11.38-25.366-25.368-25.366h-126.716c-13.987 0-25.366 11.379-25.366 25.366v.511c0 13.987 11.379 25.366 25.366 25.366h2.207v31.171c-7.743 3.101-13.295 9.722-13.822 17.591l-4.172 62.345h-92.707l-4.172-62.345c-.527-7.869-6.079-14.49-13.822-17.591v-31.171h2.207c13.987 0 25.366-11.379 25.366-25.366v-.511c.001-13.987-11.378-25.366-25.365-25.366h-126.716c-13.988 0-25.367 11.379-25.367 25.366v.511c0 13.987 11.379 25.366 25.367 25.366h2.207v31.171c-7.743 3.101-13.295 9.722-13.822 17.591l-19.697 294.34c-.418 6.25 1.796 12.459 6.075 17.033 4.278 4.574 10.325 7.198 16.589 7.198h10.855v42.181h-2.207c-13.987 0-25.367 11.379-25.367 25.366v.511c0 13.987 11.379 25.366 25.367 25.366h126.716c13.987 0 25.366-11.379 25.366-25.366v-.511c0-13.987-11.379-25.366-25.366-25.366h-2.207v-42.181h10.855c6.264 0 12.31-2.624 16.589-7.198 4.279-4.575 6.493-10.783 6.075-17.033l-5.331-79.661h72.319l-5.331 79.661c-.418 6.25 1.796 12.458 6.075 17.033 4.279 4.574 10.325 7.198 16.589 7.198h10.855v42.181h-2.207c-13.987 0-25.366 11.379-25.366 25.366v.511c0 13.987 11.379 25.366 25.366 25.366h66.431c4.142 0 7.5-3.357 7.5-7.5s-3.358-7.5-7.5-7.5h-66.432c-5.716 0-10.366-4.65-10.366-10.366v-.511c0-5.716 4.65-10.366 10.366-10.366h126.716c5.716 0 10.367 4.65 10.367 10.366v.511c0 5.716-4.65 10.366-10.367 10.366h-27.599c-4.142 0-7.5 3.357-7.5 7.5s3.358 7.5 7.5 7.5h27.599c13.987 0 25.367-11.379 25.367-25.366v-.511c0-13.987-11.379-25.366-25.367-25.366zm-231.86-248.356h17.404v52.23h-13.909zm32.404 0h21.2v52.23h-21.2zm36.2 0h17.404l-3.495 52.23h-13.909zm26.174-186.524v-.511c0-5.716 4.65-10.366 10.366-10.366h126.716c5.716 0 10.367 4.65 10.367 10.366v.511c0 5.716-4.65 10.366-10.367 10.366h-126.716c-5.716 0-10.366-4.65-10.366-10.366zm119.875 25.366v29.274h-92.302v-29.274zm-126.299 126.107-1.342 20.052h-88.016l-1.342-20.052zm-244.573-151.473v-.511c0-5.716 4.65-10.366 10.367-10.366h126.716c5.716 0 10.366 4.65 10.366 10.366v.511c0 5.716-4.65 10.366-10.366 10.366h-126.716c-5.717 0-10.367-4.65-10.367-10.366zm119.876 25.366v29.274h-92.302v-29.274zm27.573 434.88v.511c0 5.716-4.65 10.366-10.366 10.366h-126.716c-5.716 0-10.367-4.65-10.367-10.366v-.511c0-5.716 4.65-10.366 10.367-10.366h126.716c5.716 0 10.366 4.65 10.366 10.366zm-27.573-25.366h-92.302v-42.181h92.302zm31.489-59.625c-1.475 1.576-3.475 2.444-5.634 2.444h-144.012c-2.159 0-4.16-.868-5.634-2.444-1.475-1.577-2.208-3.631-2.063-5.785l2.401-35.887h32.19c4.142 0 7.5-3.357 7.5-7.5s-3.358-7.5-7.5-7.5h-31.186l16.292-243.453c.177-2.651 3.718-5.489 8.707-5.489h102.598c4.989 0 8.53 2.838 8.707 5.489l16.291 243.453h-88.722c-4.142 0-7.5 3.357-7.5 7.5s3.358 7.5 7.5 7.5h89.726l2.402 35.887c.144 2.153-.589 4.208-2.063 5.785zm10.695-101.448-1.342-20.052h77.01l-1.342 20.052zm85.021 101.448c-1.475-1.577-2.208-3.632-2.063-5.785l2.402-35.887h154.603l2.401 35.887c.145 2.154-.588 4.208-2.063 5.785-1.474 1.576-3.475 2.444-5.634 2.444h-144.012c-2.159 0-4.159-.868-5.634-2.444zm31.489 17.444h92.302v42.181h-92.302z"/></g></svg>