<svg id="Capa_1" enable-background="new 0 0 512 512" height="512" viewBox="0 0 512 512" width="512" xmlns="http://www.w3.org/2000/svg"><g><path d="m460.104 329.567c4.142 0 7.5-3.358 7.5-7.5v-279.567c0-23.435-19.065-42.5-42.5-42.5h-338.208c-23.435 0-42.5 19.065-42.5 42.5v427c0 23.435 19.065 42.5 42.5 42.5h338.209c23.435 0 42.5-19.065 42.5-42.5v-114.747c0-4.142-3.358-7.5-7.5-7.5s-7.5 3.358-7.5 7.5v114.747c0 15.164-12.336 27.5-27.5 27.5h-338.209c-15.164 0-27.5-12.336-27.5-27.5v-427c0-15.164 12.336-27.5 27.5-27.5h338.209c15.164 0 27.5 12.336 27.5 27.5v279.567c-.001 4.142 3.357 7.5 7.499 7.5z"/><path d="m431.32 58.898c0-12.407-10.093-22.5-22.5-22.5h-305.64c-12.407 0-22.5 10.093-22.5 22.5v42.875c0 12.407 10.093 22.5 22.5 22.5h29.776c4.142 0 7.5-3.358 7.5-7.5s-3.358-7.5-7.5-7.5h-29.776c-4.136 0-7.5-3.364-7.5-7.5v-42.875c0-4.136 3.364-7.5 7.5-7.5h305.64c4.136 0 7.5 3.364 7.5 7.5v42.875c0 4.136-3.364 7.5-7.5 7.5h-243.178c-4.142 0-7.5 3.358-7.5 7.5s3.358 7.5 7.5 7.5h243.178c12.407 0 22.5-10.093 22.5-22.5z"/><path d="m103.18 201.223c-12.407 0-22.5 10.093-22.5 22.5v229.379c0 12.407 10.093 22.5 22.5 22.5h29.776c4.142 0 7.5-3.358 7.5-7.5s-3.358-7.5-7.5-7.5h-29.776c-4.136 0-7.5-3.365-7.5-7.5v-63.962h96.88v71.462h-26.918c-4.142 0-7.5 3.358-7.5 7.5s3.358 7.5 7.5 7.5h243.178c12.407 0 22.5-10.093 22.5-22.5v-229.379c0-12.407-10.093-22.5-22.5-22.5zm201.26 101.457v71.46h-96.88v-71.46zm-96.88-15v-71.457h96.88v71.457zm201.26 172.922h-89.38v-157.922h96.88v150.422c0 4.135-3.364 7.5-7.5 7.5zm7.5-236.879v63.957h-96.88v-71.457h89.38c4.136 0 7.5 3.365 7.5 7.5zm-313.14-7.5h89.38v71.457h-96.88v-63.957c0-4.135 3.364-7.5 7.5-7.5zm-7.5 157.917v-71.46h96.88v71.46zm111.88 15h96.88v71.462h-96.88z"/><path d="m407.759 139.186h-303.518c-12.992 0-23.562 10.57-23.562 23.562s10.57 23.562 23.562 23.562h303.518c12.992 0 23.562-10.57 23.562-23.562-.001-12.992-10.571-23.562-23.562-23.562zm-103.319 15v17.124h-96.88v-17.124zm-208.76 8.562c0-4.721 3.841-8.562 8.562-8.562h88.319v17.124h-88.319c-4.721 0-8.562-3.841-8.562-8.562zm312.079 8.562h-88.319v-17.124h88.319c4.721 0 8.562 3.841 8.562 8.562-.001 4.721-3.842 8.562-8.562 8.562z"/><path d="m392.286 361.786h-48.812c-4.142 0-7.5 3.358-7.5 7.5s3.358 7.5 7.5 7.5h48.812c4.142 0 7.5-3.358 7.5-7.5s-3.358-7.5-7.5-7.5z"/><path d="m392.286 386.494h-48.812c-4.142 0-7.5 3.358-7.5 7.5s3.358 7.5 7.5 7.5h48.812c4.142 0 7.5-3.358 7.5-7.5s-3.358-7.5-7.5-7.5z"/></g></svg>