<svg id="Capa_1" enable-background="new 0 0 512 512" height="512" viewBox="0 0 512 512" width="512" xmlns="http://www.w3.org/2000/svg"><g><path d="m512 77.28c0-17.92-14.579-32.5-32.5-32.5h-43.976v-13.15c0-17.441-14.189-31.63-31.63-31.63-17.44 0-31.63 14.189-31.63 31.63v13.15h-84.634v-13.15c0-17.441-14.19-31.63-31.63-31.63-17.441 0-31.63 14.189-31.63 31.63v13.15h-84.635v-13.15c0-17.441-14.189-31.63-31.63-31.63s-31.63 14.189-31.63 31.63v13.15h-43.975c-17.92 0-32.5 14.579-32.5 32.5v195.003c0 4.142 3.358 7.5 7.5 7.5s7.5-3.358 7.5-7.5v-129.125h122.773c4.142 0 7.5-3.358 7.5-7.5s-3.358-7.5-7.5-7.5h-122.773v-50.878c0-9.649 7.851-17.5 17.5-17.5h43.976v11.428c0 17.441 14.189 31.63 31.63 31.63s31.63-14.189 31.63-31.63v-11.428h84.635v11.428c0 17.441 14.189 31.63 31.63 31.63 17.44 0 31.63-14.189 31.63-31.63v-11.428h84.635v11.428c0 17.441 14.19 31.63 31.63 31.63s31.63-14.189 31.63-31.63v-11.428h43.974c9.649 0 17.5 7.851 17.5 17.5v50.878h-326.541c-4.142 0-7.5 3.358-7.5 7.5s3.358 7.5 7.5 7.5h326.541v210.962h-71.94c-9.649 0-17.5 7.851-17.5 17.5v71.79h-55.237c-4.143 0-7.5 3.358-7.5 7.5s3.357 7.5 7.5 7.5h62.777c6.008 0 11.655-2.339 15.904-6.586l65.996-65.997v93.673c0 9.649-7.851 17.5-17.5 17.5h-447c-9.649 0-17.5-7.851-17.5-17.5v-26.226c5.056 3.245 11.059 5.136 17.5 5.136h287.137c4.143 0 7.5-3.358 7.5-7.5s-3.357-7.5-7.5-7.5h-287.137c-9.649 0-17.5-7.851-17.5-17.5v-120.94c0-4.142-3.358-7.5-7.5-7.5s-7.5 3.358-7.5 7.5v174.53c0 17.92 14.58 32.5 32.5 32.5h447c17.921 0 32.5-14.58 32.5-32.5zm-387.265-6.072c0 9.17-7.46 16.63-16.63 16.63s-16.63-7.46-16.63-16.63v-39.578c0-9.17 7.46-16.63 16.63-16.63s16.63 7.46 16.63 16.63zm147.895 0c0 9.17-7.46 16.63-16.63 16.63s-16.63-7.46-16.63-16.63v-39.578c0-9.17 7.46-16.63 16.63-16.63s16.63 7.46 16.63 16.63zm147.894 0c0 9.17-7.46 16.63-16.63 16.63s-16.63-7.46-16.63-16.63v-39.578c0-9.17 7.46-16.63 16.63-16.63s16.63 7.46 16.63 16.63zm2.036 367.845v-67.433c0-1.378 1.121-2.5 2.5-2.5h67.433z"/><path d="m86.044 260.354h44.122c9.649 0 17.5-7.851 17.5-17.5v-44.122c0-9.649-7.851-17.5-17.5-17.5h-44.122c-9.649 0-17.5 7.851-17.5 17.5v44.122c0 9.65 7.851 17.5 17.5 17.5zm-2.5-61.622c0-1.378 1.122-2.5 2.5-2.5h44.122c1.378 0 2.5 1.122 2.5 2.5v44.122c0 1.378-1.122 2.5-2.5 2.5h-44.122c-1.378 0-2.5-1.122-2.5-2.5z"/><path d="m425.956 260.354c9.649 0 17.5-7.851 17.5-17.5v-44.122c0-9.649-7.851-17.5-17.5-17.5h-44.122c-9.649 0-17.5 7.851-17.5 17.5v44.122c0 9.649 7.851 17.5 17.5 17.5zm0-14.999h-36.022l38.522-38.515v36.015c0 1.378-1.121 2.5-2.5 2.5zm-44.122-49.123h36.015l-38.515 38.508v-36.008c0-1.378 1.121-2.5 2.5-2.5z"/><path d="m233.939 260.354h44.121c9.65 0 17.5-7.851 17.5-17.5v-44.122c0-9.649-7.85-17.5-17.5-17.5h-44.121c-9.649 0-17.5 7.851-17.5 17.5v44.122c0 9.65 7.851 17.5 17.5 17.5zm-2.5-61.622c0-1.378 1.121-2.5 2.5-2.5h44.121c1.379 0 2.5 1.122 2.5 2.5v44.122c0 1.378-1.121 2.5-2.5 2.5h-44.121c-1.379 0-2.5-1.122-2.5-2.5z"/><path d="m68.544 371.522c0 9.649 7.851 17.5 17.5 17.5h44.122c9.649 0 17.5-7.851 17.5-17.5v-44.122c0-9.649-7.851-17.5-17.5-17.5h-44.122c-9.649 0-17.5 7.851-17.5 17.5zm15-44.123c0-1.378 1.122-2.5 2.5-2.5h44.122c1.378 0 2.5 1.122 2.5 2.5v44.122c0 1.378-1.122 2.5-2.5 2.5h-44.122c-1.378 0-2.5-1.122-2.5-2.5z"/><path d="m216.439 371.522c0 9.649 7.851 17.5 17.5 17.5h44.121c9.65 0 17.5-7.851 17.5-17.5v-44.122c0-9.649-7.85-17.5-17.5-17.5h-44.121c-9.649 0-17.5 7.851-17.5 17.5zm15-44.123c0-1.378 1.121-2.5 2.5-2.5h44.121c1.379 0 2.5 1.122 2.5 2.5v44.122c0 1.378-1.121 2.5-2.5 2.5h-44.121c-1.379 0-2.5-1.122-2.5-2.5z"/></g></svg>