<svg id="Capa_1" enable-background="new 0 0 512 512" height="512" viewBox="0 0 512 512" width="512" xmlns="http://www.w3.org/2000/svg"><g><path d="m433.201 257.839c4.143 0 7.5-3.358 7.5-7.5v-161.182c0-17.92-14.579-32.5-32.5-32.5h-58.306c-2.759-9.539-11.566-16.536-21.981-16.536h-24.88c-3.634-23.013-23.501-40.121-47.034-40.121-23.532 0-43.4 17.106-47.034 40.121h-24.88c-10.415 0-19.222 6.997-21.981 16.536h-58.306c-17.921 0-32.5 14.58-32.5 32.5v390.343c0 17.92 14.579 32.5 32.5 32.5h304.401c17.921 0 32.5-14.58 32.5-32.5v-196.474c0-4.142-3.357-7.5-7.5-7.5s-7.5 3.358-7.5 7.5v196.474c0 9.649-7.851 17.5-17.5 17.5h-304.401c-9.649 0-17.5-7.851-17.5-17.5v-390.343c0-9.649 7.851-17.5 17.5-17.5h57.403v17.497h-35.49c-12.269 0-22.25 9.981-22.25 22.249v345.849c0 12.268 9.981 22.249 22.25 22.249h32.168c4.143 0 7.5-3.358 7.5-7.5s-3.357-7.5-7.5-7.5h-32.168c-3.998 0-7.25-3.252-7.25-7.249v-345.849c0-3.997 3.252-7.249 7.25-7.249h38.25c3.878 7.139 11.444 11.997 20.124 11.997h78.803c4.143 0 7.5-3.358 7.5-7.5s-3.357-7.5-7.5-7.5h-78.803c-4.347 0-7.884-3.537-7.884-7.884v-30.262c0-4.347 3.537-7.884 7.884-7.884h26.958c6.42 0 11.814-4.841 12.548-11.259 1.883-16.454 15.816-28.862 32.408-28.862s30.524 12.408 32.407 28.861c.733 6.419 6.128 11.26 12.548 11.26h26.958c4.347 0 7.884 3.537 7.884 7.884v30.261c0 4.348-3.537 7.884-7.884 7.884h-32.338c-4.143 0-7.5 3.358-7.5 7.5s3.357 7.5 7.5 7.5h32.338c8.68 0 16.246-4.857 20.124-11.997h38.251c3.997 0 7.249 3.252 7.249 7.249v291.258h-39.777c-9.558 0-17.333 7.775-17.333 17.333v44.507h-145.861c-4.143 0-7.5 3.358-7.5 7.5s3.357 7.5 7.5 7.5h153.41c4.875 0 9.554-2.07 12.839-5.683l47.22-51.989c2.903-3.199 4.503-7.336 4.503-11.649v-298.776c0-12.268-9.98-22.249-22.249-22.249h-35.491v-17.497h57.403c9.649 0 17.5 7.851 17.5 17.5v161.183c0 4.141 3.357 7.499 7.5 7.499zm-81.774 199.601v-37.446c0-1.287 1.047-2.333 2.333-2.333h33.796z"/><path d="m165.972 211.077h37.617c9.649 0 17.5-7.851 17.5-17.5v-37.617c0-9.649-7.851-17.5-17.5-17.5h-37.617c-9.649 0-17.5 7.851-17.5 17.5v37.617c0 9.649 7.851 17.5 17.5 17.5zm-2.5-55.117c0-1.378 1.121-2.5 2.5-2.5h37.617c1.379 0 2.5 1.122 2.5 2.5v37.617c0 1.378-1.121 2.5-2.5 2.5h-37.617c-1.379 0-2.5-1.122-2.5-2.5z"/><path d="m148.472 303.137c0 9.649 7.851 17.5 17.5 17.5h37.617c9.649 0 17.5-7.851 17.5-17.5v-37.617c0-9.649-7.851-17.5-17.5-17.5h-37.617c-9.649 0-17.5 7.851-17.5 17.5zm55.117 2.5h-29.516l32.016-32.009v29.509c0 1.378-1.121 2.5-2.5 2.5zm-37.617-42.617h29.511l-32.011 32.005v-29.505c0-1.378 1.121-2.5 2.5-2.5z"/><path d="m148.472 412.697c0 9.649 7.851 17.5 17.5 17.5h37.617c9.649 0 17.5-7.851 17.5-17.5v-37.617c0-9.649-7.851-17.5-17.5-17.5h-37.617c-9.649 0-17.5 7.851-17.5 17.5zm15-37.617c0-1.378 1.121-2.5 2.5-2.5h37.617c1.379 0 2.5 1.122 2.5 2.5v37.617c0 1.378-1.121 2.5-2.5 2.5h-37.617c-1.379 0-2.5-1.122-2.5-2.5z"/><path d="m257.258 170.328h98.77c4.143 0 7.5-3.358 7.5-7.5s-3.357-7.5-7.5-7.5h-98.77c-4.143 0-7.5 3.358-7.5 7.5s3.358 7.5 7.5 7.5z"/><path d="m257.258 196.712h58.982c4.143 0 7.5-3.358 7.5-7.5s-3.357-7.5-7.5-7.5h-58.982c-4.143 0-7.5 3.358-7.5 7.5s3.358 7.5 7.5 7.5z"/><path d="m257.258 278.636h98.77c4.143 0 7.5-3.358 7.5-7.5s-3.357-7.5-7.5-7.5h-98.77c-4.143 0-7.5 3.358-7.5 7.5s3.358 7.5 7.5 7.5z"/><path d="m257.258 305.021h58.982c4.143 0 7.5-3.358 7.5-7.5s-3.357-7.5-7.5-7.5h-58.982c-4.143 0-7.5 3.358-7.5 7.5s3.358 7.5 7.5 7.5z"/><path d="m257.258 386.945h98.77c4.143 0 7.5-3.358 7.5-7.5s-3.357-7.5-7.5-7.5h-98.77c-4.143 0-7.5 3.358-7.5 7.5s3.358 7.5 7.5 7.5z"/><path d="m257.258 413.329h58.982c4.143 0 7.5-3.358 7.5-7.5s-3.357-7.5-7.5-7.5h-58.982c-4.143 0-7.5 3.358-7.5 7.5s3.358 7.5 7.5 7.5z"/><path d="m248.5 52.388c0 4.142 3.358 7.5 7.5 7.5s7.5-3.358 7.5-7.5c0-4.142-3.358-7.5-7.5-7.5s-7.5 3.358-7.5 7.5z"/></g></svg>