<svg id="Capa_1" enable-background="new 0 0 512 512" height="512" viewBox="0 0 512 512" width="512" xmlns="http://www.w3.org/2000/svg"><g><path d="m479.926 461.269v-241.025c0-12.406-10.094-22.5-22.5-22.5h-94.484v-97.004c0-4.142-3.357-7.5-7.5-7.5s-7.5 3.358-7.5 7.5v360.483h-54.848v-47.217c7.428-2.022 12.914-8.809 12.914-16.87v-12.474c0-9.649-7.851-17.5-17.5-17.5h-65.016c-9.649 0-17.5 7.851-17.5 17.5v12.474c0 8.061 5.486 14.847 12.914 16.87v47.217h-54.848v-443.723c0-1.379 1.121-2.5 2.5-2.5h178.883c1.379 0 2.5 1.121 2.5 2.5v50.554c0 4.143 3.357 7.5 7.5 7.5s7.5-3.357 7.5-7.5v-50.554c0-9.649-7.851-17.5-17.5-17.5h-178.882c-9.649 0-17.5 7.851-17.5 17.5v180.244h-94.485c-12.406 0-22.5 10.094-22.5 22.5v64.563c0 4.143 3.357 7.5 7.5 7.5s7.5-3.357 7.5-7.5v-64.563c0-4.136 3.364-7.5 7.5-7.5h94.484v248.48h-43.175v-43.394c12.432-3.318 21.617-14.671 21.617-28.134v-22.558c0-16.056-13.062-29.118-29.117-29.118s-29.118 13.062-29.118 29.118v22.558c0 13.463 9.186 24.816 21.618 28.134v43.394h-43.81v-143.73c0-4.143-3.357-7.5-7.5-7.5s-7.5 3.357-7.5 7.5v143.776c-13.32.762-23.923 11.835-23.923 25.342.001 13.998 11.39 25.388 25.389 25.388h325.629c4.142 0 7.5-3.357 7.5-7.5s-3.358-7.5-7.5-7.5h-325.629c-5.728 0-10.388-4.66-10.388-10.389 0-5.728 4.66-10.388 10.388-10.388h444.922c5.728 0 10.388 4.66 10.388 10.388 0 5.729-4.66 10.389-10.388 10.389h-86.606c-4.143 0-7.5 3.357-7.5 7.5s3.357 7.5 7.5 7.5h86.606c13.999 0 25.388-11.39 25.388-25.389 0-13.507-10.604-24.58-23.923-25.342zm-395.66-71.574v-22.558c0-7.785 6.333-14.118 14.118-14.118 7.784 0 14.117 6.333 14.117 14.118v22.558c0 7.785-6.333 14.118-14.117 14.118-7.785.001-14.118-6.333-14.118-14.118zm278.675-176.951h94.484c4.136 0 7.5 3.364 7.5 7.5v240.98h-43.81v-43.394c12.432-3.318 21.618-14.671 21.618-28.134v-22.558c0-16.056-13.062-29.118-29.118-29.118s-29.117 13.062-29.117 29.118v22.558c0 13.463 9.185 24.816 21.617 28.134v43.394h-43.175v-248.48zm50.675 191.07c-7.784 0-14.117-6.333-14.117-14.118v-22.558c0-7.785 6.333-14.118 14.117-14.118 7.785 0 14.118 6.333 14.118 14.118v22.558c0 7.784-6.333 14.118-14.118 14.118zm-192.624-19.151c0-1.379 1.121-2.5 2.5-2.5h65.016c1.379 0 2.5 1.121 2.5 2.5v12.474c0 1.379-1.121 2.5-2.5 2.5h-65.016c-1.379 0-2.5-1.121-2.5-2.5zm12.914 29.974h44.188v46.587h-44.188z"/><path d="m120.253 308.65c6.893 0 12.5-5.607 12.5-12.5v-43.738c0-6.893-5.607-12.5-12.5-12.5h-43.738c-6.893 0-12.5 5.607-12.5 12.5v43.738c0 6.893 5.607 12.5 12.5 12.5zm-41.238-53.738h38.738v38.738h-38.738z"/><path d="m435.485 308.65c6.892 0 12.5-5.607 12.5-12.5v-43.738c0-6.893-5.608-12.5-12.5-12.5h-43.738c-6.893 0-12.5 5.607-12.5 12.5v43.738c0 6.893 5.607 12.5 12.5 12.5zm-41.238-53.738h38.738v38.738h-38.738z"/><path d="m282.222 29.719c-9.649 0-17.5 7.851-17.5 17.5v289.897c0 9.649 7.851 17.5 17.5 17.5h30.093c9.649 0 17.5-7.851 17.5-17.5v-289.897c0-9.649-7.851-17.5-17.5-17.5zm-2.5 169.948h35.093v62.475h-35.093zm35.093-15h-35.093v-62.474h35.093zm-2.5 154.949h-30.093c-1.379 0-2.5-1.121-2.5-2.5v-59.975h35.093v59.975c0 1.379-1.122 2.5-2.5 2.5zm2.5-292.397v59.975h-35.093v-59.975c0-1.379 1.121-2.5 2.5-2.5h30.093c1.378 0 2.5 1.121 2.5 2.5z"/><path d="m199.686 29.719c-9.649 0-17.5 7.851-17.5 17.5v289.897c0 9.649 7.851 17.5 17.5 17.5h30.093c9.649 0 17.5-7.851 17.5-17.5v-289.897c0-9.649-7.851-17.5-17.5-17.5zm-2.5 169.948h35.093v62.475h-35.093zm35.092-15h-35.093v-62.474h35.093zm-2.5 154.949h-30.093c-1.379 0-2.5-1.121-2.5-2.5v-59.975h35.093v59.975c0 1.379-1.121 2.5-2.5 2.5zm2.5-292.397v59.975h-35.093v-59.975c0-1.379 1.121-2.5 2.5-2.5h30.093c1.379 0 2.5 1.121 2.5 2.5z"/></g></svg>