<svg id="Capa_1" enable-background="new 0 0 512 512" height="512" viewBox="0 0 512 512" width="512" xmlns="http://www.w3.org/2000/svg"><g><path d="m495.488 458.891v-230.11c9.717-4.321 16.512-14.06 16.512-25.361 0-15.3-12.447-27.747-27.747-27.747h-48.783l-149.544-50.435c3.882-5.753 6.151-12.68 6.151-20.127 0-17.323-12.27-31.833-28.577-35.294v-12.007h8.951c9.649 0 17.5-7.851 17.5-17.5v-22.81c0-9.649-7.851-17.5-17.5-17.5h-32.902c-9.649 0-17.5 7.851-17.5 17.5v22.81c0 9.649 7.851 17.5 17.5 17.5h8.951v18.723c0 4.142 3.357 7.5 7.5 7.5 11.622 0 21.077 9.456 21.077 21.078 0 5.874-2.421 11.189-6.31 15.015l-6.082-2.051c-4.793-1.676-10.062-1.676-14.855 0l-7.919 2.667c-4.279-3.86-6.988-9.428-6.988-15.631 0-4.142-3.357-7.5-7.5-7.5s-7.5 3.358-7.5 7.5c0 7.744 2.461 14.92 6.63 20.804l-147.738 49.758h-51.068c-15.3 0-27.747 12.447-27.747 27.747 0 11.302 6.795 21.04 16.512 25.362v230.109c-9.717 4.321-16.512 14.06-16.512 25.361 0 15.3 12.447 27.747 27.747 27.747h456.506c15.3 0 27.747-12.447 27.747-27.747 0-11.301-6.795-21.04-16.512-25.361zm-258.439-418.581v-22.81c0-1.378 1.121-2.5 2.5-2.5h32.902c1.379 0 2.5 1.122 2.5 2.5v22.81c0 1.378-1.121 2.5-2.5 2.5h-32.902c-1.379 0-2.5-1.121-2.5-2.5zm2.7 96.994c4.888 2.478 10.407 3.883 16.251 3.883 6.242 0 12.118-1.595 17.245-4.397l115.285 38.882h-262.543zm244.504 359.695h-456.506c-7.028 0-12.747-5.718-12.747-12.747s5.719-12.747 12.747-12.747h107.558c4.143 0 7.5-3.358 7.5-7.5s-3.357-7.5-7.5-7.5h-103.793v-225.338h328.186c4.143 0 7.5-3.358 7.5-7.5s-3.357-7.5-7.5-7.5h-331.951c-7.028 0-12.747-5.718-12.747-12.747s5.719-12.747 12.747-12.747h456.506c7.028 0 12.747 5.718 12.747 12.747s-5.719 12.747-12.747 12.747h-91.869c-4.143 0-7.5 3.358-7.5 7.5s3.357 7.5 7.5 7.5h88.105v225.338h-312.498c-4.143 0-7.5 3.358-7.5 7.5s3.357 7.5 7.5 7.5h316.262c7.028 0 12.747 5.718 12.747 12.747s-5.719 12.747-12.747 12.747z"/><path d="m308.015 423.664c13.825 0 25.073-11.236 25.073-25.048v-109.559c0-13.811-11.248-25.048-25.073-25.048s-25.073 11.237-25.073 25.048v109.559c-.001 13.812 11.248 25.048 25.073 25.048zm-10.074-134.607c0-5.54 4.519-10.048 10.073-10.048 5.555 0 10.073 4.508 10.073 10.048v109.559c0 5.541-4.519 10.048-10.073 10.048-5.555 0-10.073-4.507-10.073-10.048z"/><path d="m203.985 423.664c13.825 0 25.073-11.236 25.073-25.048v-109.559c0-13.811-11.248-25.048-25.073-25.048s-25.073 11.237-25.073 25.048v109.559c0 13.812 11.248 25.048 25.073 25.048zm-10.073-134.607c0-5.54 4.519-10.048 10.073-10.048 5.555 0 10.073 4.508 10.073 10.048v109.559c0 5.541-4.519 10.048-10.073 10.048-5.555 0-10.073-4.507-10.073-10.048z"/><path d="m99.957 264.009c-13.825 0-25.073 11.237-25.073 25.048v109.559c0 13.812 11.248 25.048 25.073 25.048s25.073-11.236 25.073-25.048v-58.369c0-4.142-3.357-7.5-7.5-7.5s-7.5 3.358-7.5 7.5v58.369c0 5.541-4.519 10.048-10.073 10.048s-10.073-4.507-10.073-10.048v-109.559c0-5.54 4.519-10.048 10.073-10.048s10.073 4.508 10.073 10.048v18.504c0 4.142 3.357 7.5 7.5 7.5s7.5-3.358 7.5-7.5v-18.504c0-13.811-11.248-25.048-25.073-25.048z"/><path d="m412.043 423.664c13.825 0 25.073-11.236 25.073-25.048v-109.559c0-13.811-11.248-25.048-25.073-25.048s-25.073 11.237-25.073 25.048v109.559c0 13.812 11.248 25.048 25.073 25.048zm-10.073-134.607c0-5.54 4.519-10.048 10.073-10.048s10.073 4.508 10.073 10.048v109.559c0 5.541-4.519 10.048-10.073 10.048s-10.073-4.507-10.073-10.048z"/></g></svg>