<svg id="Capa_1" enable-background="new 0 0 512 512" height="512" viewBox="0 0 512 512" width="512" xmlns="http://www.w3.org/2000/svg"><g><path d="m419.014 329.504h-12.67v-101.47c0-9.909-8.062-17.97-17.97-17.97h-99.021c-9.909 0-17.97 8.061-17.97 17.97v36.64c0 4.142 3.358 7.5 7.5 7.5s7.5-3.358 7.5-7.5v-36.64c0-1.638 1.332-2.97 2.97-2.97h19.786v34.306c0 3.657 1.997 7.016 5.21 8.766 1.496.815 3.142 1.22 4.785 1.219 1.891 0 3.778-.536 5.425-1.6l14.306-9.238 14.308 9.24c3.081 1.985 6.992 2.13 10.21.376 3.21-1.749 5.204-5.106 5.204-8.76v-34.31h19.786c1.638 0 2.97 1.332 2.97 2.97v101.47h-104.961v-30.744c0-4.142-3.358-7.5-7.5-7.5s-7.5 3.358-7.5 7.5v30.744h-30.768v-101.47c0-9.909-8.062-17.97-17.97-17.97h-99.021c-9.909 0-17.97 8.061-17.97 17.97v101.47h-12.667c-50.314 0-91.247 40.934-91.247 91.248 0 50.315 40.933 91.249 91.247 91.249h36.929c4.142 0 7.5-3.358 7.5-7.5s-3.358-7.5-7.5-7.5h-36.929c-42.043 0-76.247-34.205-76.247-76.248s34.205-76.248 76.247-76.248h326.027c42.043 0 76.247 34.205 76.247 76.248s-34.205 76.248-76.247 76.248h-256.411c-4.142 0-7.5 3.358-7.5 7.5s3.358 7.5 7.5 7.5h256.412c50.314 0 91.247-40.934 91.247-91.248s-40.933-91.248-91.247-91.248zm-65.427-79.335-9.296-6.003c-3.296-2.128-7.556-2.129-10.852 0l-9.301 6.006v-25.107h29.449zm-195.182-25.104h29.449v25.104l-9.296-6.003c-3.297-2.128-7.557-2.129-10.852 0l-9.301 6.006zm-37.752 2.969c0-1.638 1.332-2.97 2.97-2.97h19.782v34.306c0 3.656 1.996 7.015 5.209 8.765 1.497.816 3.143 1.22 4.785 1.22 1.892 0 3.778-.536 5.426-1.6l14.306-9.238 14.308 9.24c3.081 1.986 6.992 2.13 10.21.378 3.21-1.75 5.204-5.107 5.204-8.76v-34.31h19.79c1.638 0 2.97 1.332 2.97 2.97v101.47h-104.96z"/><path d="m474.252 420.752c0-30.459-24.78-55.239-55.239-55.239h-326.027c-30.459 0-55.239 24.78-55.239 55.239 0 30.458 24.78 55.239 55.239 55.239h326.027c30.46 0 55.239-24.78 55.239-55.239zm-421.504 0c0-22.188 18.051-40.239 40.239-40.239h326.027c22.188 0 40.239 18.051 40.239 40.239s-18.051 40.239-40.239 40.239h-326.028c-22.188 0-40.238-18.051-40.238-40.239z"/><path d="m256 414.413c-4.142 0-7.5 3.358-7.5 7.5 0 4.142 3.358 7.5 7.5 7.5s7.5-3.358 7.5-7.5c0-4.142-3.358-7.5-7.5-7.5z"/><path d="m329.327 414.413c-4.142 0-7.5 3.358-7.5 7.5 0 4.142 3.358 7.5 7.5 7.5s7.5-3.358 7.5-7.5c0-4.142-3.357-7.5-7.5-7.5z"/><path d="m402.655 414.413c-4.142 0-7.5 3.358-7.5 7.5 0 4.142 3.358 7.5 7.5 7.5s7.5-3.358 7.5-7.5c0-4.142-3.358-7.5-7.5-7.5z"/><path d="m109.346 414.413c-4.142 0-7.5 3.358-7.5 7.5 0 4.142 3.358 7.5 7.5 7.5s7.5-3.358 7.5-7.5c0-4.142-3.358-7.5-7.5-7.5z"/><path d="m182.673 414.413c-4.142 0-7.5 3.358-7.5 7.5 0 4.142 3.358 7.5 7.5 7.5s7.5-3.358 7.5-7.5c0-4.142-3.358-7.5-7.5-7.5z"/><path d="m145.352 36.075h83.129v6.464c0 6.893 5.607 12.5 12.5 12.5h7.52v13.277c-11.539 3.274-20.02 13.898-20.02 26.472 0 4.867 1.275 9.44 3.502 13.411l-14.565 14.565c-3.292 3.292-5.105 7.669-5.105 12.325v21.255c0 4.142 3.358 7.5 7.5 7.5s7.5-3.358 7.5-7.5v-21.255c0-.649.253-1.259.711-1.718l14.565-14.565c3.971 2.226 8.544 3.502 13.411 3.502s9.44-1.275 13.411-3.502l14.565 14.565c.458.459.711 1.069.711 1.718v21.255c0 4.142 3.358 7.5 7.5 7.5s7.5-3.358 7.5-7.5v-21.255c0-4.656-1.813-9.033-5.105-12.325l-14.564-14.564c2.226-3.971 3.502-8.544 3.502-13.411 0-12.574-8.48-23.198-20.02-26.472v-13.278h7.52c6.893 0 12.5-5.607 12.5-12.5v-6.464h186.654c4.142 0 7.5-3.358 7.5-7.5s-3.358-7.5-7.5-7.5h-186.654v-8.575c0-6.893-5.607-12.5-12.5-12.5h-30.04c-6.893 0-12.5 5.607-12.5 12.5v8.575h-83.129c-4.142 0-7.5 3.358-7.5 7.5s3.359 7.5 7.501 7.5zm123.168 58.714c0 6.903-5.616 12.519-12.52 12.519-6.903 0-12.52-5.616-12.52-12.519s5.616-12.52 12.52-12.52c6.903 0 12.52 5.616 12.52 12.52zm-25.04-79.789h25.039v25.039h-25.039z"/><path d="m41.826 36.075h70.839c4.142 0 7.5-3.358 7.5-7.5s-3.358-7.5-7.5-7.5h-70.839c-4.142 0-7.5 3.358-7.5 7.5s3.358 7.5 7.5 7.5z"/></g></svg>