<svg id="Capa_1" enable-background="new 0 0 512 512" height="512" viewBox="0 0 512 512" width="512" xmlns="http://www.w3.org/2000/svg"><g><path d="m186.342 396.609c-.003 0-.007 0-.01 0-7.933-.005-10.406-.417-16.493-4.463-3.45-2.293-8.105-1.355-10.397 2.095-2.293 3.45-1.355 8.105 2.095 10.397 6.513 4.329 11.289 6.031 17.238 6.649l-.03 4.198c-.03 4.142 3.304 7.524 7.445 7.555h.056c4.117 0 7.469-3.322 7.499-7.445l.036-4.906c11.955-3.049 19.677-13.229 21.448-23.315 2.296-13.077-4.725-24.962-17.473-29.572-7.319-2.647-15.416-5.843-19.98-9.476-1.599-1.273-2.261-3.987-1.687-6.915.572-2.919 2.569-6.445 6.46-7.587 9.073-2.66 14.939 2.236 15.322 2.567l.818.749c3.053 2.8 7.798 2.593 10.597-.46 2.799-3.054 2.592-7.798-.461-10.597l-.775-.71c-.316-.296-5.325-4.873-13.6-6.651l.027-3.723c.03-4.143-3.303-7.524-7.445-7.555-.019 0-.037 0-.056 0-4.117 0-7.469 3.322-7.499 7.445l-.031 4.24c-.371.096-.742.19-1.119.301-8.649 2.537-15.146 9.854-16.957 19.096-1.664 8.489 1.043 16.74 7.064 21.533 5.046 4.018 12.063 7.45 24.22 11.847 8.539 3.089 8.3 10.031 7.801 12.872-1.002 5.7-5.844 11.831-14.113 11.831z"/><path d="m458.373 512c10.099 0 18.315-8.216 18.315-18.314v-24.625c0-1.127-.109-2.234-.309-3.314h11.663c10.098 0 18.314-8.216 18.314-18.314v-24.623c0-10.098-8.216-18.314-18.314-18.314h-35.487c.198-1.077.316-2.181.316-3.314v-24.624c0-1.133-.118-2.237-.316-3.313h39.722c10.099 0 18.315-8.216 18.315-18.314v-24.624c0-10.098-8.216-18.314-18.315-18.314h-42.934c.2-1.078.306-2.186.306-3.314v-24.624c0-1.133-.118-2.238-.316-3.314h13.453c10.098 0 18.314-8.216 18.314-18.313v-24.624c0-10.099-8.216-18.314-18.314-18.314h-173.513l-35.161-83.539c.571-.299 1.128-.621 1.672-.963 17.929 2.688 36.058 7.153 53.904 13.3.809.279 1.633.411 2.442.411 3.112 0 6.02-1.952 7.091-5.06 1.35-3.916-.732-8.185-4.648-9.533-16.004-5.512-32.237-9.727-48.384-12.603 1.237-3.859 1.509-7.957.774-12.002 25.8-7.476 47.082-17.726 64.871-31.246 3.298-2.506 3.939-7.211 1.433-10.509-2.506-3.297-7.21-3.94-10.509-1.433-16.992 12.915-37.66 22.627-63.073 29.658-3.354-3.202-7.558-5.444-12.112-6.418l14.349-63.134c1.599-7.032-1.272-14.127-7.314-18.075-6.025-3.938-13.655-3.721-19.438.554-3.669 2.713-6.519 4.49-12.471 4.49-6.465 0-9.234-2.069-13.426-5.201-4.88-3.649-10.954-8.187-22.404-8.187-11.449 0-17.522 4.538-22.402 8.185-4.191 3.132-6.96 5.201-13.423 5.201-5.95 0-8.799-1.777-12.467-4.488-5.782-4.274-13.413-4.493-19.437-.554-6.042 3.948-8.912 11.043-7.314 18.075l14.348 63.13c-8.94 1.911-16.542 8.7-18.985 18.078-1.691 6.493-.74 13.248 2.679 19.021 2.377 4.014 5.749 7.197 9.766 9.3l-22.284 52.947c-1.607 3.817.186 8.215 4.003 9.822.95.399 1.936.589 2.906.589 2.928 0 5.71-1.725 6.916-4.593l22.972-54.582c17.499 3.744 35.193 5.646 52.726 5.646 17.532 0 35.225-1.901 52.724-5.645l35.78 85.013c-3.157 3.292-5.109 7.747-5.109 12.657v24.624c0 1.127.109 2.234.309 3.313h-13.447c-10.098 0-18.314 8.216-18.314 18.314v4.561c-15.232-10.354-33.213-15.957-51.944-15.957-17.98 0-35.416 5.161-50.424 14.924-3.472 2.259-4.456 6.905-2.197 10.377 2.258 3.472 6.905 4.455 10.376 2.197 12.568-8.177 27.176-12.498 42.245-12.498 19.307 0 37.666 7.094 51.944 19.984v1.036c0 9.114 6.698 16.671 15.425 18.064 5.534 9.664 8.892 20.4 9.89 31.503h-3.779c-10.098 0-18.314 8.216-18.314 18.313v24.624c0 4.967 1.994 9.472 5.216 12.774-14.682 18.187-36.794 28.87-60.382 28.87-42.78 0-77.583-34.804-77.583-77.584 0-15.967 4.811-31.301 13.911-44.343 2.371-3.397 1.539-8.072-1.858-10.442-3.396-2.369-8.071-1.538-10.442 1.858-10.867 15.573-16.61 33.875-16.61 52.927 0 51.051 41.533 92.584 92.583 92.584 29.791 0 57.611-14.273 75.028-38.33h33.928c-.198 1.078-.305 2.185-.305 3.314v24.624c0 1.133.118 2.238.316 3.314h-11.669c-10.098 0-18.314 8.216-18.314 18.314v24.625c0 1.133.118 2.237.316 3.314h-185.53c-21.564 0-41.561-10.725-53.491-28.69-11.93-17.964-14.058-40.555-5.692-60.431l77.037-183.039c1.607-3.817-.186-8.215-4.003-9.822-3.818-1.605-8.215.186-9.822 4.004l-77.038 183.039c-10.319 24.519-7.694 52.387 7.022 74.547 14.717 22.162 39.385 35.392 65.987 35.392zm-140.596-153.756c-.055-.009-.107-.023-.162-.03-1.627-.221-2.854-1.633-2.854-3.284v-24.624c0-1.827 1.486-3.314 3.314-3.314h174.202c1.827 0 3.315 1.486 3.315 3.314v24.624c0 1.827-1.487 3.314-3.315 3.314zm-190.431-337.344c.787-.515 1.565-.494 2.314.06 4.86 3.593 10.922 7.426 21.383 7.426 11.449 0 17.523-4.538 22.402-8.186 4.19-3.131 6.959-5.2 13.422-5.2 6.465 0 9.234 2.069 13.426 5.201 4.88 3.646 10.954 8.184 22.404 8.184 10.464 0 16.526-3.834 21.387-7.428.748-.554 1.527-.576 2.315-.06.553.361 1.157 1.035.893 2.194l-15.383 67.684c-8.599 1.897-17.226 3.258-25.866 4.064l10.941-45.487c.969-4.027-1.511-8.077-5.538-9.046-4.026-.966-8.077 1.51-9.046 5.538l-11.988 49.841c-2.358.04-4.717.04-7.075 0l-11.987-49.838c-.969-4.027-5.024-6.508-9.046-5.538-4.027.969-6.507 5.018-5.538 9.046l10.941 45.487c-8.642-.806-17.271-2.168-25.872-4.065l-15.382-67.681c-.263-1.161.341-1.835.893-2.196zm1.403 102.583c-2.517-.633-4.639-2.224-5.974-4.479-1.365-2.305-1.745-5.003-1.07-7.596 1.154-4.43 5.198-7.406 9.589-7.406.763 0 1.538.09 2.309.277 35.348 8.623 71.193 8.622 106.543.001 5.202-1.274 10.541 1.928 11.896 7.128.676 2.594.296 5.291-1.07 7.597-1.335 2.255-3.457 3.846-5.973 4.479-19.237 4.84-38.793 7.294-58.124 7.294-19.333-.001-38.889-2.455-58.126-7.295zm159.419 142.256c-.088-.021-.172-.049-.262-.067-1.528-.312-2.638-1.678-2.638-3.246v-24.624c0-1.827 1.487-3.314 3.314-3.314h174.202c1.827 0 3.314 1.487 3.314 3.314v24.624c0 1.827-1.486 3.313-3.314 3.313zm-31.036 46.253c-1.827 0-3.314-1.487-3.314-3.314v-24.624c0-1.827 1.487-3.314 3.314-3.314h174.202c1.827 0 3.314 1.487 3.314 3.314v24.624c0 1.642-1.22 3.052-2.837 3.281zm14.064 15h28.88c-.198 1.076-.316 2.181-.316 3.314v24.624c0 1.128.106 2.236.306 3.314h-20.878c-.816-10.841-3.525-21.409-7.992-31.252zm-14.157 49.566c0-1.827 1.487-3.313 3.314-3.313h174.202c1.827 0 3.315 1.486 3.315 3.313v24.624c0 1.827-1.487 3.314-3.315 3.314h-174.202c-1.827 0-3.314-1.487-3.314-3.314zm231.002 42.938c1.827 0 3.314 1.486 3.314 3.314v24.624c0 1.827-1.486 3.314-3.314 3.314h-68.451c-4.143 0-7.5 3.358-7.5 7.5 0 4.143 3.357 7.5 7.5 7.5h39.199c.088.021.172.049.261.067 1.528.312 2.638 1.678 2.638 3.246v24.625c0 1.827-1.487 3.314-3.315 3.314h-174.202c-1.827 0-3.314-1.486-3.314-3.314v-24.625c0-1.827 1.486-3.314 3.314-3.314h102.732c4.143 0 7.5-3.357 7.5-7.5 0-4.142-3.357-7.5-7.5-7.5h-73.065c-1.827 0-3.314-1.487-3.314-3.314v-24.623c0-1.592 1.129-2.96 2.685-3.255.082-.016.16-.04.242-.059z"/><path d="m354.326 150.406 18.559 10.149 10.149 18.56c1.842 3.368 5.371 5.461 9.21 5.462h.002c3.839-.001 7.368-2.092 9.213-5.462l10.149-18.56 18.558-10.148c3.369-1.842 5.463-5.371 5.463-9.211.001-3.84-2.092-7.371-5.462-9.215l-18.559-10.149-10.15-18.56c-1.843-3.369-5.372-5.461-9.212-5.461 0 0-.001 0-.002 0-3.84 0-7.369 2.094-9.21 5.462l-10.149 18.559-18.559 10.15c-3.369 1.843-5.462 5.374-5.461 9.214-.001 3.84 2.093 7.369 5.461 9.21zm26.916-16.049c1.762-.965 3.203-2.406 4.17-4.172l6.834-12.496 6.837 12.5c.965 1.762 2.406 3.203 4.168 4.168.002.001.003.002.004.002l12.496 6.835-12.5 6.836c-1.762.965-3.203 2.406-4.17 4.172l-6.835 12.497-6.836-12.501c-.965-1.762-2.406-3.203-4.172-4.17l-12.496-6.834z"/><path d="m407.449 68.898 18.559 10.149 10.149 18.558c1.843 3.37 5.372 5.463 9.213 5.463s7.37-2.093 9.212-5.462l10.149-18.559 18.56-10.149c3.368-1.842 5.461-5.371 5.462-9.21 0-3.84-2.092-7.37-5.462-9.215l-18.56-10.149-10.148-18.558c-1.843-3.37-5.372-5.463-9.213-5.463s-7.37 2.093-9.212 5.462l-10.15 18.559-18.56 10.15c-3.369 1.843-5.462 5.374-5.461 9.214 0 3.84 2.094 7.37 5.462 9.21zm26.91-16.045c1.765-.964 3.208-2.406 4.176-4.175l6.835-12.496 6.836 12.5c.965 1.762 2.406 3.203 4.168 4.168.002.001.003.002.004.002l12.497 6.835-12.501 6.836c-1.762.965-3.203 2.406-4.17 4.172l-6.834 12.495-6.837-12.5c-.966-1.765-2.409-3.207-4.172-4.17l-12.496-6.834z"/></g></svg>