<svg id="Capa_1" enable-background="new 0 0 512 512" height="512" viewBox="0 0 512 512" width="512" xmlns="http://www.w3.org/2000/svg"><g><path d="m442.514 376.896v-35.211c0-4.143-3.358-7.5-7.5-7.5s-7.5 3.357-7.5 7.5v25.023c-2.935-1.279-6.019-2.29-9.232-2.978l-86.656-19.178-17.952-18.329c-.007-.207-.019-.415-.019-.622v-15.435c15.881-9.923 29.039-23.81 38.074-40.272h58.286c9.649 0 17.5 7.85 17.5 17.5v21.604c0 4.143 3.358 7.5 7.5 7.5s7.5-3.357 7.5-7.5v-21.604c0-17.921-14.58-32.5-32.5-32.5h-51.475c2.192-6.001 3.866-12.248 4.979-18.685h4.086c11.681 0 22.617-4.595 30.794-12.938 8.175-8.341 12.549-19.372 12.314-31.062-.291-14.551-8.051-27.794-20.305-35.473.631-1.018 1.203-2.088 1.698-3.215 2.846-6.481 2.908-13.65.176-20.182-2.727-6.519-7.86-11.496-14.454-14.015-1.204-.46-2.41-.89-3.614-1.337v-35.487c0-45.49-37.009-82.5-82.5-82.5h-.992c-.023-.001-.047 0-.07 0h-70.366c-45.491 0-82.5 37.01-82.5 82.5v35.49c-1.205.446-2.41.877-3.614 1.337-6.594 2.519-11.727 7.495-14.454 14.015-2.732 6.532-2.67 13.7.176 20.182.496 1.129 1.065 2.202 1.697 3.222-12.173 7.651-20.013 20.904-20.304 35.466-.234 11.689 4.139 22.721 12.314 31.062 8.177 8.343 19.113 12.938 30.794 12.938h4.086c1.113 6.437 2.788 12.684 4.979 18.685h-51.474c-17.92 0-32.5 14.579-32.5 32.5v89.51c-9.144 9.053-14.736 21.573-14.736 35.063v23.8c0 4.143 3.358 7.5 7.5 7.5s7.5-3.357 7.5-7.5v-23.8c0-16.093 11.421-30.216 27.21-33.594l18.881-4.179v122.803h-43.131c-1.632 0-2.961-1.328-2.961-2.961v-25.583c0-4.143-3.358-7.5-7.5-7.5s-7.5 3.357-7.5 7.5v25.583c0 9.903 8.057 17.961 17.961 17.961h366.58c9.903 0 17.961-8.058 17.961-17.961v-82.069c0-13.495-5.597-26.019-14.737-35.074zm-262.302-16.947 24.008 45.774c3.42 6.521 9.555 10.912 16.832 12.046 1.214.189 2.424.283 3.625.283 5.993 0 11.706-2.326 16.075-6.635l7.749-7.643v93.226h-83.47v-133.691zm25.079-19.418 40.351 44.994-15.424 15.213c-1.825 1.801-4.324 2.604-6.857 2.211-2.533-.395-4.668-1.923-5.858-4.192l-24.142-46.03zm58.209 63.243 7.749 7.643c4.369 4.309 10.082 6.635 16.075 6.635 1.2 0 2.411-.094 3.625-.283 7.276-1.134 13.411-5.525 16.832-12.045l24.012-45.771 15.177 3.359v133.688h-83.47zm98.47-37.143 19.19 4.247v126.122h-19.19zm-67.473 32.125c-1.191 2.27-3.326 3.798-5.858 4.192-2.533.394-5.032-.411-6.857-2.211l-15.424-15.213 40.342-44.984 11.941 12.192zm4.2-71.759-42.697 47.612-42.718-47.634c.019-.458.047-.917.047-1.374v-7.611c13.114 5.593 27.537 8.692 42.67 8.692 15.127 0 29.544-3.096 42.654-8.685v7.604c.001.464.025.93.044 1.396zm88.99-114.224c-5.332 5.44-12.464 8.437-20.082 8.437h-2.553c.04-1.211.068-2.426.068-3.646v-48.944c0-.025-.002-.05-.002-.075 1.189.167 2.379.276 3.561.276 3.171 0 6.284-.599 9.192-1.717.017.007.032.016.049.023 10.589 4.315 17.575 14.278 17.797 25.384.152 7.627-2.699 14.822-8.03 20.262zm-28.473-130.273v30.292c-18.996-6.129-38.044-10.58-57.116-13.313 2.051-31.898 1.221-59.531-2.539-84.008 33.535 3.901 59.655 32.464 59.655 67.029zm-134.418 15.194c-1.954-31.691-1.029-58.865 2.818-82.694h56.682c3.931 23.85 4.879 51.022 2.887 82.691-20.789-2.014-41.597-2.013-62.387.003zm-72.01-15.194c0-34.537 26.078-63.081 59.574-67.019-3.682 24.45-4.492 52.081-2.478 84.001-19.065 2.734-38.106 7.183-57.095 13.31v-30.292zm9.235 81.177c15.891-5.501 31.911-9.676 47.755-12.402 4.082-.702 6.822-4.581 6.12-8.663-.703-4.082-4.582-6.829-8.663-6.12-19.973 3.436-40.192 9.026-60.094 16.617-5.306 2.024-11.239-.444-13.511-5.616-1.179-2.687-1.205-5.656-.072-8.364 1.127-2.694 3.246-4.751 5.966-5.789 77.289-29.514 155.666-29.514 232.955 0 2.72 1.038 4.839 3.095 5.966 5.789 1.133 2.708 1.108 5.678-.072 8.363-2.271 5.175-8.207 7.644-13.51 5.617-36.241-13.822-72.868-20.831-108.862-20.831-5.046 0-10.165.139-15.216.413-4.136.225-7.307 3.76-7.082 7.896.224 4.137 3.776 7.299 7.895 7.083 4.781-.26 9.627-.392 14.403-.392 31.016 0 62.583 5.524 93.976 16.395l.143 53.889c0 51.898-42.222 94.119-94.119 94.119s-94.119-42.222-94.119-94.119zm-17.626 57.532c-7.617 0-14.749-2.996-20.081-8.437-5.331-5.439-8.183-12.635-8.03-20.262.223-11.153 7.332-21.139 17.868-25.397 3.986 1.529 8.359 2.066 12.731 1.45 0 .019-.001.038-.001.056v48.942c0 1.221.027 2.435.068 3.646h-2.555zm-50.626 142.51c-3.233.692-6.333 1.709-9.283 2.996v-79.321c0-9.65 7.851-17.5 17.5-17.5h58.286c9.032 16.456 22.184 30.339 38.057 40.261v15.446c0 .206-.014.411-.021.617l-17.93 18.331zm37.071 7.158 19.191-4.248v130.371h-19.191zm311.411 123.162c0 1.633-1.328 2.961-2.961 2.961h-43.13v-122.802l18.932 4.189c15.737 3.367 27.159 17.49 27.159 33.583z"/><path d="m233.066 269.903c7.314 3.001 14.829 4.501 22.494 4.501 7.594 0 15.335-1.474 23.168-4.42 3.877-1.458 5.838-5.783 4.38-9.66s-5.784-5.838-9.66-4.379c-12.247 4.604-23.593 4.632-34.688.081-3.833-1.576-8.213.261-9.786 4.092-1.572 3.831.26 8.213 4.092 9.785z"/><path d="m206.184 192.615v11.672c0 4.143 3.358 7.5 7.5 7.5s7.5-3.357 7.5-7.5v-11.672c0-4.143-3.358-7.5-7.5-7.5s-7.5 3.357-7.5 7.5z"/><path d="m298.316 211.786c4.142 0 7.5-3.357 7.5-7.5v-11.672c0-4.143-3.358-7.5-7.5-7.5s-7.5 3.357-7.5 7.5v11.672c0 4.143 3.358 7.5 7.5 7.5z"/><path d="m327.532 452.114h-35.623c-4.142 0-7.5 3.357-7.5 7.5s3.358 7.5 7.5 7.5h35.623c4.142 0 7.5-3.357 7.5-7.5s-3.358-7.5-7.5-7.5z"/></g></svg>