<svg id="Capa_1" enable-background="new 0 0 512 512" height="512" viewBox="0 0 512 512" width="512" xmlns="http://www.w3.org/2000/svg"><g><path d="m449.751 434.603c4.142 0 7.5-3.357 7.5-7.5v-15.133c0-23.121-16.411-43.414-38.969-48.24l-86.657-19.179-17.951-18.328c-.007-.208-.02-.416-.02-.623v-15.435c.284-.177.569-.352.851-.531 11.217 8.489 24.978 13.138 39.115 13.138 35.747 0 64.828-29.082 64.828-64.828 0-15.214-5.209-29.625-14.777-41.205 4.753-7.212 7.22-15.68 7.043-24.528-.291-14.526-8.139-27.808-20.308-35.468.632-1.019 1.205-2.091 1.701-3.22 2.846-6.481 2.908-13.65.176-20.182-2.727-6.519-7.86-11.496-14.454-14.015-1.204-.46-2.41-.89-3.614-1.337v-35.489c0-45.49-37.009-82.5-82.5-82.5h-.992c-.023-.001-.047 0-.07 0h-70.366c-45.491 0-82.5 37.01-82.5 82.5v35.49c-1.205.446-2.41.877-3.614 1.337-6.594 2.519-11.727 7.495-14.454 14.015-2.732 6.532-2.67 13.7.176 20.182.495 1.127 1.064 2.199 1.694 3.217-12.182 7.638-20.009 20.856-20.301 35.471-.234 11.689 4.139 22.721 12.314 31.062 3.538 3.61 7.595 6.515 12.003 8.653v35.474c0 12.406 10.093 22.5 22.5 22.5h26.274c6.957 7.841 15.023 14.676 23.951 20.257v15.446c0 .205-.014.411-.021.617l-17.93 18.33-40.43 8.949c-4.044.896-6.597 4.899-5.702 8.944.774 3.498 3.875 5.881 7.316 5.881.537 0 1.082-.059 1.628-.179l37.02-8.194 24.008 45.775c3.42 6.521 9.555 10.912 16.832 12.046 1.214.189 2.424.283 3.625.283 5.993 0 11.706-2.326 16.075-6.635l7.749-7.643v93.222h-107.982v-33.42c0-4.143-3.358-7.5-7.5-7.5s-7.5 3.357-7.5 7.5v33.42h-52.808c-1.632 0-2.961-1.328-2.961-2.961v-82.069c0-16.093 11.421-30.216 27.21-33.595l13.546-2.999c4.044-.895 6.597-4.899 5.702-8.943s-4.897-6.6-8.944-5.701l-13.495 2.987c-22.609 4.837-39.02 25.13-39.02 48.251v82.069c0 9.903 8.057 17.961 17.961 17.961h366.58c9.903 0 17.96-8.058 17.96-17.961v-34.25c0-4.143-3.358-7.5-7.5-7.5s-7.5 3.357-7.5 7.5v34.25c0 1.633-1.328 2.961-2.96 2.961h-52.808v-33.42c0-4.143-3.358-7.5-7.5-7.5s-7.5 3.357-7.5 7.5v33.42h-107.981v-93.226l7.749 7.643c4.369 4.309 10.082 6.635 16.075 6.635 1.2 0 2.411-.094 3.625-.283 7.276-1.134 13.411-5.525 16.832-12.045l24.013-45.771 83.299 18.435c15.737 3.367 27.159 17.49 27.159 33.583v15.133c-.001 4.141 3.357 7.499 7.499 7.499zm-96.132-126.831c-9.38 0-18.543-2.663-26.419-7.586 18.734-16.167 31.928-38.582 36.319-63.976h4.086c9.379 0 18.275-2.969 25.651-8.456 6.604 8.636 10.191 19.135 10.191 30.19 0 27.475-22.353 49.828-49.828 49.828zm34.068-94.999c-5.332 5.44-12.464 8.437-20.081 8.437h-2.553c.04-1.211.068-2.426.068-3.646v-48.944c0-.025-.001-.05-.001-.075 1.189.168 2.378.276 3.56.276 3.16 0 6.264-.594 9.164-1.706 10.528 4.258 17.651 14.269 17.874 25.395.151 7.628-2.7 14.823-8.031 20.263zm-28.473-130.273v30.292c-18.995-6.129-38.042-10.579-57.113-13.313 2.052-31.897 1.216-59.534-2.543-84.009 33.536 3.902 59.656 32.465 59.656 67.03zm-134.424 15.195c-1.955-31.691-1.022-58.868 2.825-82.694h56.682c3.931 23.848 4.884 51.023 2.892 82.692-20.794-2.016-41.606-2.015-62.399.002zm-72.004-15.195c0-34.537 26.078-63.081 59.575-67.019-3.681 24.448-4.499 52.083-2.484 84.002-19.064 2.734-38.103 7.183-57.09 13.309v-30.292zm-36.502 110.011c.224-11.19 7.309-21.145 17.852-25.403 3.991 1.533 8.369 2.073 12.747 1.456 0 .019-.001.038-.001.056v48.942c0 1.221.027 2.435.068 3.646h-2.553c-7.617 0-14.749-2.996-20.082-8.437-5.332-5.438-8.184-12.633-8.031-20.26zm31.821 82.388c-4.136 0-7.5-3.364-7.5-7.5v-31.362c1.254.108 2.517.173 3.791.173h4.086c2.418 13.982 7.505 27.059 14.717 38.689zm13.917-111.225c31.394-10.871 62.961-16.396 93.978-16.396 7.517 0 15.159.327 22.715.972 4.137.359 7.758-2.708 8.11-6.835.353-4.127-2.707-7.759-6.835-8.11-7.979-.681-16.05-1.026-23.991-1.026-35.994 0-72.621 7.009-108.861 20.831-5.306 2.024-11.239-.444-13.511-5.616-1.179-2.687-1.205-5.656-.072-8.364 1.127-2.694 3.246-4.751 5.966-5.789 77.289-29.514 155.666-29.514 232.955 0 2.72 1.038 4.839 3.095 5.966 5.789 1.133 2.708 1.108 5.678-.072 8.363-2.271 5.175-8.206 7.644-13.51 5.617-16.999-6.482-34.271-11.521-51.335-14.977-4.057-.822-8.017 1.804-8.839 5.862-.822 4.06 1.803 8.018 5.863 8.839 13.087 2.65 26.312 6.298 39.439 10.843l.129 53.886c0 51.898-42.222 94.119-94.119 94.119-22.852 0-43.825-8.189-60.146-21.783h9.741c4.142 0 7.5-3.357 7.5-7.5 0-4.142-3.358-7.5-7.5-7.5h-24.18c-12.242-15.887-19.535-35.774-19.535-57.336zm93.978 163.008c15.127 0 29.544-3.096 42.654-8.685v7.604c0 .464.025.93.044 1.395l-42.698 47.613-42.716-47.633c.019-.459.046-.918.046-1.375v-7.611c13.114 5.593 27.536 8.692 42.67 8.692zm-25.782 74.056c-1.825 1.801-4.323 2.604-6.857 2.211-2.533-.395-4.668-1.923-5.858-4.192l-24.142-46.03 11.93-12.195 40.351 44.994zm64.279-1.982c-1.191 2.27-3.326 3.798-5.858 4.192s-5.031-.411-6.857-2.211l-15.424-15.213 40.342-44.984 11.941 12.192z"/><path d="m233.066 269.903c7.314 3.001 14.829 4.501 22.494 4.501 7.594 0 15.335-1.474 23.168-4.42 3.877-1.458 5.838-5.783 4.38-9.66s-5.785-5.838-9.66-4.379c-12.247 4.604-23.593 4.632-34.688.081-3.833-1.576-8.213.261-9.786 4.092-1.572 3.831.26 8.213 4.092 9.785z"/><path d="m221.184 204.286v-11.672c0-4.143-3.358-7.5-7.5-7.5s-7.5 3.357-7.5 7.5v11.672c0 4.143 3.358 7.5 7.5 7.5s7.5-3.357 7.5-7.5z"/><path d="m298.316 211.786c4.142 0 7.5-3.357 7.5-7.5v-11.672c0-4.143-3.358-7.5-7.5-7.5s-7.5 3.357-7.5 7.5v11.672c0 4.143 3.358 7.5 7.5 7.5z"/><path d="m310.007 452.114c-4.142 0-7.5 3.357-7.5 7.5s3.358 7.5 7.5 7.5h35.623c4.142 0 7.5-3.357 7.5-7.5s-3.358-7.5-7.5-7.5z"/></g></svg>