<svg id="Capa_1" enable-background="new 0 0 512 512" height="512" viewBox="0 0 512 512" width="512" xmlns="http://www.w3.org/2000/svg"><g><path d="m449.2 430.611c4.143 0 7.5-3.357 7.5-7.5v-10.878c0-23.066-16.371-43.31-38.876-48.125l-89.621-19.833c-5.125-1.097-9.392-4.311-11.986-8.589h53.62c15.674 0 28.426-12.752 28.426-28.426v-81.898c0-.48-.05-.948-.136-1.402 8.079-8.307 12.401-19.259 12.168-30.864-.221-11.048-4.776-21.111-12.029-28.634v-22.197c0-78.445-63.821-142.265-142.266-142.265-21.455 0-42.08 4.661-61.302 13.854-3.736 1.787-5.316 6.265-3.529 10.002 1.786 3.737 6.267 5.319 10.002 3.529 17.184-8.218 35.632-12.385 54.829-12.385 70.175 0 127.266 57.091 127.266 127.266v11.989c-5.154-2.121-10.792-3.295-16.68-3.295h-3.383c-3.812-21.968-14.389-42.48-30.247-58.338-14.005-14.014-31.526-23.931-50.673-28.682-3.326-.822-6.781-.083-9.483 2.032-2.713 2.123-4.27 5.315-4.27 8.759 0 19.451-15.824 35.276-35.275 35.276h-54.771c-8.931 0-17.145 5.175-20.931 13.186-4.182 8.852-7.103 18.168-8.76 27.767h-3.378c-5.888 0-11.525 1.174-16.68 3.295v-11.989c0-33.993 13.24-65.955 37.279-89.994 2.859-2.857 5.887-5.609 8.999-8.179 3.194-2.638 3.646-7.364 1.008-10.559-2.639-3.193-7.365-3.644-10.559-1.008-3.477 2.87-6.858 5.944-10.054 9.137-26.874 26.874-41.674 62.603-41.674 100.602v22.197c-7.253 7.523-11.808 17.586-12.029 28.634-.233 11.571 4.066 22.493 12.1 30.791-.04.315-.068.633-.068.959v82.414c0 15.674 12.752 28.426 28.426 28.426h53.601c-2.599 4.279-6.878 7.497-12.035 8.601l-89.503 19.811c-22.555 4.825-38.926 25.069-38.926 48.134v81.837c0 9.887 8.044 17.931 17.93 17.931h107.334c4.143 0 7.5-3.357 7.5-7.5s-3.357-7.5-7.5-7.5h-40.047v-33.42c0-4.143-3.357-7.5-7.5-7.5s-7.5 3.357-7.5 7.5v33.42h-52.287c-1.616 0-2.931-1.315-2.931-2.931v-81.837c0-16.037 11.382-30.111 27.116-33.477l24.508-5.425c9.568 33.083 39.996 56.37 75.096 56.37 19.212 0 37.399-7.002 51.48-19.332v86.632h-35.249c-4.143 0-7.5 3.357-7.5 7.5s3.357 7.5 7.5 7.5h225.52c9.887 0 17.931-8.044 17.931-17.931v-38.271c0-4.143-3.357-7.5-7.5-7.5s-7.5 3.357-7.5 7.5v38.271c0 1.616-1.314 2.931-2.931 2.931h-52.287v-33.42c0-4.143-3.357-7.5-7.5-7.5s-7.5 3.357-7.5 7.5v33.42h-107.983v-86.632c14.082 12.33 32.269 19.332 51.48 19.332 35.101 0 65.532-23.287 75.098-56.369l24.556 5.434c15.683 3.355 27.065 17.431 27.065 33.468v10.878c.001 4.143 3.359 7.5 7.501 7.5zm-193.2-47.611c-22.494 0-43.26-12.078-54.518-31.233 7.376-6.241 11.99-15.55 11.99-25.658v-7.557c13.072 5.57 27.446 8.657 42.528 8.657 15.076 0 29.445-3.083 42.512-8.65v7.55c0 10.12 4.624 19.437 12 25.675-11.265 19.144-32.027 31.216-54.512 31.216zm113.837-62.314h-56.325v-9.958c25.769-16.105 44.345-42.685 49.719-73.736h4.057c5.569 0 10.964-1.058 15.975-3.06v73.328c0 7.404-6.023 13.426-13.426 13.426zm25.462-127.288c.151 7.6-2.689 14.77-8.002 20.188-5.314 5.421-12.419 8.406-20.009 8.406h-2.525c.04-1.201.067-2.405.067-3.615v-48.804c0-1.203-.027-2.409-.067-3.614h1.823c15.529 0 28.409 12.309 28.713 27.439zm-224.184-63.798c1.318-2.79 4.21-4.593 7.368-4.593h54.771c26.021 0 47.489-19.873 50.025-45.238 14.696 4.459 28.124 12.508 39.067 23.458 17.464 17.463 27.482 41.658 27.482 66.347v48.804c0 51.738-42.092 93.831-93.83 93.831s-93.83-42.093-93.83-93.831v-48.804c.002-13.781 3.058-27.509 8.947-39.974zm-23.878 36.359c-.04 1.206-.067 2.412-.067 3.614v48.804c0 1.21.027 2.414.067 3.615h-2.525c-7.59 0-14.695-2.985-20.009-8.406-5.312-5.419-8.153-12.589-8.002-20.188.304-15.13 13.184-27.439 28.713-27.439zm-18.5 141.302v-73.328c5.01 2.002 10.405 3.06 15.975 3.06h4.057c5.373 31.044 23.943 57.619 49.703 73.726v9.968h-56.309c-7.403-.001-13.426-6.023-13.426-13.426zm68.283 107.439c-28.04 0-52.385-18.384-60.411-44.621l50.311-11.136c.408-.087.811-.186 1.212-.287 11.378 19.831 30.944 33.66 53.175 37.942-11.705 11.505-27.516 18.102-44.287 18.102zm117.96 0c-16.771 0-32.583-6.599-44.287-18.103 22.229-4.281 41.795-18.107 53.176-37.937.379.095.759.189 1.144.271l50.38 11.149c-8.024 26.237-32.371 44.62-60.413 44.62z"/><path d="m233.123 270.588c7.296 2.993 14.792 4.49 22.438 4.49 7.575 0 15.297-1.47 23.11-4.409 3.877-1.458 5.838-5.783 4.379-9.66-1.458-3.877-5.782-5.835-9.66-4.379-12.206 4.592-23.514 4.618-34.573.081-3.83-1.573-8.213.261-9.785 4.092-1.573 3.832.259 8.213 4.091 9.785z"/><path d="m213.804 212.639c4.143 0 7.5-3.357 7.5-7.5v-11.639c0-4.143-3.357-7.5-7.5-7.5s-7.5 3.357-7.5 7.5v11.639c0 4.142 3.357 7.5 7.5 7.5z"/><path d="m298.196 212.639c4.143 0 7.5-3.357 7.5-7.5v-11.639c0-4.143-3.357-7.5-7.5-7.5s-7.5 3.357-7.5 7.5v11.639c0 4.142 3.358 7.5 7.5 7.5z"/></g></svg>