<svg id="Capa_1" enable-background="new 0 0 512 512" height="512" viewBox="0 0 512 512" width="512" xmlns="http://www.w3.org/2000/svg"><g><path d="m152.224 414.6-31.361-4.648c-.082-.012-.152-.064-.189-.14l-13.95-28.469c-2.573-5.253-7.806-8.526-13.654-8.543-.016 0-.03 0-.045 0-5.831 0-11.063 3.24-13.658 8.464l-14.11 28.388c-.038.076-.109.128-.193.14l-31.386 4.47c-5.791.825-10.521 4.789-12.345 10.347-1.823 5.558-.36 11.553 3.816 15.647l22.638 22.194c.06.059.088.143.073.225l-5.449 31.232c-1.005 5.762 1.304 11.485 6.026 14.937 4.721 3.452 10.877 3.914 16.061 1.207l28.103-14.672c.074-.039.164-.039.238 0l28.019 14.833c2.262 1.197 4.713 1.789 7.151 1.789 3.135 0 6.25-.978 8.917-2.904 4.741-3.424 7.083-9.134 6.11-14.902l-5.27-31.261c-.014-.083.014-.168.074-.226l22.766-22.065c4.2-4.071 5.695-10.058 3.904-15.625-1.793-5.569-6.5-9.56-12.286-10.418zm-2.059 15.271-22.766 22.065c-3.605 3.494-5.26 8.537-4.426 13.489l5.271 31.262c.02.117.026.156-.102.248-.13.094-.164.074-.269.019l-28.018-14.833c-2.232-1.182-4.685-1.773-7.138-1.773-2.423 0-4.847.577-7.06 1.732l-28.104 14.673c-.107.056-.142.073-.267-.02-.128-.093-.121-.132-.101-.249l5.449-31.232c.862-4.946-.764-9.998-4.35-13.514l-22.639-22.194c-.084-.083-.112-.11-.063-.26.05-.15.089-.155.206-.172l31.386-4.47c4.97-.707 9.272-3.814 11.51-8.312l14.111-28.39c.053-.104.07-.14.226-.14.183.004.178.035.229.142l13.95 28.468c2.208 4.511 6.493 7.643 11.461 8.379l31.361 4.648c.116.017.156.023.204.173.052.152.024.18-.061.261z"/><path d="m486.79 440.643c4.2-4.07 5.696-10.058 3.905-15.625-1.792-5.568-6.499-9.56-12.285-10.418l-31.36-4.648c-.083-.012-.154-.064-.19-.139l-13.95-28.47c-2.573-5.252-7.806-8.525-13.654-8.542-.016 0-.029 0-.045 0-5.83 0-11.061 3.24-13.657 8.464l-14.112 28.39c-.037.074-.108.126-.192.137l-31.386 4.47c-5.791.825-10.521 4.789-12.344 10.346-1.823 5.558-.361 11.554 3.815 15.649l22.639 22.193c.06.059.087.143.072.225l-5.448 31.232c-1.005 5.762 1.305 11.486 6.026 14.937 4.723 3.451 10.877 3.913 16.06 1.207l28.103-14.672c.074-.039.164-.039.238 0l28.02 14.833c2.262 1.197 4.712 1.789 7.15 1.789 3.135 0 6.25-.978 8.917-2.904 4.741-3.424 7.083-9.134 6.11-14.902l-5.27-31.264c-.014-.082.014-.166.073-.223zm-33.206 11.294c-3.605 3.496-5.26 8.539-4.424 13.488l5.27 31.262c.02.117.026.156-.102.248-.129.093-.162.073-.268.019l-28.019-14.833c-2.233-1.182-4.685-1.773-7.138-1.773-2.423 0-4.847.577-7.06 1.732l-28.105 14.673c-.103.053-.137.074-.266-.021-.128-.093-.121-.132-.101-.249l5.448-31.232c.862-4.947-.763-9.999-4.349-13.514l-22.639-22.193c-.085-.083-.113-.11-.064-.261.049-.15.088-.155.205-.172l31.386-4.47c4.972-.708 9.275-3.815 11.51-8.312l14.112-28.39c.053-.104.07-.14.225-.14.154-.001.179.036.23.142l13.95 28.471c2.21 4.509 6.494 7.641 11.461 8.376l31.36 4.648c.117.018.156.023.205.174.048.15.02.177-.065.259z"/><path d="m177.794 173.63h1.004c4.204 21.231 16.975 39.405 34.545 50.785v9.612c0 5.073-3.601 9.525-8.561 10.587-.105.022-.208.047-.312.074l-15.21 3.941c-4.01 1.039-6.418 5.132-5.38 9.142.876 3.379 3.92 5.621 7.256 5.621.622 0 1.255-.078 1.886-.242l14.267-3.697.617.599c12.801 12.443 29.645 19.278 47.479 19.278.164 0 .329 0 .494-.001 18.017-.128 34.956-7.214 47.696-19.955l.17-.17c.052.012.102.03.154.041l53.63 13.894c.104.027.207.051.312.074 9.999 2.139 17.257 11.113 17.257 21.338v12.378c0 4.142 3.358 7.5 7.5 7.5 4.143 0 7.5-3.358 7.5-7.5v-12.379c0-17.197-12.166-32.297-28.953-35.971l-53.626-13.893c-.104-.027-.208-.051-.312-.074-4.96-1.061-8.561-5.513-8.561-10.586v-9.559c3.107-2.003 6.089-4.224 8.909-6.671 3.129-2.714 3.465-7.451.75-10.58-2.713-3.129-7.449-3.464-10.58-.751-11.569 10.036-26.387 15.564-41.725 15.564-35.129 0-63.709-28.58-63.709-63.709v-34.296c0-2.18.11-4.375.329-6.523.006-.061.005-.121.009-.182.015-.099.035-.196.046-.297.824-7.57 2.986-14.859 6.428-21.667.396-.783 1.258-1.288 2.195-1.288h41.869c16.597 0 31.652-10.443 37.465-25.986.296-.792.893-1.171 1.342-1.35.389-.156 1.177-.354 2.053.076 6.318 3.095 12.044 7.188 17.019 12.167 10.23 10.23 16.722 23.743 18.278 38.048.011.101.032.198.046.297.005.061.003.121.009.182.219 2.148.329 4.343.329 6.523v34.296c0 8.439-1.622 16.635-4.82 24.357-1.584 3.827.233 8.214 4.06 9.799.94.389 1.911.573 2.867.573 2.943 0 5.736-1.744 6.933-4.632 1.986-4.796 3.479-9.737 4.475-14.786h.984c8.794 0 17.027-3.459 23.183-9.74 6.154-6.279 9.446-14.582 9.27-23.381-.182-9.119-4.344-17.765-11.278-23.748v-30.412c0-34.463-28.037-62.5-62.5-62.5h-11.797c-1.267-13.361-12.554-23.85-26.245-23.85h-35.72c-34.463 0-62.5 28.038-62.5 62.5v54.261c-6.935 5.983-11.096 14.629-11.278 23.748-.177 8.799 3.115 17.103 9.27 23.381 6.154 6.281 14.388 9.74 23.182 9.74zm105.852 58.384v2.012c0 6.515 2.505 12.589 6.65 17.214-19.627 17.097-49.213 17.338-69.116.583 4.46-4.69 7.163-11.01 7.163-17.797v-2.028c8.61 3.243 17.927 5.03 27.657 5.03 9.52.001 18.877-1.726 27.646-5.014zm-118.323-78.623c-3.31-3.377-5.08-7.845-4.985-12.581.111-5.551 2.87-10.601 7.569-13.855.068-.047.128-.101.194-.149.048-.03.099-.052.147-.083 2.711-1.787 5.822-2.801 9.05-2.976 0 .092-.007.185-.007.277v34.296c0 .096.007.19.007.286-4.542-.126-8.78-1.956-11.975-5.215zm181.354 0c-3.195 3.259-7.432 5.089-11.975 5.215 0-.096.007-.191.007-.286v-34.296c0-.092-.007-.185-.007-.277 3.228.174 6.339 1.188 9.05 2.976.045.03.095.05.141.079.068.051.131.106.201.155 4.698 3.255 7.457 8.305 7.568 13.854.095 4.735-1.675 9.203-4.985 12.58zm-175.057-90.891c0-26.191 21.309-47.5 47.5-47.5h35.72c6.264 0 11.36 5.092 11.36 11.35 0 6.893 5.607 12.5 12.5 12.5h14.18c26.191 0 47.5 21.309 47.5 47.5v23.032c-2.181-.445-4.413-.672-6.67-.672h-.5c-3.012-15.18-10.525-29.311-21.555-40.341-6.146-6.151-13.222-11.209-21.03-15.033-4.434-2.172-9.608-2.369-14.198-.542-4.55 1.811-8.138 5.468-9.845 10.033-3.632 9.713-13.041 16.239-23.414 16.239h-41.869c-6.644 0-12.614 3.649-15.582 9.521-3.234 6.398-5.557 13.142-6.933 20.122h-.494c-2.257 0-4.489.227-6.67.672z"/><path d="m319.993 422.975c-.23-1.369.227-2.762 1.223-3.728l34.394-33.335c5.126-4.967 7.043-12.199 5.106-19.023h14.551c8.178 0 14.831-6.653 14.831-14.83v-12.446c0-4.142-3.357-7.5-7.5-7.5-4.142 0-7.5 3.358-7.5 7.5v12.276h-37.365v-23.436c0-4.142-3.357-7.5-7.5-7.5s-7.5 3.358-7.5 7.5v21.347l-25.058-3.714c-1.372-.204-2.556-1.069-3.166-2.315l-21.075-43.011c-3.241-6.616-9.832-10.739-17.2-10.76-.019 0-.037 0-.057 0-7.344 0-13.933 4.081-17.203 10.662l-21.32 42.889c-.618 1.243-1.807 2.102-3.181 2.297l-25.205 3.589v-20.983c0-4.142-3.357-7.5-7.5-7.5s-7.5 3.358-7.5 7.5v23.119l-2.293.327c-.065-.002-.128-.01-.193-.01h-34.879v-57.34c0-10.225 7.258-19.199 17.257-21.338.104-.022.208-.047.312-.074l6.838-1.772c4.009-1.039 6.417-5.132 5.378-9.142-1.038-4.009-5.124-6.418-9.142-5.379l-6.691 1.734c-16.787 3.673-28.953 18.773-28.953 35.971v57.51c0 8.177 6.653 14.83 14.831 14.83h14.408c-1.699 6.635.223 13.604 5.171 18.454l34.202 33.53c.991.971 1.44 2.367 1.201 3.734l-8.231 47.185c-1.266 7.258 1.643 14.467 7.591 18.815 5.947 4.348 13.699 4.932 20.23 1.521l42.46-22.168c1.229-.641 2.693-.638 3.922.011l42.331 22.41c2.849 1.508 5.935 2.253 9.007 2.253 3.949 0 7.873-1.232 11.232-3.659 5.973-4.313 8.922-11.506 7.697-18.771zm-8.517 53.84c-.638.462-2.35 1.415-4.439.309l-42.332-22.41c-2.812-1.488-5.9-2.233-8.989-2.233-3.053 0-6.105.728-8.892 2.183l-42.46 22.167c-2.094 1.095-3.801.131-4.438-.333-.636-.465-2.07-1.797-1.664-4.126l8.231-47.184c1.088-6.231-.96-12.595-5.477-17.024l-34.203-33.53c-1.689-1.655-1.3-3.575-1.054-4.323.245-.749 1.069-2.525 3.41-2.858l47.418-6.753c6.262-.892 11.681-4.805 14.498-10.47l21.32-42.891c1.047-2.106 2.979-2.338 3.774-2.338h.012c.787.002 2.731.237 3.771 2.36l21.075 43.011c2.783 5.68 8.18 9.625 14.438 10.553l47.38 7.023c2.339.347 3.152 2.128 3.393 2.877.241.75.619 2.671-1.079 4.317l-34.394 33.335c-4.542 4.402-6.625 10.754-5.574 16.991l7.962 47.231c.394 2.331-1.049 3.655-1.687 4.116z"/><path d="m264.885 175.886c-6.234 2.345-11.979 2.372-17.563.081-3.831-1.569-8.213.261-9.785 4.092-1.572 3.832.26 8.213 4.092 9.786 4.596 1.885 9.312 2.828 14.116 2.828 4.733 0 9.552-.915 14.422-2.747 3.877-1.458 5.838-5.783 4.379-9.66s-5.78-5.837-9.661-4.38z"/><path d="m220.682 129.99v10.202c0 4.142 3.357 7.5 7.5 7.5s7.5-3.358 7.5-7.5v-10.202c0-4.142-3.357-7.5-7.5-7.5s-7.5 3.358-7.5 7.5z"/><path d="m276.318 129.99v10.202c0 4.142 3.357 7.5 7.5 7.5 4.142 0 7.5-3.358 7.5-7.5v-10.202c0-4.142-3.358-7.5-7.5-7.5s-7.5 3.358-7.5 7.5z"/></g></svg>