<svg id="Capa_1" enable-background="new 0 0 512 512" height="512" viewBox="0 0 512 512" width="512" xmlns="http://www.w3.org/2000/svg"><g><path d="m472.73 71.463h-39.354v-38.963c0-17.921-14.58-32.5-32.5-32.5h-351.606c-17.92 0-32.5 14.579-32.5 32.5v10.496c0 4.143 3.358 7.5 7.5 7.5s7.5-3.357 7.5-7.5v-10.496c0-9.649 7.851-17.5 17.5-17.5h351.607c9.649 0 17.5 7.851 17.5 17.5v92.925c0 9.649-7.851 17.5-17.5 17.5h-351.607c-9.649 0-17.5-7.851-17.5-17.5v-49.742c0-4.143-3.358-7.5-7.5-7.5s-7.5 3.357-7.5 7.5v49.742c0 17.921 14.58 32.5 32.5 32.5h1.166v19.112h-1.166c-17.92 0-32.5 14.579-32.5 32.5v92.926c0 17.921 14.58 32.5 32.5 32.5h1.166v19.112h-1.166c-17.92 0-32.5 14.579-32.5 32.5v92.925c0 17.921 14.58 32.5 32.5 32.5h351.607c17.92 0 32.5-14.579 32.5-32.5v-38.963h39.354c12.407 0 22.5-10.094 22.5-22.5v-324.074c-.001-12.406-10.094-22.5-22.501-22.5zm-39.354 53.962v-38.962h39.354c4.136 0 7.5 3.364 7.5 7.5v154.537h-46.854v-38.963c0-17.921-14.58-32.5-32.5-32.5h-1.167v-19.112h1.167c17.921 0 32.5-14.579 32.5-32.5zm-367.94 32.5h319.274v19.112h-319.274zm352.94 321.575c0 9.649-7.851 17.5-17.5 17.5h-351.606c-9.649 0-17.5-7.851-17.5-17.5v-92.925c0-9.649 7.851-17.5 17.5-17.5h42.538c4.142 0 7.5-3.357 7.5-7.5s-3.358-7.5-7.5-7.5h-26.372v-19.112h219.654c4.142 0 7.5-3.357 7.5-7.5s-3.358-7.5-7.5-7.5h-235.82c-9.649 0-17.5-7.851-17.5-17.5v-92.926c0-9.649 7.851-17.5 17.5-17.5h351.607c9.649 0 17.5 7.851 17.5 17.5v92.926c0 9.649-7.851 17.5-17.5 17.5h-83.1c-4.142 0-7.5 3.357-7.5 7.5s3.358 7.5 7.5 7.5h66.934v19.112h-260.217c-4.142 0-7.5 3.357-7.5 7.5s3.358 7.5 7.5 7.5h276.382c9.649 0 17.5 7.851 17.5 17.5zm54.354-53.963h-39.354v-38.962c0-17.921-14.58-32.5-32.5-32.5h-1.167v-19.112h1.167c17.92 0 32.5-14.579 32.5-32.5v-38.963h46.854v154.537c0 4.136-3.364 7.5-7.5 7.5z"/><path d="m133.128 78.442c0-16.584-13.492-30.075-30.075-30.075s-30.074 13.491-30.074 30.075c0 16.583 13.492 30.074 30.075 30.074s30.074-13.491 30.074-30.074zm-45.149 0c0-8.312 6.763-15.075 15.075-15.075s15.075 6.763 15.075 15.075-6.763 15.074-15.075 15.074-15.075-6.762-15.075-15.074z"/><path d="m213.609 78.442c0-16.584-13.492-30.075-30.075-30.075s-30.074 13.491-30.074 30.075c0 16.583 13.492 30.074 30.075 30.074s30.074-13.491 30.074-30.074zm-45.149 0c0-8.312 6.763-15.075 15.075-15.075s15.075 6.763 15.075 15.075-6.763 15.074-15.075 15.074c-8.313.001-15.075-6.762-15.075-15.074z"/><path d="m103.054 225.926c-16.583 0-30.075 13.491-30.075 30.074s13.492 30.074 30.075 30.074 30.075-13.491 30.075-30.074-13.492-30.074-30.075-30.074zm0 45.148c-8.312 0-15.075-6.763-15.075-15.074s6.763-15.074 15.075-15.074 15.075 6.763 15.075 15.074-6.763 15.074-15.075 15.074z"/><path d="m183.534 225.926c-16.583 0-30.075 13.491-30.075 30.074s13.492 30.074 30.075 30.074 30.075-13.491 30.075-30.074-13.492-30.074-30.075-30.074zm0 45.148c-8.312 0-15.075-6.763-15.075-15.074s6.763-15.074 15.075-15.074 15.075 6.763 15.075 15.074-6.763 15.074-15.075 15.074z"/><path d="m103.054 402.963c-16.583 0-30.075 13.491-30.075 30.074 0 16.584 13.492 30.075 30.075 30.075s30.075-13.491 30.075-30.075c-.001-16.583-13.492-30.074-30.075-30.074zm0 45.149c-8.312 0-15.075-6.763-15.075-15.075s6.763-15.074 15.075-15.074 15.075 6.763 15.075 15.074c-.001 8.313-6.763 15.075-15.075 15.075z"/><path d="m183.534 402.963c-16.583 0-30.075 13.491-30.075 30.074 0 16.584 13.492 30.075 30.075 30.075s30.075-13.491 30.075-30.075c0-16.583-13.492-30.074-30.075-30.074zm0 45.149c-8.312 0-15.075-6.763-15.075-15.075s6.763-15.074 15.075-15.074 15.075 6.763 15.075 15.074c0 8.313-6.763 15.075-15.075 15.075z"/><path d="m375.563 114.654c9.649 0 17.5-7.851 17.5-17.5v-36.383c0-9.649-7.851-17.5-17.5-17.5h-113.246c-9.649 0-17.5 7.851-17.5 17.5v36.383c0 9.649 7.851 17.5 17.5 17.5zm-115.746-17.5v-36.383c0-1.379 1.122-2.5 2.5-2.5h113.246c1.378 0 2.5 1.121 2.5 2.5v36.383c0 1.379-1.122 2.5-2.5 2.5h-113.246c-1.378 0-2.5-1.121-2.5-2.5z"/><path d="m276.659 85.942h42.281c4.142 0 7.5-3.357 7.5-7.5s-3.358-7.5-7.5-7.5h-42.281c-4.142 0-7.5 3.357-7.5 7.5s3.358 7.5 7.5 7.5z"/><path d="m393.063 274.191v-36.383c0-9.649-7.851-17.5-17.5-17.5h-113.246c-9.649 0-17.5 7.851-17.5 17.5v36.383c0 9.649 7.851 17.5 17.5 17.5h113.246c9.649 0 17.5-7.85 17.5-17.5zm-133.246 0v-36.383c0-1.379 1.122-2.5 2.5-2.5h113.246c1.378 0 2.5 1.121 2.5 2.5v36.383c0 1.379-1.122 2.5-2.5 2.5h-113.246c-1.378 0-2.5-1.121-2.5-2.5z"/><path d="m318.94 247.98h-42.281c-4.142 0-7.5 3.357-7.5 7.5s3.358 7.5 7.5 7.5h42.281c4.142 0 7.5-3.357 7.5-7.5s-3.358-7.5-7.5-7.5z"/><path d="m375.563 397.346h-113.246c-9.649 0-17.5 7.851-17.5 17.5v36.383c0 9.649 7.851 17.5 17.5 17.5h113.246c9.649 0 17.5-7.851 17.5-17.5v-36.383c0-9.65-7.851-17.5-17.5-17.5zm2.5 53.882c0 1.379-1.122 2.5-2.5 2.5h-113.246c-1.378 0-2.5-1.121-2.5-2.5v-36.383c0-1.379 1.122-2.5 2.5-2.5h113.246c1.378 0 2.5 1.121 2.5 2.5z"/><path d="m318.94 425.018h-42.281c-4.142 0-7.5 3.357-7.5 7.5s3.358 7.5 7.5 7.5h42.281c4.142 0 7.5-3.357 7.5-7.5s-3.358-7.5-7.5-7.5z"/></g></svg>