<svg id="Capa_1" enable-background="new 0 0 512 512" height="512" viewBox="0 0 512 512" width="512" xmlns="http://www.w3.org/2000/svg"><g><path d="m496.069 256.382-28.572-10.427c-1.589-.58-2.776-1.907-3.179-3.55l-19.456-79.627c-3.215-13.157-14.92-22.347-28.465-22.347h-65.823v-47.235c0-17.92-14.579-32.5-32.5-32.5h-190.504c-4.143 0-7.5 3.358-7.5 7.5s3.357 7.5 7.5 7.5h190.504c9.649 0 17.5 7.851 17.5 17.5v270.689h-55.007c-9.936-16.056-27.498-26.754-47.48-26.754-20.015 0-37.604 10.735-47.531 26.837-.345-.049-.694-.082-1.052-.082h-32.551c-9.937-16.054-27.498-26.75-47.477-26.75s-37.54 10.696-47.476 26.75h-34.5c-4.136 0-7.5-3.365-7.5-7.5v-263.19c0-9.649 7.851-17.5 17.5-17.5h62.384c4.143 0 7.5-3.358 7.5-7.5s-3.357-7.5-7.5-7.5h-62.384c-17.921 0-32.5 14.58-32.5 32.5v263.189c0 10.656 7.448 19.599 17.41 21.912v11.366c0 12.407 10.094 22.5 22.5 22.5h11.336c7.409 22.709 28.463 39.14 53.229 39.14s45.82-16.43 53.229-39.138l22.155.001c7.411 22.705 28.463 39.132 53.227 39.132 24.765 0 45.818-16.429 53.229-39.135h13.316c4.143 0 7.5-3.358 7.5-7.5s-3.357-7.5-7.5-7.5h-10.534c.049-.977.074-1.96.074-2.949 0-5.311-.732-10.448-2.071-15.329h55.973 11.122c-1.34 4.883-2.072 10.022-2.072 15.334 0 .987.025 1.969.074 2.944h-19.88c-4.143 0-7.5 3.358-7.5 7.5s3.357 7.5 7.5 7.5h22.66c7.409 22.709 28.463 39.14 53.23 39.14 24.766 0 45.82-16.431 53.229-39.14h10.652c12.406 0 22.5-10.093 22.5-22.5v-11.764c10.05-2.957 17.41-12.26 17.41-23.254v-75.491c.002-10.144-6.4-19.295-15.929-22.772zm-456.159 140.782c-4.136 0-7.5-3.364-7.5-7.5v-10.778h18.053c-1.34 4.883-2.072 10.022-2.072 15.334 0 .987.025 1.969.074 2.944zm64.566 39.14c-22.653 0-41.084-18.879-41.084-42.084s18.431-42.084 41.084-42.084c22.654 0 41.085 18.879 41.085 42.084s-18.431 42.084-41.085 42.084zm56.01-39.138c.049-.976.074-1.958.074-2.947 0-5.312-.732-10.451-2.072-15.334h20.585c-1.339 4.881-2.071 10.018-2.071 15.329 0 .99.025 1.974.074 2.952zm72.601 39.133c-22.653 0-41.084-18.879-41.084-42.084s18.431-42.084 41.084-42.084c22.654 0 41.085 18.879 41.085 42.084s-18.431 42.084-41.085 42.084zm263.913-111.277h-16.092c-1.379 0-2.5-1.122-2.5-2.5v-13.592c0-1.378 1.121-2.5 2.5-2.5h16.092zm-63.287-144.673 15.343 62.789h-64.445c-2.784 0-5.049-2.265-5.049-5.049v-52.682c0-2.789 2.265-5.058 5.049-5.058zm-25.504 255.955c-22.654 0-41.085-18.879-41.085-42.084s18.431-42.084 41.085-42.084c22.653 0 41.084 18.879 41.084 42.084s-18.431 42.084-41.084 42.084zm63.881-39.14h-7.871c.049-.975.074-1.957.074-2.944 0-5.312-.732-10.451-2.072-15.334h17.369v10.778c0 4.135-3.364 7.5-7.5 7.5zm15.669-33.278h-32.074c-9.937-16.054-27.497-26.75-47.476-26.75-19.98 0-37.541 10.696-47.477 26.75h-10.158v-208.454h65.823c6.265 0 11.717 4.031 13.606 9.917h-45.391c-11.055 0-20.049 8.998-20.049 20.058v52.682c0 11.055 8.994 20.049 20.049 20.049h73.882c1.203.762 2.491 1.409 3.86 1.908l28.572 10.427c3.633 1.326 6.073 4.814 6.073 8.681v12.276h-16.092c-9.649 0-17.5 7.851-17.5 17.5v13.592c0 9.649 7.851 17.5 17.5 17.5h16.093v14.622c0 5.096-4.146 9.242-9.241 9.242z"/><path d="m297.772 284.22v-128.858c0-13.785-11.215-25-25-25s-25 11.215-25 25v128.858c0 13.785 11.215 24.999 25 24.999 13.786.001 25-11.214 25-24.999zm-35 0v-128.858c0-5.514 4.486-10 10-10s10 4.486 10 10v128.858c0 5.514-4.486 9.999-10 9.999-5.513.001-10-4.485-10-9.999z"/><path d="m157.787 206.178c-4.143 0-7.5 3.358-7.5 7.5v70.542c0 13.785 11.215 24.999 25 24.999s25-11.215 25-24.999v-128.858c0-13.785-11.215-25-25-25s-25 11.215-25 25v25.63c0 4.142 3.357 7.5 7.5 7.5s7.5-3.358 7.5-7.5v-25.63c0-5.514 4.486-10 10-10s10 4.486 10 10v128.858c0 5.514-4.486 9.999-10 9.999s-10-4.486-10-9.999v-70.542c0-4.142-3.357-7.5-7.5-7.5z"/><path d="m77.802 130.362c-13.785 0-25 11.215-25 25v128.858c0 13.785 11.215 24.999 25 24.999s25-11.215 25-24.999v-128.858c0-13.785-11.215-25-25-25zm10 153.858c0 5.514-4.486 9.999-10 9.999s-10-4.486-10-9.999v-128.858c0-5.514 4.486-10 10-10s10 4.486 10 10z"/><path d="m233.087 368.397c-14.032 0-25.448 11.582-25.448 25.817 0 14.236 11.416 25.818 25.448 25.818 14.033 0 25.449-11.582 25.449-25.818 0-14.235-11.416-25.817-25.449-25.817zm0 36.636c-5.761 0-10.448-4.853-10.448-10.818s4.688-10.817 10.448-10.817c5.762 0 10.449 4.853 10.449 10.817 0 5.965-4.687 10.818-10.449 10.818z"/><path d="m408.209 368.402c-14.033 0-25.449 11.582-25.449 25.818s11.416 25.818 25.449 25.818c14.032 0 25.448-11.582 25.448-25.818s-11.416-25.818-25.448-25.818zm0 36.636c-5.762 0-10.449-4.853-10.449-10.818s4.688-10.818 10.449-10.818 10.448 4.853 10.448 10.818-4.687 10.818-10.448 10.818z"/><path d="m104.476 368.402c-14.032 0-25.448 11.582-25.448 25.818s11.416 25.818 25.448 25.818c14.033 0 25.449-11.582 25.449-25.818s-11.416-25.818-25.449-25.818zm0 36.636c-5.761 0-10.448-4.853-10.448-10.818s4.688-10.818 10.448-10.818c5.762 0 10.449 4.853 10.449 10.818s-4.688 10.818-10.449 10.818z"/></g></svg>