<svg id="Capa_1" enable-background="new 0 0 512 512" height="512" viewBox="0 0 512 512" width="512" xmlns="http://www.w3.org/2000/svg"><g><path d="m219.331 78.915h11.441v50.65c0 6.907 5.619 12.526 12.526 12.526h25.402c6.907 0 12.526-5.619 12.526-12.526v-50.65h11.441c4.782 0 9.078-2.659 11.211-6.938 2.134-4.28 1.67-9.311-1.209-13.129l-36.67-48.634c-2.387-3.168-6.032-4.984-9.999-4.984s-7.612 1.816-10.002 4.985l-36.669 48.632c-2.879 3.818-3.343 8.85-1.209 13.129 2.133 4.28 6.429 6.939 11.211 6.939zm36.669-57.051 31.706 42.051h-8.952c-6.907 0-12.526 5.619-12.526 12.526v50.65h-20.455v-50.65c0-6.907-5.619-12.526-12.526-12.526h-8.952z"/><path d="m292.669 433.085h-11.441v-50.65c0-6.907-5.619-12.526-12.526-12.526h-25.402c-6.907 0-12.526 5.619-12.526 12.526v50.65h-11.441c-4.782 0-9.078 2.659-11.211 6.939-2.134 4.28-1.67 9.311 1.209 13.129l36.67 48.634c2.389 3.167 6.034 4.983 10.001 4.983s7.612-1.816 10.002-4.985l36.669-48.632c2.879-3.818 3.343-8.85 1.209-13.129-2.135-4.28-6.431-6.939-11.213-6.939zm-36.669 57.051-31.706-42.051h8.952c6.907 0 12.526-5.619 12.526-12.526v-50.65h20.455v50.65c0 6.907 5.619 12.526 12.526 12.526h8.952z"/><path d="m507.016 245.998-48.633-36.669c-3.817-2.879-8.848-3.343-13.129-1.21-4.28 2.133-6.939 6.429-6.939 11.212v11.441h-50.65c-6.907 0-12.526 5.619-12.526 12.526v25.403c0 6.907 5.619 12.526 12.526 12.526h50.65v11.441c0 4.782 2.659 9.078 6.939 11.211 1.784.889 3.698 1.327 5.601 1.327 2.662 0 5.302-.857 7.528-2.537l48.632-36.669c3.169-2.387 4.985-6.032 4.985-10s-1.816-7.613-4.984-10.002zm-53.701 41.708v-8.952c0-6.907-5.619-12.526-12.526-12.526h-50.65v-20.456h50.65c6.907 0 12.526-5.619 12.526-12.526v-8.952l42.05 31.706z"/><path d="m61.146 305.207c1.902 0 3.816-.438 5.601-1.327 4.28-2.133 6.939-6.429 6.939-11.211v-11.441h50.65c6.907 0 12.526-5.619 12.526-12.526v-25.403c0-6.907-5.619-12.526-12.526-12.526h-50.65v-11.441c0-4.782-2.659-9.078-6.939-11.212-4.281-2.134-9.312-1.669-13.129 1.21l-48.633 36.668c-3.169 2.389-4.985 6.034-4.985 10.002s1.816 7.613 4.984 10.002l48.633 36.669c2.227 1.679 4.866 2.536 7.529 2.536zm-2.46-80.913v8.952c0 6.907 5.619 12.526 12.526 12.526h50.65v20.456h-50.65c-6.907 0-12.526 5.619-12.526 12.526v8.952l-42.051-31.706z"/><path d="m360.39 159.111c1.919 0 3.839-.732 5.304-2.197l57.472-57.473c5.866 3.856 12.875 6.108 20.404 6.108 20.54 0 37.25-16.71 37.25-37.25s-16.71-37.251-37.25-37.251-37.251 16.711-37.251 37.251c0 7.597 2.291 14.667 6.211 20.565l-57.444 57.445c-2.929 2.929-2.929 7.678 0 10.606 1.465 1.463 3.385 2.196 5.304 2.196zm83.179-113.064c12.269 0 22.25 9.982 22.25 22.251s-9.981 22.25-22.25 22.25c-12.27 0-22.251-9.981-22.251-22.25s9.982-22.251 22.251-22.251z"/><path d="m443.702 406.318c-7.597 0-14.667 2.291-20.565 6.211l-57.444-57.444c-2.93-2.929-7.678-2.929-10.607 0s-2.929 7.678 0 10.606l57.473 57.473c-3.856 5.865-6.108 12.875-6.108 20.403 0 20.54 16.711 37.251 37.251 37.251s37.25-16.711 37.25-37.251c0-20.538-16.71-37.249-37.25-37.249zm0 59.502c-12.27 0-22.251-9.982-22.251-22.251s9.981-22.25 22.251-22.25c12.269 0 22.25 9.981 22.25 22.25s-9.981 22.251-22.25 22.251z"/><path d="m146.307 355.086-57.472 57.473c-5.866-3.856-12.875-6.108-20.404-6.108-20.54 0-37.25 16.71-37.25 37.25s16.71 37.251 37.25 37.251 37.251-16.711 37.251-37.251c0-7.597-2.291-14.667-6.211-20.565l57.444-57.445c2.929-2.929 2.929-7.678 0-10.606-2.931-2.928-7.679-2.928-10.608.001zm-77.876 110.867c-12.269 0-22.25-9.982-22.25-22.251s9.981-22.25 22.25-22.25c12.27 0 22.251 9.981 22.251 22.25s-9.982 22.251-22.251 22.251z"/><path d="m138.355 127.748c-2.93-2.929-7.678-2.929-10.607 0s-2.929 7.678 0 10.607l18.559 18.56c1.465 1.464 3.385 2.197 5.304 2.197s3.839-.732 5.304-2.197c2.929-2.929 2.929-7.678 0-10.606z"/><path d="m68.298 105.682c7.597 0 14.667-2.291 20.565-6.212l15.772 15.772c1.465 1.464 3.385 2.197 5.304 2.197s3.839-.732 5.304-2.197c2.929-2.929 2.929-7.678 0-10.606l-15.802-15.802c3.856-5.865 6.108-12.874 6.108-20.403 0-20.54-16.711-37.251-37.251-37.251s-37.25 16.711-37.25 37.251 16.71 37.251 37.25 37.251zm0-59.502c12.27 0 22.251 9.982 22.251 22.251s-9.981 22.25-22.251 22.25c-12.269 0-22.25-9.981-22.25-22.25s9.981-22.251 22.25-22.251z"/><path d="m315.977 279.026c-4.143 0-7.5 3.358-7.5 7.5v18.723c0 1.639-1.333 2.972-2.972 2.972h-99.014c-1.639 0-2.972-1.333-2.972-2.972v-38.434c0-4.142-3.357-7.5-7.5-7.5s-7.5 3.358-7.5 7.5v38.434c0 9.91 8.062 17.972 17.972 17.972h99.014c9.909 0 17.972-8.062 17.972-17.972v-18.723c0-4.142-3.358-7.5-7.5-7.5z"/><path d="m305.505 188.785h-99.014c-9.909 0-17.972 8.062-17.972 17.972v27.372c0 4.142 3.357 7.5 7.5 7.5s7.5-3.358 7.5-7.5v-27.372c0-1.639 1.333-2.972 2.972-2.972h19.78v34.302c0 3.656 1.996 7.015 5.21 8.765 3.218 1.754 7.131 1.608 10.211-.38l14.306-9.238 14.305 9.237c1.648 1.065 3.534 1.602 5.427 1.602 1.642-.001 3.288-.405 4.784-1.219 3.214-1.75 5.211-5.109 5.211-8.766v-34.302h19.78c1.639 0 2.972 1.333 2.972 2.972v46.937c0 4.142 3.357 7.5 7.5 7.5s7.5-3.358 7.5-7.5v-46.937c0-9.911-8.063-17.973-17.972-17.973zm-34.78 40.102-9.302-6.007c-3.297-2.127-7.558-2.127-10.851.001l-9.301 6.006v-25.102h29.453v25.102z"/></g></svg>