<svg id="Capa_1" enable-background="new 0 0 512 512" height="512" viewBox="0 0 512 512" width="512" xmlns="http://www.w3.org/2000/svg"><g><path d="m504.5 40.828h-52.082c-3.031-10.394-12.639-18.013-23.999-18.013s-20.968 7.619-23.999 18.013h-52.082c-4.143 0-7.5 3.357-7.5 7.5s3.357 7.5 7.5 7.5h51.081v13.152c-6.932 3.839-11.638 11.227-11.638 19.696v8.07h-32.487c-.387-17.587-14.803-31.776-32.482-31.776h-2.708c-5.078-14.699-14.903-27.518-27.871-36.263-3.435-2.314-8.096-1.408-10.412 2.025-2.315 3.435-1.408 8.096 2.025 10.412 8.81 5.94 15.789 14.246 20.137 23.825h-103.963c9.112-20.103 29.402-33.536 51.98-33.536 1.359 0 2.733.048 4.084.144 4.113.288 7.718-2.822 8.009-6.954s-2.822-7.718-6.954-8.009c-1.7-.12-3.429-.181-5.139-.181-30.766 0-58.168 19.757-68.102 48.536h-2.711c-17.678 0-32.094 14.189-32.482 31.776h-32.487v-8.07c0-8.469-4.706-15.858-11.638-19.696v-13.358h51.081c4.143 0 7.5-3.357 7.5-7.5s-3.357-7.5-7.5-7.5h-52.141c-3.098-10.289-12.656-17.806-23.94-17.806-11.285 0-20.842 7.517-23.94 17.806h-52.14c-4.143 0-7.5 3.357-7.5 7.5s3.357 7.5 7.5 7.5h51.081v13.359c-6.932 3.839-11.638 11.227-11.638 19.696v48.756c0 12.406 10.094 22.5 22.5 22.5h28.275c9.085 0 16.924-5.416 20.473-13.186h34.514c.387 17.587 14.803 31.777 32.482 31.777h6.028v19.39h-43.305c-12.414 0-23.335 8.373-26.559 20.363l-4.767 17.739c-1.075 4 1.297 8.114 5.297 9.189.652.175 1.307.259 1.951.259 3.31 0 6.339-2.207 7.238-5.556l4.767-17.738c1.465-5.45 6.43-9.257 12.072-9.257h43.305v1.89c0 12.406 10.094 22.5 22.5 22.5h84.568c12.406 0 22.5-10.094 22.5-22.5v-1.89h43.305c5.643 0 10.607 3.807 12.072 9.256l19.968 74.301c1.018 3.785.232 7.74-2.152 10.851-2.385 3.109-6 4.894-9.92 4.894h-13.432v-23.398c0-12.406-10.094-22.5-22.5-22.5h-184.25c-12.406 0-22.5 10.094-22.5 22.5v23.398h-13.432c-3.92 0-7.535-1.784-9.92-4.894s-3.17-7.065-2.152-10.851l6.406-23.838c1.075-4-1.297-8.114-5.297-9.189-4.002-1.072-8.114 1.296-9.189 5.297l-6.406 23.838c-2.237 8.327-.512 17.027 4.735 23.87 5.246 6.842 13.2 10.767 21.823 10.767h13.432v145.853c0 12.406 10.094 22.5 22.5 22.5h184.25c12.406 0 22.5-10.094 22.5-22.5v-45.908c0-4.143-3.357-7.5-7.5-7.5s-7.5 3.357-7.5 7.5v45.908c0 4.136-3.364 7.5-7.5 7.5h-184.25c-4.136 0-7.5-3.364-7.5-7.5v-184.252c0-4.136 3.364-7.5 7.5-7.5h55.009v52.513c0 4.611 2.493 8.889 6.506 11.161 4.012 2.273 8.962 2.213 12.918-.159l17.694-10.608 17.692 10.608c2.024 1.214 4.31 1.822 6.597 1.822 2.181 0 4.362-.554 6.321-1.663 4.013-2.272 6.506-6.55 6.506-11.161v-52.513h55.009c4.136 0 7.5 3.364 7.5 7.5v105.656c0 4.143 3.357 7.5 7.5 7.5s7.5-3.357 7.5-7.5v-67.258h13.432c8.623 0 16.577-3.925 21.823-10.767 5.247-6.843 6.973-15.543 4.735-23.87l-19.968-74.302c-3.224-11.989-14.145-20.362-26.559-20.362h-43.305v-19.39h6.028c17.678 0 32.095-14.19 32.482-31.777h34.514c3.549 7.77 11.388 13.186 20.473 13.186h28.275c12.406 0 22.5-10.094 22.5-22.5v-48.755c0-8.469-4.706-15.858-11.638-19.696v-13.152h51.083c4.143 0 7.5-3.357 7.5-7.5s-3.357-7.5-7.5-7.5zm-226.384 289.165-15.519-9.306c-4.07-2.441-9.127-2.44-13.193-.001l-15.52 9.307v-48.678h44.232zm150.303-292.178c5.514 0 10 4.486 10 10v18.36h-20v-18.36c0-5.513 4.486-10 10-10zm-36.638 93.931h-32.469v-20h32.469zm-239.093-20v20h-32.469v-20zm-69.107-73.931c5.514 0 10 4.486 10 10v18.36h-20v-18.36c0-5.513 4.486-10 10-10zm21.638 99.617c0 4.136-3.364 7.5-7.5 7.5h-28.276c-4.136 0-7.5-3.364-7.5-7.5v-48.756c0-4.136 3.364-7.5 7.5-7.5h28.275c4.136 0 7.5 3.364 7.5 7.5v48.756zm200.565 77.371c0 4.136-3.364 7.5-7.5 7.5h-84.568c-4.136 0-7.5-3.364-7.5-7.5v-36.279h99.568zm38.528-68.78c0 9.649-7.851 17.5-17.5 17.5h-141.624c-9.649 0-17.5-7.851-17.5-17.5v-48.553c0-9.649 7.851-17.5 17.5-17.5h141.625c9.649 0 17.5 7.851 17.5 17.5v48.553zm105.745-8.591c0 4.136-3.364 7.5-7.5 7.5h-28.275c-4.136 0-7.5-3.364-7.5-7.5v-48.756c0-4.136 3.364-7.5 7.5-7.5h28.275c4.136 0 7.5 3.364 7.5 7.5z"/><path d="m256 114.246h-57.284c-4.143 0-7.5 3.357-7.5 7.5s3.357 7.5 7.5 7.5h57.284c4.143 0 7.5-3.357 7.5-7.5s-3.357-7.5-7.5-7.5z"/><path d="m305.784 114.246c-4.142 0-7.5 3.358-7.5 7.5 0 4.142 3.358 7.5 7.5 7.5s7.5-3.358 7.5-7.5c0-4.142-3.357-7.5-7.5-7.5z"/></g></svg>