<svg id="Capa_1" enable-background="new 0 0 512 512" height="512" viewBox="0 0 512 512" width="512" xmlns="http://www.w3.org/2000/svg"><g><g><path d="m280.456 474.651h-48.912c-12.227 0-22.173-9.947-22.173-22.174v-44.664c-9.58-2.939-18.892-6.797-27.745-11.497l-31.585 31.587c-4.189 4.188-9.757 6.494-15.68 6.494s-11.491-2.307-15.68-6.494l-34.585-34.586c-4.188-4.189-6.494-9.757-6.494-15.679 0-5.923 2.307-11.491 6.494-15.68l31.586-31.586c-4.699-8.853-8.558-18.166-11.496-27.744h-44.664c-12.227 0-22.174-9.946-22.174-22.173v-48.912c0-12.227 9.947-22.173 22.174-22.173h44.664c2.938-9.58 6.797-18.892 11.496-27.744l-31.585-31.586c-4.188-4.188-6.494-9.756-6.494-15.679 0-5.922 2.307-11.49 6.494-15.679l34.585-34.586c4.188-4.188 9.757-6.494 15.68-6.494s11.491 2.307 15.68 6.494l31.585 31.587c8.855-4.7 18.167-8.559 27.745-11.497v-44.664c0-12.227 9.946-22.174 22.173-22.174h48.912c12.227 0 22.173 9.947 22.173 22.174v44.664c9.58 2.938 18.892 6.797 27.745 11.497l31.585-31.587c4.188-4.188 9.757-6.494 15.68-6.494s11.491 2.307 15.68 6.494l34.585 34.586c4.188 4.188 6.494 9.757 6.494 15.679 0 5.923-2.307 11.491-6.494 15.68l-31.586 31.586c4.699 8.854 8.558 18.166 11.496 27.744h44.664c12.227 0 22.174 9.946 22.174 22.173v48.912c0 12.227-9.947 22.173-22.174 22.173h-44.664c-2.939 9.58-6.797 18.892-11.496 27.744l31.586 31.587c4.188 4.188 6.494 9.756 6.494 15.679 0 5.922-2.307 11.49-6.494 15.679l-34.585 34.586c-4.188 4.188-9.757 6.494-15.68 6.494s-11.491-2.307-15.68-6.494l-31.585-31.587c-8.855 4.7-18.167 8.559-27.745 11.497v44.664c-.001 12.226-9.947 22.173-22.174 22.173zm-99.39-94.09c1.929 0 3.865.472 5.622 1.441 9.252 5.1 19.088 9.175 29.231 12.112 4.976 1.439 8.451 6.075 8.451 11.273v47.09c0 3.956 3.218 7.174 7.173 7.174h48.912c3.955 0 7.173-3.218 7.173-7.174v-47.09c0-5.198 3.476-9.834 8.452-11.273 10.143-2.938 19.979-7.013 29.232-12.113 4.534-2.501 10.271-1.683 13.949 1.99l33.304 33.305c2.797 2.797 7.348 2.799 10.145 0l34.585-34.586c2.797-2.797 2.797-7.348 0-10.144l-33.302-33.303c-3.676-3.674-4.496-9.411-1.993-13.952 5.101-9.252 9.176-19.087 12.113-29.231 1.439-4.976 6.075-8.451 11.273-8.451h47.09c3.956 0 7.174-3.218 7.174-7.173v-48.912c0-3.955-3.218-7.173-7.174-7.173h-47.09c-5.198 0-9.834-3.476-11.273-8.452-2.938-10.143-7.013-19.979-12.113-29.231-2.503-4.54-1.683-10.277 1.995-13.953l33.3-33.301c2.797-2.796 2.797-7.347 0-10.144l-34.585-34.586c-2.797-2.797-7.348-2.799-10.145 0l-33.302 33.303c-3.679 3.676-9.418 4.492-13.953 1.991-9.252-5.1-19.088-9.175-29.231-12.112-4.976-1.439-8.451-6.075-8.451-11.273v-47.09c0-3.956-3.218-7.174-7.173-7.174h-48.912c-3.955 0-7.173 3.218-7.173 7.174v47.09c0 5.198-3.476 9.834-8.452 11.273-10.143 2.938-19.979 7.013-29.232 12.113-4.532 2.502-10.27 1.684-13.949-1.99l-33.304-33.305c-2.797-2.797-7.348-2.799-10.145 0l-34.584 34.586c-2.797 2.797-2.797 7.348 0 10.144l33.302 33.303c3.676 3.674 4.496 9.411 1.993 13.952-5.101 9.252-9.176 19.087-12.113 29.231-1.439 4.976-6.075 8.451-11.273 8.451h-47.09c-3.956 0-7.174 3.218-7.174 7.173v48.912c0 3.955 3.218 7.173 7.174 7.173h47.09c5.198 0 9.834 3.476 11.273 8.452 2.938 10.144 7.013 19.979 12.113 29.231 2.503 4.54 1.683 10.277-1.995 13.953l-33.3 33.301c-2.797 2.796-2.797 7.347 0 10.144l34.585 34.586c2.797 2.797 7.348 2.799 10.145 0l33.302-33.303c2.253-2.252 5.281-3.432 8.33-3.432z"/></g><g><path d="m256 377.46c-66.974 0-121.46-54.486-121.46-121.46s54.486-121.46 121.46-121.46 121.46 54.486 121.46 121.46c0 26.169-8.193 51.097-23.695 72.087-2.46 3.332-7.156 4.039-10.489 1.577-3.331-2.461-4.038-7.157-1.577-10.488 13.581-18.392 20.761-40.237 20.761-63.176 0-58.702-47.758-106.46-106.46-106.46s-106.46 47.758-106.46 106.46 47.758 106.46 106.46 106.46c23.446 0 45.682-7.471 64.302-21.604 3.299-2.505 8.004-1.86 10.508 1.439 2.505 3.299 1.86 8.004-1.44 10.508-21.25 16.131-46.621 24.657-73.37 24.657z"/></g><g><path d="m256 343.397c-48.191 0-87.398-39.206-87.398-87.397s39.206-87.398 87.398-87.398c15.375 0 30.498 4.051 43.733 11.714 3.585 2.075 4.809 6.663 2.732 10.248-2.074 3.585-6.664 4.811-10.248 2.732-10.954-6.342-23.479-9.694-36.218-9.694-39.92 0-72.398 32.478-72.398 72.398s32.479 72.397 72.399 72.397 72.397-32.477 72.397-72.397c0-15.573-4.866-30.409-14.073-42.902-2.458-3.334-1.747-8.029 1.588-10.486s8.031-1.746 10.486 1.588c11.121 15.089 16.999 33.002 16.999 51.801 0 48.19-39.206 87.396-87.397 87.396z"/></g><g><path d="m256 512c-68.38 0-132.668-26.629-181.02-74.98-48.351-48.352-74.98-112.64-74.98-181.02 0-61.222 21.954-120.47 61.819-166.829 2.701-3.144 7.437-3.498 10.576-.797 3.141 2.7 3.498 7.436.797 10.576-37.526 43.641-58.192 99.415-58.192 157.05 0 64.374 25.068 124.895 70.587 170.413 45.518 45.519 106.039 70.587 170.413 70.587s124.895-25.068 170.413-70.587c45.519-45.518 70.587-106.039 70.587-170.413s-25.068-124.895-70.587-170.413c-45.518-45.519-106.039-70.587-170.413-70.587-59.365 0-116.403 21.774-160.607 61.312-3.088 2.763-7.828 2.497-10.59-.59s-2.498-7.829.59-10.59c46.958-42.001 107.546-65.132 170.607-65.132 68.38 0 132.668 26.629 181.02 74.98 48.351 48.352 74.98 112.64 74.98 181.02s-26.629 132.668-74.98 181.02c-48.352 48.351-112.64 74.98-181.02 74.98z"/></g><g><path d="m280.906 288.406c-1.919 0-3.839-.733-5.304-2.196l-24.906-24.906c-1.406-1.407-2.196-3.314-2.196-5.304v-36.777c0-4.143 3.357-7.5 7.5-7.5s7.5 3.357 7.5 7.5v33.671l22.71 22.709c2.929 2.93 2.929 7.678 0 10.607-1.465 1.464-3.385 2.196-5.304 2.196z"/></g></g></svg>