<svg id="Capa_1" enable-background="new 0 0 512 512" height="512" viewBox="0 0 512 512" width="512" xmlns="http://www.w3.org/2000/svg"><g><path d="m121.46 41.554c2.621 0 4.752 2.132 4.752 4.753v14.405c0 4.142 3.358 7.5 7.5 7.5s7.5-3.358 7.5-7.5v-14.406c0-10.892-8.861-19.753-19.752-19.753-2.621 0-4.753-2.132-4.753-4.753v-14.3c0-4.142-3.358-7.5-7.5-7.5s-7.5 3.358-7.5 7.5v14.301c.001 10.891 8.862 19.753 19.753 19.753z"/><path d="m243.748 41.554c2.621 0 4.752 2.132 4.752 4.753v14.405c0 4.142 3.358 7.5 7.5 7.5 4.143 0 7.5-3.358 7.5-7.5v-14.406c0-10.892-8.861-19.753-19.752-19.753-2.621 0-4.753-2.132-4.753-4.753v-14.3c0-4.142-3.358-7.5-7.5-7.5s-7.5 3.358-7.5 7.5v14.301c0 10.891 8.861 19.753 19.753 19.753z"/><path d="m366.035 41.554c2.62 0 4.752 2.132 4.752 4.753v14.405c0 4.142 3.357 7.5 7.5 7.5s7.5-3.358 7.5-7.5v-14.406c0-10.892-8.86-19.753-19.752-19.753-2.621 0-4.753-2.132-4.753-4.753v-14.3c0-4.142-3.357-7.5-7.5-7.5s-7.5 3.358-7.5 7.5v14.301c0 10.891 8.862 19.753 19.753 19.753z"/><path d="m470.503 458.89v-127.04c12.039-2.659 21.076-13.409 21.076-26.236 0-14.818-12.056-26.874-26.873-26.874h-19.573v-15.236c0-12.407-10.094-22.5-22.5-22.5h-8.434v-146.35c0-9.649-7.851-17.5-17.5-17.5h-36.823c-9.649 0-17.5 7.851-17.5 17.5v146.35h-50.465v-56.655c0-4.142-3.357-7.5-7.5-7.5s-7.5 3.358-7.5 7.5v56.655h-41.822v-26.506h20.912c4.143 0 7.5-3.358 7.5-7.5s-3.357-7.5-7.5-7.5h-20.912v-26.506h20.912c4.143 0 7.5-3.358 7.5-7.5s-3.357-7.5-7.5-7.5h-20.912v-26.507h41.822v20.178c0 4.142 3.357 7.5 7.5 7.5s7.5-3.358 7.5-7.5v-57.009c0-9.649-7.851-17.5-17.5-17.5h-36.822c-9.649 0-17.5 7.851-17.5 17.5v146.35h-50.465v-146.35c0-9.649-7.851-17.5-17.5-17.5h-36.822c-9.649 0-17.5 7.851-17.5 17.5v146.35h-8.434c-12.407 0-22.5 10.093-22.5 22.5v15.236h-19.574c-14.818 0-26.873 12.055-26.873 26.874 0 12.827 9.037 23.578 21.077 26.236v127.04c-12.04 2.659-21.077 13.409-21.077 26.237 0 14.818 12.056 26.873 26.873 26.873h288.24c4.143 0 7.5-3.358 7.5-7.5s-3.357-7.5-7.5-7.5h-288.24c-6.547 0-11.874-5.327-11.874-11.873 0-6.547 5.327-11.874 11.874-11.874h417.412c6.547 0 11.873 5.327 11.873 11.874s-5.326 11.873-11.873 11.873h-96.485c-4.143 0-7.5 3.358-7.5 7.5s3.357 7.5 7.5 7.5h96.485c14.817 0 26.873-12.055 26.873-26.873 0-12.828-9.036-23.579-21.076-26.237zm-232.914-366.736h36.822c1.379 0 2.5 1.122 2.5 2.5v21.831h-41.822v-21.831c0-1.379 1.122-2.5 2.5-2.5zm122.287 0h36.823c1.379 0 2.5 1.122 2.5 2.5v21.831h-41.823v-21.831c0-1.379 1.121-2.5 2.5-2.5zm-2.5 122.344h20.914c4.143 0 7.5-3.358 7.5-7.5s-3.357-7.5-7.5-7.5h-20.914v-26.506h20.914c4.143 0 7.5-3.358 7.5-7.5s-3.357-7.5-7.5-7.5h-20.914v-26.507h41.823v109.52h-41.823zm-242.074-122.344h36.822c1.379 0 2.5 1.122 2.5 2.5v21.831h-41.822v-21.831c0-1.379 1.121-2.5 2.5-2.5zm-2.5 122.344h20.911c4.142 0 7.5-3.358 7.5-7.5s-3.358-7.5-7.5-7.5h-20.911v-26.506h20.911c4.142 0 7.5-3.358 7.5-7.5s-3.358-7.5-7.5-7.5h-20.911v-26.507h41.822v109.52h-41.822zm-30.935 49.006c0-4.135 3.364-7.5 7.5-7.5h333.266c4.136 0 7.5 3.365 7.5 7.5v15.236h-348.266zm-46.446 42.109c0-6.547 5.327-11.874 11.874-11.874h417.412c6.547 0 11.873 5.327 11.873 11.874s-5.326 11.873-11.873 11.873h-314.65c-4.142 0-7.5 3.358-7.5 7.5s3.358 7.5 7.5 7.5h305.447v125.767h-29.869v-34.138c0-21.018-17.1-38.119-38.118-38.119-21.019 0-38.119 17.1-38.119 38.119v34.138h-55.278v-34.138c0-21.018-17.1-38.119-38.118-38.119-21.019 0-38.118 17.1-38.118 38.119v34.138h-55.279v-34.138c0-21.018-17.1-38.119-38.118-38.119-21.019 0-38.119 17.1-38.119 38.119v34.138h-29.871v-125.767h60.872c4.142 0 7.5-3.358 7.5-7.5s-3.358-7.5-7.5-7.5h-70.075c-6.547 0-11.873-5.326-11.873-11.873zm375.213 152.64h-46.237v-34.138c0-12.747 10.371-23.119 23.119-23.119 12.747 0 23.118 10.371 23.118 23.119zm-131.516 0h-46.236v-34.138c0-12.747 10.371-23.119 23.118-23.119s23.118 10.371 23.118 23.119zm-131.515 0h-46.237v-34.138c0-12.747 10.371-23.119 23.119-23.119 12.747 0 23.118 10.371 23.118 23.119z"/></g></svg>