<svg id="Capa_1" enable-background="new 0 0 512 512" height="512" viewBox="0 0 512 512" width="512" xmlns="http://www.w3.org/2000/svg"><g><path d="m393.192 371.88 23.478 5.196c15.925 3.406 27.484 17.7 27.484 33.985v6.304c0 4.143 3.357 7.5 7.5 7.5s7.5-3.358 7.5-7.5v-6.304c0-23.315-16.547-43.776-39.295-48.642l-87.528-19.37-18.164-18.546c-.008-.22-.02-.44-.02-.66v-15.627c26.118-16.307 44.942-43.245 50.366-74.715h4.189c11.776 0 22.8-4.632 31.044-13.042 8.241-8.408 12.651-19.529 12.414-31.314-.186-9.277-3.318-17.974-8.764-25.109 9.617-3.399 16.528-12.577 16.528-23.343v-1.006c0-13.65-11.105-24.754-24.754-24.754h-15.412l-21.079-89.68c-4.093-17.414-21.621-28.385-39.073-24.451l-59.706 13.449c-2.55.574-5.246.574-7.798 0l-59.707-13.452c-17.444-3.93-34.98 7.036-39.073 24.451l-21.08 89.68h-15.412c-13.65 0-24.754 11.105-24.754 24.754v1.006c0 10.766 6.911 19.944 16.528 23.343-5.446 7.135-8.578 15.832-8.764 25.109-.236 11.785 4.173 22.906 12.414 31.314 8.244 8.41 19.269 13.042 31.044 13.042h4.189c5.422 31.463 24.239 58.397 50.349 74.705v15.638c0 .216-.012.434-.02.651l-18.146 18.55-87.481 19.363c-22.797 4.877-39.344 25.338-39.344 48.653v82.875c0 9.96 8.103 18.064 18.063 18.064h129.763c4.143 0 7.5-3.357 7.5-7.5s-3.357-7.5-7.5-7.5h-66.863v-51.469h244.383v51.472h-144.832c-4.143 0-7.5 3.357-7.5 7.5s3.357 7.5 7.5 7.5h207.732c9.96 0 18.063-8.104 18.063-18.064v-43.885c0-4.143-3.357-7.5-7.5-7.5s-7.5 3.358-7.5 7.5v43.885c0 1.689-1.374 3.064-3.063 3.064h-47.899zm-259.383-3.321 17.909-3.964v65.936h-17.909zm32.909-7.284 12.788-2.831 24.27 46.274c3.442 6.564 9.618 10.984 16.943 12.127 1.222.19 2.44.284 3.648.284 6.033 0 11.784-2.342 16.182-6.679l15.451-15.239 15.45 15.239c4.398 4.337 10.149 6.679 16.182 6.679 1.207 0 2.427-.094 3.648-.284 7.324-1.143 13.5-5.563 16.943-12.126l24.274-46.27 12.784 2.829v69.253h-178.563zm128.222 36.476c-1.213 2.312-3.389 3.87-5.97 4.273-2.583.402-5.127-.418-6.986-2.253l-15.625-15.411 40.837-45.537 12.151 12.406zm94.092-187.793c-5.398 5.509-12.619 8.542-20.331 8.542h-2.655c.042-1.248.071-2.498.071-3.756v-49.299h16.526c.01.006.02.013.031.02 8.873 5.075 14.29 14.039 14.49 23.98.154 7.722-2.734 15.007-8.132 20.513zm-236.51-115.752h137.781c4.143 0 7.5-3.357 7.5-7.5s-3.357-7.5-7.5-7.5h-134.255l11.876-50.523c2.219-9.437 11.715-15.38 21.174-13.25l59.704 13.45c4.709 1.06 9.687 1.06 14.394 0l59.705-13.45c9.457-2.134 18.955 3.814 21.174 13.25l11.875 50.523h-32.96c-4.143 0-7.5 3.357-7.5 7.5s3.357 7.5 7.5 7.5h36.487l4.871 20.725h-216.697zm-45.445 45.479c0-5.378 4.376-9.754 9.754-9.754h278.339c5.378 0 9.754 4.376 9.754 9.754v1.006c0 5.378-4.376 9.754-9.754 9.754h-278.339c-5.378 0-9.754-4.376-9.754-9.754zm36.222 78.815c-7.712 0-14.933-3.033-20.331-8.542-5.398-5.506-8.285-12.791-8.131-20.513.2-9.943 5.618-18.908 14.495-23.983.009-.005.017-.012.026-.017h16.525v49.299c0 1.258.029 2.508.071 3.756zm17.584-3.756v-49.299h190.234v49.299c0 52.447-42.67 95.117-95.117 95.117s-95.117-42.67-95.117-95.117zm95.117 110.117c15.305 0 29.889-3.142 43.146-8.81v7.791c0 .478.024.958.044 1.438l-43.19 48.163-43.206-48.18c.02-.474.044-.948.044-1.419v-7.799c13.26 5.671 27.85 8.816 43.162 8.816zm-51.204 13.951 40.845 45.548-15.625 15.411c-1.859 1.834-4.398 2.658-6.986 2.253-2.581-.402-4.757-1.96-5.97-4.273l-24.404-46.53zm-85.988 158.188h-47.899c-1.688 0-3.063-1.374-3.063-3.064v-82.875c0-16.285 11.558-30.579 27.535-33.996l23.427-5.186zm259.383-66.469h-17.909v-65.934l17.909 3.964z"/><path d="m283.304 257.951c-1.457-3.876-5.779-5.837-9.66-4.379-12.386 4.656-23.86 4.684-35.082.081-3.832-1.574-8.213.261-9.785 4.092-1.572 3.832.26 8.214 4.092 9.785 7.377 3.026 14.955 4.539 22.686 4.539 7.66 0 15.469-1.486 23.371-4.458 3.876-1.458 5.837-5.782 4.378-9.66z"/><path d="m213.268 182.051c-4.143 0-7.5 3.357-7.5 7.5v11.785c0 4.143 3.357 7.5 7.5 7.5s7.5-3.357 7.5-7.5v-11.785c0-4.142-3.358-7.5-7.5-7.5z"/><path d="m298.732 208.837c4.143 0 7.5-3.357 7.5-7.5v-11.785c0-4.143-3.358-7.5-7.5-7.5-4.143 0-7.5 3.357-7.5 7.5v11.785c0 4.142 3.357 7.5 7.5 7.5z"/><path d="m153.37 471.08c0 4.142 3.358 7.5 7.5 7.5s7.5-3.358 7.5-7.5c0-4.142-3.358-7.5-7.5-7.5s-7.5 3.358-7.5 7.5z"/><path d="m358.63 471.08c0-4.142-3.358-7.5-7.5-7.5s-7.5 3.358-7.5 7.5c0 4.142 3.358 7.5 7.5 7.5s7.5-3.358 7.5-7.5z"/></g></svg>