<svg id="Capa_1" enable-background="new 0 0 512 512" height="512" viewBox="0 0 512 512" width="512" xmlns="http://www.w3.org/2000/svg"><g><path d="m88.484 430.144c14.22 0 25.789-11.569 25.789-25.789s-11.569-25.789-25.789-25.789-25.789 11.569-25.789 25.789 11.57 25.789 25.789 25.789zm0-36.578c5.949 0 10.789 4.84 10.789 10.789s-4.84 10.789-10.789 10.789-10.789-4.84-10.789-10.789 4.84-10.789 10.789-10.789z"/><path d="m234.151 378.566c-14.22 0-25.788 11.569-25.788 25.789s11.568 25.789 25.788 25.789 25.789-11.569 25.789-25.789-11.569-25.789-25.789-25.789zm0 36.578c-5.948 0-10.788-4.84-10.788-10.789s4.84-10.789 10.788-10.789c5.949 0 10.789 4.84 10.789 10.789s-4.839 10.789-10.789 10.789z"/><path d="m472.344 171.843c0-4.142-3.358-7.5-7.5-7.5-4.143 0-7.5 3.358-7.5 7.5v25.464h-104.957v-104.435h22.752v34.302c0 3.656 1.996 7.015 5.21 8.765 3.218 1.754 7.13 1.609 10.211-.381l14.306-9.238 14.307 9.238c1.647 1.064 3.534 1.601 5.425 1.6 1.643 0 3.289-.404 4.785-1.22 3.214-1.75 5.21-5.109 5.21-8.765v-34.301h19.78c1.639 0 2.972 1.333 2.972 2.972v43.313c0 4.142 3.357 7.5 7.5 7.5 4.142 0 7.5-3.358 7.5-7.5v-43.314c0-9.91-8.062-17.972-17.972-17.972h-101.986v-2.707c0-13.523-11.002-24.525-24.525-24.525s-24.525 11.002-24.525 24.525v208.972h-30.463l-45.84-156.246c-4.271-14.562-17.854-24.732-33.03-24.732h-114.21c-18.98 0-34.423 15.441-34.423 34.422v146.557h-16.371c-15.99 0-29 13.009-29 29v69.718c0 15.991 13.01 29 29 29h2.978c1.109 8.415 4.071 16.471 8.743 23.628 2.265 3.469 6.914 4.443 10.38 2.18 3.469-2.265 4.445-6.912 2.181-10.38-4.45-6.817-6.803-14.745-6.803-22.928 0-23.162 18.844-42.006 42.006-42.006s42.006 18.844 42.006 42.006-18.844 42.005-42.006 42.005c-4.533 0-8.987-.716-13.24-2.127-3.931-1.306-8.177.825-9.48 4.756-1.305 3.931.824 8.176 4.756 9.48 5.779 1.918 11.823 2.891 17.965 2.891 28.89 0 52.812-21.607 56.497-49.505h32.674c3.685 27.899 27.607 49.505 56.496 49.505 28.89 0 52.812-21.607 56.497-49.505h39.238c12.406 0 22.5-10.093 22.5-22.5v-23.558h135.088c13.523 0 24.525-11.002 24.525-24.525s-11.002-24.525-24.525-24.525h-15.131v-144.904zm-52.752-53.869-9.299-6.005c-3.295-2.129-7.555-2.13-10.853-.001l-9.301 6.006v-25.102h29.453zm-29.453 94.333h29.453v25.107l-9.299-6.005c-3.295-2.129-7.555-2.13-10.853-.001l-9.301 6.006zm-15 0v34.307c0 3.656 1.996 7.015 5.21 8.765 3.218 1.754 7.13 1.609 10.211-.381l14.306-9.238 14.307 9.238c1.647 1.064 3.534 1.601 5.425 1.6 1.643 0 3.289-.404 4.785-1.22 3.214-1.75 5.21-5.109 5.21-8.765v-34.307h22.752v104.44h-104.958v-104.44h22.752zm-314.768-49.307h32.139c4.142 0 7.5-3.358 7.5-7.5s-3.358-7.5-7.5-7.5h-32.139v-10.42c0-10.71 8.713-19.422 19.423-19.422h114.21c8.562 0 16.227 5.738 18.637 13.954l4.661 15.888h-92.107c-4.143 0-7.5 3.358-7.5 7.5s3.357 7.5 7.5 7.5h96.507l35.539 121.136h-46.819l-9.858-33.603 6.881-6.881c2.929-2.929 2.929-7.678 0-10.607s-7.677-2.93-10.607 0l-9.995 9.995c-.01.009-.019.019-.028.028l-11.874 11.874c-2.929 2.929-2.929 7.678 0 10.606 1.465 1.465 3.384 2.197 5.304 2.197 1.919 0 3.839-.732 5.304-2.197l2.93-2.93 6.313 21.518h-49.302v-54.338c0-15.696-12.77-28.466-28.466-28.466s-28.467 12.77-28.467 28.466v54.338h-28.186zm70.119 121.136h-26.933v-54.338c0-7.425 6.041-13.466 13.467-13.466 7.425 0 13.466 6.041 13.466 13.466zm-42.006 63.213c-28.89 0-52.812 21.607-56.497 49.506h-2.987c-7.72 0-14-6.281-14-14v-69.718c0-7.72 6.28-14 14-14h274.336v97.719h-12.688c-3.685-27.899-27.607-49.506-56.497-49.506-28.889 0-52.811 21.607-56.496 49.506h-32.674c-3.685-27.9-27.607-49.507-56.497-49.507zm145.667 99.011c-23.161 0-42.005-18.844-42.005-42.005 0-23.162 18.844-42.006 42.005-42.006 23.162 0 42.006 18.844 42.006 42.006s-18.843 42.005-42.006 42.005zm103.236-57.005c0 4.136-3.364 7.5-7.5 7.5h-11.551v-321.69c0-5.252 4.273-9.525 9.525-9.525s9.525 4.273 9.525 9.525v314.19zm150.088-38.558h-135.088v-19.051h135.088c5.252 0 9.525 4.273 9.525 9.525 0 5.253-4.273 9.526-9.525 9.526z"/></g></svg>