<svg id="Capa_1" enable-background="new 0 0 512 512" height="512" viewBox="0 0 512 512" width="512" xmlns="http://www.w3.org/2000/svg"><g><path d="m431.62 180.251c0-7.455-1.879-14.836-5.433-21.346-1.985-3.635-6.54-4.975-10.178-2.988-3.635 1.985-4.973 6.542-2.988 10.178 2.354 4.311 3.599 9.206 3.599 14.156 0 16.318-13.275 29.593-29.594 29.593-16.317 0-29.592-13.275-29.592-29.593 0-16.317 13.275-29.593 29.592-29.593 1.387 0 2.78.097 4.141.286 4.095.582 7.893-2.288 8.465-6.391.573-4.103-2.288-7.893-6.391-8.465-2.045-.286-4.137-.431-6.215-.431-7.332 0-14.249 1.79-20.357 4.938l-66.203-38.222c-1.644-23.101-20.952-41.397-44.466-41.397s-42.822 18.297-44.466 41.398l-66.203 38.222c-6.108-3.148-13.025-4.938-20.357-4.938-24.589 0-44.593 20.004-44.593 44.592 0 15.65 8.11 29.433 20.342 37.393v75.36c-12.231 7.96-20.342 21.743-20.342 37.393 0 24.589 20.005 44.592 44.593 44.592 6.833 0 13.31-1.549 19.105-4.309l67.455 38.945c1.645 23.102 20.953 41.398 44.466 41.398 23.514 0 42.822-18.296 44.466-41.398l67.455-38.946c5.794 2.759 12.271 4.309 19.105 4.309 24.589 0 44.593-20.004 44.593-44.592 0-15.65-8.11-29.433-20.342-37.393v-75.36c12.232-7.958 20.343-21.741 20.343-37.391zm-70.342 36.374v77.397c-10.679 7.582-17.889 19.734-18.749 33.585l-67.058 38.715c-5.887-2.87-12.494-4.484-19.472-4.484s-13.584 1.614-19.471 4.484l-67.059-38.716c-.86-13.851-8.07-26.003-18.748-33.584v-77.397c10.314-7.322 17.394-18.907 18.641-32.17l67.166-38.778c5.887 2.87 12.494 4.484 19.472 4.484s13.584-1.614 19.471-4.484l67.167 38.778c1.246 13.263 8.327 24.848 18.64 32.17zm-72.67 159.434 55.885-32.265c2.056 6.513 5.576 12.379 10.163 17.225l-56.021 32.344c-2.006-6.532-5.479-12.424-10.027-17.304zm-75.243 17.304-56.021-32.344c4.588-4.847 8.107-10.712 10.163-17.226l55.885 32.265c-4.548 4.881-8.021 10.773-10.027 17.305zm10.027-257.422-55.547 32.07c-1.881-6.578-5.23-12.541-9.682-17.503l55.202-31.871c2.006 6.532 5.478 12.425 10.027 17.304zm75.243-17.303 55.202 31.87c-4.451 4.962-7.8 10.925-9.681 17.503l-55.548-32.07c4.548-4.879 8.021-10.771 10.027-17.303zm-42.635-42.663c16.318 0 29.593 13.275 29.593 29.592 0 16.318-13.275 29.594-29.593 29.594s-29.593-13.275-29.593-29.594c-.001-16.316 13.275-29.592 29.593-29.592zm-131.026 74.683c16.317 0 29.592 13.275 29.592 29.593s-13.275 29.593-29.592 29.593c-16.318 0-29.594-13.275-29.594-29.593 0-16.317 13.276-29.593 29.594-29.593zm-9.252 73.215c2.986.633 6.08.972 9.252.972 3.705 0 7.304-.462 10.748-1.318v63.595c-3.444-.856-7.043-1.318-10.748-1.318-3.172 0-6.266.339-9.252.971zm-20.342 106.524c0-16.318 13.275-29.593 29.594-29.593 16.317 0 29.592 13.275 29.592 29.593 0 16.317-13.275 29.593-29.592 29.593-16.318 0-29.594-13.276-29.594-29.593zm160.62 105.628c-16.318 0-29.593-13.275-29.593-29.592 0-16.318 13.275-29.594 29.593-29.594s29.593 13.275 29.593 29.594c0 16.317-13.275 29.592-29.593 29.592zm131.026-76.035c-16.317 0-29.592-13.275-29.592-29.593s13.275-29.593 29.592-29.593c16.318 0 29.594 13.275 29.594 29.593 0 16.317-13.276 29.593-29.594 29.593zm9.252-73.215c-2.986-.633-6.08-.971-9.252-.971-3.705 0-7.304.462-10.748 1.318v-63.595c3.444.856 7.043 1.318 10.748 1.318 3.172 0 6.266-.339 9.252-.972z"/><path d="m61.578 111.2c1.38 1.098 3.027 1.63 4.663 1.63 2.208 0 4.395-.97 5.875-2.832 27.786-34.948 65.217-61.358 107.023-75.89l-15.294 19.998c-2.517 3.291-1.89 7.998 1.4 10.514 1.36 1.04 2.962 1.544 4.551 1.543 2.256 0 4.487-1.014 5.963-2.943l29.224-38.212c1.503-1.965 1.94-4.543 1.17-6.892-.77-2.35-2.648-4.169-5.021-4.862l-44.28-12.95c-3.981-1.165-8.141 1.118-9.304 5.093-1.163 3.976 1.117 8.141 5.093 9.304l19.895 5.818c-43.798 15.581-82.981 43.442-112.16 80.143-2.578 3.242-2.04 7.961 1.202 10.538z"/><path d="m13.712 263.5c4.142 0 7.5-3.357 7.5-7.5 0-42.127 11.283-83.443 32.63-119.479 2.11-3.563.933-8.164-2.631-10.275-3.562-2.108-8.163-.932-10.275 2.631-22.716 38.35-34.724 82.308-34.724 127.123 0 4.143 3.357 7.5 7.5 7.5z"/><path d="m506.603 147.549c-3.98-1.167-8.142 1.118-9.304 5.093l-5.819 19.896c-15.535-43.665-43.282-82.755-79.816-111.902-44.627-35.604-98.454-54.424-155.664-54.424-4.143 0-7.5 3.357-7.5 7.5 0 4.142 3.357 7.5 7.5 7.5 53.774 0 104.367 17.687 146.309 51.149 34.791 27.756 61.093 65.099 75.583 106.778l-19.999-15.294c-3.292-2.516-7.999-1.889-10.513 1.4-2.517 3.291-1.89 7.998 1.4 10.514l38.212 29.224c1.326 1.015 2.932 1.543 4.558 1.543.783 0 1.571-.123 2.335-.373 2.35-.77 4.169-2.648 4.862-5.021l12.949-44.279c1.163-3.976-1.117-8.142-5.093-9.304z"/><path d="m418.605 425.368c-24.561 23.586-53.882 41.502-85.763 52.55l15.314-20.024c2.517-3.291 1.89-7.998-1.4-10.514-3.292-2.516-7.999-1.889-10.513 1.4l-29.224 38.212c-1.503 1.965-1.94 4.543-1.17 6.893s2.648 4.169 5.021 4.862l44.279 12.949c.703.206 1.412.304 2.108.304 3.246 0 6.238-2.124 7.195-5.396 1.163-3.976-1.117-8.142-5.093-9.304l-19.884-5.815c33.255-11.8 63.837-30.635 89.52-55.299 2.987-2.869 3.083-7.616.214-10.604-2.869-2.987-7.616-3.084-10.604-.214z"/><path d="m498.289 248.5c-4.142 0-7.5 3.357-7.5 7.5 0 53.589-17.578 104.046-50.835 145.914-2.576 3.244-2.035 7.962 1.208 10.538 1.38 1.096 3.025 1.627 4.66 1.627 2.209 0 4.397-.971 5.878-2.835 35.385-44.548 54.088-98.23 54.088-155.244.001-4.142-3.357-7.5-7.499-7.5z"/><path d="m256 490.788c-53.774 0-104.367-17.687-146.309-51.149-34.791-27.756-61.093-65.099-75.583-106.778l19.999 15.294c3.292 2.517 7.999 1.889 10.514-1.4 2.517-3.291 1.89-7.998-1.4-10.514l-38.212-29.224c-1.966-1.504-4.544-1.94-6.892-1.17-2.35.77-4.169 2.648-4.862 5.021l-12.951 44.28c-1.163 3.975 1.117 8.141 5.093 9.304.703.206 1.412.304 2.108.304 3.246 0 6.238-2.124 7.195-5.396l5.819-19.896c15.535 43.665 43.282 82.755 79.816 111.902 44.628 35.604 98.455 54.423 155.665 54.423 4.143 0 7.5-3.357 7.5-7.5s-3.358-7.501-7.5-7.501z"/><path d="m256 179.501c-42.182 0-76.499 34.317-76.499 76.499 0 42.18 34.314 76.496 76.494 76.499h.002.001.003s.002 0 .003 0h.001.002c42.18-.003 76.494-34.319 76.494-76.499-.002-42.182-34.319-76.499-76.501-76.499zm61.026 68.999h-21.591c-1.398-18.362-7.939-35.783-18.754-50.412 21.501 7.703 37.49 27.054 40.345 50.412zm-61.026 66.391c-13.995-13.689-22.604-31.858-24.376-51.391h48.753c-1.773 19.533-10.382 37.702-24.377 51.391zm-24.384-66.391c1.757-19.493 10.37-37.67 24.384-51.402 14.013 13.733 22.626 31.909 24.384 51.402zm3.703-50.411c-10.815 14.629-17.356 32.05-18.754 50.412h-21.591c2.855-23.359 18.844-42.711 40.345-50.412zm-40.345 65.411h21.597c1.41 18.389 7.948 35.808 18.749 50.412-21.502-7.702-37.491-27.053-40.346-50.412zm81.707 50.412c10.8-14.604 17.338-32.022 18.749-50.412h21.596c-2.855 23.359-18.844 42.71-40.345 50.412z"/></g></svg>