<svg id="Capa_1" enable-background="new 0 0 512 512" height="512" viewBox="0 0 512 512" width="512" xmlns="http://www.w3.org/2000/svg"><g><path d="m137.359 378.222c-4.142 0-7.5 3.358-7.5 7.5s3.358 7.5 7.5 7.5h28.127c6.893 0 12.5-5.608 12.5-12.5v-41.617c0-6.893-5.607-12.5-12.5-12.5h-100.082c-6.893 0-12.5 5.607-12.5 12.5v41.617c0 6.892 5.607 12.5 12.5 12.5h39.269c4.142 0 7.5-3.358 7.5-7.5s-3.358-7.5-7.5-7.5h-36.769v-36.617h95.083v36.617z"/><path d="m504.5 289.324c4.143 0 7.5-3.358 7.5-7.5v-55.032c0-15.155-9.099-28.828-23.179-34.835l-39.384-16.803c.163-.615.258-1.257.258-1.924v-147.2c0-12.407-10.094-22.5-22.5-22.5h-404.695c-12.407.001-22.5 10.095-22.5 22.501v103.59c0 4.142 3.358 7.5 7.5 7.5s7.5-3.358 7.5-7.5v-103.59c0-4.136 3.365-7.5 7.5-7.5h135.139v105.287c0 5.21 2.844 9.991 7.421 12.479 4.579 2.488 10.137 2.272 14.508-.563l45.28-29.367 45.279 29.367c2.346 1.521 5.033 2.288 7.727 2.288 2.327 0 4.659-.572 6.781-1.725 4.577-2.487 7.421-7.269 7.421-12.479v-105.287h135.139c4.136 0 7.5 3.364 7.5 7.5v142.834l-47.975-20.468c-9.675-4.128-20.772-4.129-30.449-.001l-102.104 43.561c-14.079 6.007-23.177 19.681-23.177 34.834v105.293c0 33.612 9.136 65.949 26.542 94.442h-235.032c-4.136 0-7.5-3.364-7.5-7.5v-256.72c0-4.142-3.358-7.5-7.5-7.5s-7.5 3.358-7.5 7.5v256.72c0 12.407 10.093 22.5 22.5 22.5h245.235c23.172 30.752 54.915 53.242 91.931 65.087 3.847 1.23 7.827 1.854 11.829 1.854 4.005 0 7.987-.625 11.836-1.857 37.628-12.042 69.815-35.079 93.081-66.621 23.281-31.564 35.588-68.877 35.588-107.904v-17.575c0-4.142-3.357-7.5-7.5-7.5s-7.5 3.358-7.5 7.5v17.575c0 35.799-11.294 70.034-32.66 99.001-21.377 28.982-50.96 50.154-85.557 61.23-.009.003-.018.006-.026.009-4.735 1.516-9.786 1.516-14.52.002-34.609-11.075-64.204-32.251-85.587-61.241-21.366-28.968-32.659-63.203-32.659-99.001v-105.293c0-9.134 5.52-17.392 14.064-21.037l102.103-43.561c5.936-2.532 12.743-2.532 18.677 0l102.101 43.56c8.544 3.645 14.065 11.902 14.065 21.038v55.032c-.001 4.142 3.356 7.5 7.499 7.5zm-227.443-166.975-44.482-28.849c-4.694-3.044-10.76-3.043-15.455 0l-44.481 28.85v-103.819h104.418z"/><path d="m394.333 284.456-37.622 37.622-8.053-8.052c-4.685-4.684-10.912-7.264-17.537-7.264-6.624 0-12.853 2.58-17.537 7.264-9.669 9.67-9.669 25.403 0 35.073l18.599 18.599c6.543 6.544 15.254 10.147 24.528 10.147 9.273 0 17.984-3.603 24.527-10.147l48.169-48.169c9.669-9.67 9.669-25.404 0-35.073s-25.403-9.669-35.074 0zm24.467 24.467-48.169 48.169c-3.71 3.71-8.653 5.753-13.92 5.753-5.268 0-10.211-2.043-13.921-5.753l-18.599-18.599c-3.821-3.821-3.821-10.039-.001-13.86 1.852-1.852 4.314-2.871 6.931-2.871 2.618 0 5.079 1.02 6.931 2.871l13.356 13.355c2.928 2.929 7.677 2.928 10.606-.001l42.925-42.925c3.822-3.821 10.04-3.821 13.86 0 3.822 3.822 3.822 10.04.001 13.861z"/><path d="m378.361 191.808c-4.364-1.862-9.37-1.861-13.734 0l-79.246 33.81c-6.459 2.755-10.633 9.074-10.633 16.096v90.371c0 29.201 8.97 57.184 25.939 80.923 16.923 23.674 40.543 41.378 68.309 51.196.809.286 1.654.429 2.5.429s1.691-.143 2.5-.429c27.766-9.818 51.387-27.522 68.31-51.196 16.969-23.74 25.939-51.722 25.939-80.923v-90.371c0-7.023-4.174-13.342-10.633-16.096zm74.882 140.277c0 26.054-8.002 51.021-23.142 72.2-14.615 20.447-34.837 35.917-58.607 44.865-23.768-8.948-43.99-24.418-58.605-44.865-15.14-21.179-23.142-46.146-23.142-72.2v-90.371c0-1.003.597-1.906 1.52-2.299l79.245-33.81c.312-.133.647-.199.982-.199.334 0 .669.066.98.199l79.249 33.811c.923.393 1.519 1.295 1.519 2.299v90.37z"/></g></svg>