<svg id="Capa_1" enable-background="new 0 0 512 512" height="512" viewBox="0 0 512 512" width="512" xmlns="http://www.w3.org/2000/svg"><g><path d="m12.791 404.012c.015 6.52 2.553 12.664 7.156 17.311l82.957 83.427c4.592 4.607 10.95 7.25 17.441 7.25l229.523-.003c75.745 0 137.369-61.624 137.369-137.369 0-68.336-50.161-125.171-115.595-135.636v-63.559c2.653-1.938 5.373-3.119 9.825-3.119 6.428 0 9.257 2.456 13.54 6.173 5.052 4.384 11.339 9.841 23.361 9.841 12.03 0 18.319-5.459 23.372-9.844 4.281-3.715 7.108-6.169 13.529-6.169 6.428 0 9.257 2.456 13.54 6.173.723.627 1.445 1.254 2.184 1.867 5.266 4.374 12.391 5.285 18.596 2.372 6.218-2.918 10.08-8.995 10.08-15.859v-95.354c0-19.1-7.438-37.056-20.94-50.56-13.028-13.038-30.344-20.472-48.759-20.931l-153.12-.023c-4.142 0-7.5 3.358-7.5 7.5s3.358 7.5 7.5 7.5h107.529c-16.866 13.094-27.738 33.558-27.738 56.514v165.913c-2.244-.11-4.502-.168-6.773-.168-10.506 0-20.739 1.19-30.575 3.434v-91.673c0-9.654-7.854-17.509-17.508-17.509h-219.134c-9.654 0-17.509 7.855-17.509 17.509v206.422c0 9.654 7.854 17.508 17.509 17.508h129.87c-.007.559-.021 1.117-.021 1.678 0 53.301 30.516 99.609 74.994 122.372h-159.493v-76.008c0-13.565-11.036-24.6-24.6-24.6h-75.62l-.298-226.145c-.005-4.139-3.362-7.49-7.5-7.49-.003 0-.006 0-.01 0-4.142.005-7.496 3.368-7.49 7.51zm18.433 7.38h72.176c5.293 0 9.6 4.307 9.6 9.6v72.64zm228.245-140.105v-49.296h44.825v23.049c-16.635 5.868-31.812 14.849-44.825 26.247zm-179.327-49.296h164.327v60.48h-164.327zm224.152-72.971v57.971h-44.825v-60.48h42.316c1.384 0 2.509 1.126 2.509 2.509zm-221.643-2.509h161.818v60.48h-164.327v-57.971c0-1.383 1.126-2.509 2.509-2.509zm0 211.439c-1.383 0-2.509-1.125-2.509-2.508v-57.971h156.132c-12.034 17.661-20.058 38.26-22.76 60.479zm389.586 16.678c0 67.474-54.895 122.369-122.369 122.369s-122.369-54.895-122.369-122.369 54.895-122.369 122.369-122.369 122.369 54.895 122.369 122.369zm12.432-207.762c0 1.391-.911 2.026-1.454 2.281-.534.25-1.588.541-2.638-.332-.655-.544-1.296-1.101-1.938-1.658-5.053-4.386-11.343-9.844-23.372-9.844-12.022 0-18.31 5.456-23.361 9.841-4.283 3.717-7.112 6.172-13.54 6.172-6.42 0-9.248-2.454-13.529-6.17-5.053-4.386-11.342-9.844-23.372-9.844-3.796 0-7.016.555-9.825 1.447v-87.245c0-15.293 6.36-30.089 17.353-40.696 6.332-6.109 13.225-9.874 20.717-12.264 12.165-3.881 25.328-3.814 37.447.21 7.678 2.549 14.687 6.501 21.089 12.922 10.693 10.725 16.421 25.435 16.421 40.58v94.6z"/><path d="m19.94 145.07h.01c4.142-.005 7.496-3.368 7.49-7.51l-.109-82.739c-.026-21.932 17.792-39.796 39.709-39.821h177.124c4.142 0 7.5-3.358 7.5-7.5s-3.358-7.5-7.5-7.5h-177.133c-30.197.035-54.736 24.636-54.7 54.84l.109 82.74c.005 4.139 3.362 7.49 7.5 7.49z"/><path d="m253.007 374.628c0 53.41 43.452 96.861 96.861 96.861 19.694 0 38.651-5.878 54.822-16.997 3.413-2.347 4.277-7.016 1.931-10.429-2.348-3.413-7.017-4.276-10.43-1.931-13.659 9.393-29.677 14.357-46.323 14.357-45.139 0-81.861-36.723-81.861-81.861 0-45.139 36.723-81.861 81.861-81.861 45.139 0 81.861 36.723 81.861 81.861 0 16.646-4.964 32.664-14.357 46.322-2.347 3.413-1.483 8.083 1.93 10.429 3.414 2.348 8.082 1.483 10.429-1.93 11.12-16.17 16.997-35.127 16.997-54.821 0-53.41-43.452-96.861-96.861-96.861-53.408 0-96.86 43.451-96.86 96.861z"/><path d="m65.142 64.178v20.256c0 9.654 7.854 17.508 17.509 17.508h219.134c9.654 0 17.508-7.854 17.508-17.508v-20.256c0-9.654-7.854-17.509-17.508-17.509h-219.134c-9.654 0-17.509 7.855-17.509 17.509zm239.152 0v20.256c0 1.383-1.125 2.508-2.508 2.508h-219.135c-1.383 0-2.509-1.125-2.509-2.508v-20.256c0-1.383 1.126-2.509 2.509-2.509h219.134c1.384 0 2.509 1.126 2.509 2.509z"/><path d="m361.169 367.168c-7.716-2.791-16.256-6.163-21.091-10.012-1.788-1.423-2.536-4.418-1.907-7.629.622-3.175 2.8-7.011 7.048-8.257 9.412-2.759 15.607 2.07 16.385 2.721l1.242 1.232c2.942 2.916 7.69 2.895 10.607-.046 2.916-2.942 2.895-7.69-.046-10.607l-1.401-1.389c-.051-.05-.103-.1-.155-.149-.332-.31-5.639-5.164-14.405-6.959l.031-4.214c.03-4.142-3.303-7.524-7.445-7.555-.019 0-.037 0-.056 0-4.117 0-7.469 3.322-7.499 7.445l-.034 4.74c-.478.12-.958.245-1.444.388-8.948 2.625-15.671 10.199-17.546 19.766-1.72 8.778 1.071 17.303 7.284 22.25 5.265 4.191 12.604 7.779 25.332 12.382 9.236 3.341 8.976 10.86 8.435 13.939-1.077 6.136-6.29 12.737-15.192 12.737-.004 0-.008 0-.011 0-8.423-.005-11.05-.444-17.53-4.751-3.45-2.292-8.105-1.355-10.398 2.095s-1.354 8.105 2.095 10.397c7.132 4.74 12.176 6.413 18.276 6.98l-.034 4.73c-.03 4.142 3.304 7.524 7.446 7.554h.055c4.117 0 7.469-3.322 7.499-7.446l.039-5.44c12.563-3.074 20.678-13.721 22.53-24.263 2.414-13.76-4.694-25.786-18.11-30.639z"/></g></svg>