<svg id="Capa_1" enable-background="new 0 0 512 512" height="512" viewBox="0 0 512 512" width="512" xmlns="http://www.w3.org/2000/svg"><g><path d="m458.752 489.803-28.267-98.87c-1.398-4.889-4.853-8.904-9.479-11.017l-55.626-25.394c-4.862-2.219-10.366-2.617-15.5-1.119l-13.552 3.957 26.03-45.086c2.071-3.587.842-8.174-2.745-10.245-3.589-2.072-8.175-.842-10.245 2.745l-87.475 151.512c-1.773 3.071-4.712 3.403-5.893 3.403-1.182 0-4.12-.332-5.894-3.403l-124.441-215.539c-27.204-47.118-27.204-103.379 0-150.498s75.927-75.249 130.335-75.249 103.131 28.13 130.335 75.249 27.204 103.38 0 150.498l-20.616 35.708c-2.071 3.587-.842 8.174 2.745 10.245 3.588 2.071 8.174.841 10.245-2.745l20.616-35.708c29.915-51.815 29.915-113.683 0-165.498-29.914-51.815-83.494-82.749-143.325-82.749s-113.41 30.934-143.325 82.749-29.915 113.683 0 165.498l62.841 108.844-12.479-3.677c-5.104-1.503-10.589-1.129-15.445 1.056l-56.51 25.44c-4.668 2.102-8.153 6.131-9.561 11.055l-4.985 17.439c-1.139 3.982 1.167 8.134 5.149 9.272.688.197 1.383.291 2.065.291 3.263 0 6.266-2.146 7.207-5.44l4.985-17.438c.191-.668.664-1.216 1.298-1.501l51.461-23.166v33.038c0 2.127-.91 4.16-2.503 5.582l-24.552 21.982c-4.764 4.268-7.495 10.379-7.495 16.766v36.236l-43.551 12.859c-1.159.341-1.955-.22-2.325-.586-.369-.366-.939-1.155-.606-2.32l13.798-48.258c1.139-3.982-1.167-8.134-5.149-9.272-3.979-1.138-8.134 1.167-9.272 5.149l-13.798 48.259c-1.74 6.087-.028 12.638 4.469 17.095 4.495 4.457 11.059 6.112 17.133 4.319l78.758-23.254c1.349-.398 2.774-.398 4.119-.001.099.029.197.056.297.081l91.868 23.042c2.009.575 4.072.863 6.137.863 2.046 0 4.092-.283 6.085-.849l92.775-23.063c.098-.024.195-.051.293-.079 1.35-.394 2.775-.389 4.121.011l77.81 23.186c6.076 1.813 12.651.166 17.159-4.292 4.506-4.461 6.224-11.018 4.48-17.113zm-200.391 6.824c-.099.024-.196.051-.294.079-1.341.393-2.759.39-4.1-.005-.098-.029-.196-.056-.295-.081l-91.868-23.042c-4.074-1.168-8.374-1.153-12.446.051l-20.207 5.966v-31.807c0-2.129.913-4.168 2.503-5.592l24.543-21.974c4.769-4.259 7.504-10.369 7.504-16.764v-34.211l22.695 6.687 50.721 87.851c3.941 6.827 11.001 10.903 18.884 10.903s14.942-4.076 18.884-10.903l50.594-87.631 28.607-8.353c1.678-.491 3.477-.36 5.067.366l15.527 7.089v28.203c0 2.128-.909 4.16-2.503 5.582l-24.553 21.983c-4.763 4.269-7.494 10.38-7.494 16.765v28.511zm185.361-.378c-.37.366-1.161.931-2.328.582l-77.811-23.186c-2.758-.822-5.622-1.085-8.453-.817v-25.039c0-2.128.913-4.168 2.503-5.592l24.542-21.973c4.77-4.259 7.505-10.369 7.505-16.765v-21.355l25.098 11.458c.628.287 1.098.832 1.287 1.496l28.267 98.87c.332 1.165-.24 1.954-.61 2.321z"/><path d="m170.408 243.201c-2.835 3.02-2.686 7.766.334 10.601 23.175 21.762 53.453 33.746 85.259 33.746 68.689 0 124.573-55.883 124.573-124.573s-55.884-124.573-124.573-124.573-124.574 55.883-124.574 124.573c0 22.423 6.025 44.409 17.426 63.58 2.117 3.561 6.722 4.731 10.279 2.613 3.561-2.117 4.73-6.719 2.613-10.279-10.021-16.853-15.318-36.188-15.318-55.914 0-60.419 49.154-109.573 109.573-109.573s109.573 49.154 109.573 109.573-49.154 109.573-109.573 109.573c-27.976 0-54.608-10.541-74.991-29.681-3.019-2.836-7.766-2.685-10.601.334z"/><path d="m295.903 225.378c12.406 0 22.5-10.093 22.5-22.5v-79.807c0-12.407-10.094-22.5-22.5-22.5h-79.806c-12.406 0-22.5 10.093-22.5 22.5v79.807c0 12.407 10.094 22.5 22.5 22.5zm-50.278-109.807h20.75v21.157l-4.864-2.917c-3.398-2.039-7.624-2.039-11.02-.001l-4.865 2.917v-21.156zm-37.028 87.307v-79.807c0-4.136 3.364-7.5 7.5-7.5h14.528v28.722c0 3.853 2.082 7.425 5.434 9.324 3.351 1.898 7.487 1.848 10.79-.134l9.15-5.486 9.15 5.486c1.691 1.014 3.6 1.522 5.51 1.522 1.821 0 3.645-.462 5.28-1.389 3.352-1.898 5.434-5.471 5.434-9.324v-28.722h14.528c4.136 0 7.5 3.364 7.5 7.5v79.807c0 4.136-3.364 7.5-7.5 7.5h-79.806c-4.134.001-7.498-3.363-7.498-7.499z"/></g></svg>