<svg id="Capa_1" enable-background="new 0 0 512 512" height="512" viewBox="0 0 512 512" width="512" xmlns="http://www.w3.org/2000/svg"><g><path d="m494.5 374.398h-16.262v-281.904c0-17.92-14.58-32.5-32.5-32.5h-386.766c-17.92 0-32.5 14.58-32.5 32.5v132.741c0 4.142 3.358 7.5 7.5 7.5s7.5-3.358 7.5-7.5v-132.741c0-9.649 7.851-17.5 17.5-17.5h386.766c9.649 0 17.5 7.851 17.5 17.5v281.904h-331.339c-4.142 0-7.5 3.358-7.5 7.5s3.358 7.5 7.5 7.5h57.741v13.804c0 9.65 7.851 17.5 17.5 17.5h97.719c9.649 0 17.5-7.85 17.5-17.5v-13.804h172.141c1.378 0 2.5 1.122 2.5 2.5v27.607c0 9.649-7.851 17.5-17.5 17.5h-447c-9.649 0-17.5-7.851-17.5-17.5v-27.607c0-1.378 1.122-2.5 2.5-2.5h81.713c4.142 0 7.5-3.358 7.5-7.5s-3.358-7.5-7.5-7.5h-57.741v-116.477c0-4.142-3.358-7.5-7.5-7.5s-7.5 3.358-7.5 7.5v116.477h-8.972c-9.649 0-17.5 7.851-17.5 17.5v27.607c0 17.92 14.58 32.5 32.5 32.5h447c17.92 0 32.5-14.58 32.5-32.5v-27.607c0-9.649-7.851-17.5-17.5-17.5zm-187.141 28.804c0 1.379-1.122 2.5-2.5 2.5h-97.719c-1.378 0-2.5-1.121-2.5-2.5v-13.804h102.719z"/><path d="m379.499 198.184c4.142 0 7.5-3.358 7.5-7.5v-48.009c0-12.407-10.093-22.5-22.5-22.5h-216.998c-12.407 0-22.5 10.093-22.5 22.5v164.044c0 12.407 10.093 22.5 22.5 22.5h203.666l4.162 15.911c.997 3.812 3.979 6.82 7.782 7.852 3.806 1.031 7.897-.06 10.683-2.846l7.252-7.251 14.862 14.862c2.149 2.149 4.973 3.224 7.796 3.223 2.824 0 5.648-1.075 7.797-3.224l18.255-18.255c4.298-4.299 4.297-11.294-.001-15.593l-14.861-14.862 7.251-7.251c2.787-2.786 3.877-6.879 2.846-10.682-1.031-3.804-4.04-6.786-7.852-7.783l-30.141-7.885v-52.196c0-4.142-3.358-7.5-7.5-7.5s-7.5 3.358-7.5 7.5v48.272l-20.342-5.322c-3.83-1.002-7.788.071-10.588 2.872-2.799 2.799-3.871 6.757-2.87 10.586l9.044 34.573h-199.741c-4.136 0-7.5-3.364-7.5-7.5v-164.046c0-4.136 3.364-7.5 7.5-7.5h216.998c4.136 0 7.5 3.364 7.5 7.5v48.009c0 4.143 3.358 7.501 7.5 7.501zm33.845 99.646c-.001 0-.001-.001-.001-.001zm-6.704-1.754-5.161 5.161c-2.084 2.082-3.231 4.852-3.231 7.798 0 2.945 1.147 5.715 3.23 7.796l14.862 14.862-12.635 12.635-14.861-14.861c-2.083-2.083-4.852-3.231-7.798-3.231-2.945 0-5.715 1.148-7.796 3.23l-5.162 5.162-13.658-52.211z"/><path d="m206.491 157.481c-9.909 0-17.971 8.062-17.971 17.971v98.492c0 9.91 8.062 17.972 17.971 17.972h99.014c9.909 0 17.971-8.062 17.971-17.972v-98.492c0-9.909-8.062-17.971-17.971-17.971zm34.78 15h29.453v25.102l-9.302-6.007c-3.296-2.127-7.556-2.126-10.851.001l-9.3 6.006zm67.205 2.972v98.492c0 1.639-1.333 2.972-2.971 2.972h-99.014c-1.638 0-2.971-1.333-2.971-2.972v-98.492c0-1.638 1.333-2.971 2.971-2.971h19.781v34.301c0 3.657 1.997 7.016 5.21 8.766 1.496.815 3.142 1.22 4.784 1.22 1.891-.001 3.778-.537 5.426-1.601l14.306-9.238 14.305 9.237c3.079 1.989 6.993 2.135 10.211.381 3.214-1.75 5.21-5.109 5.21-8.766v-34.301h19.781c1.638 0 2.971 1.333 2.971 2.972z"/></g></svg>