<svg id="Capa_1" enable-background="new 0 0 512 512" height="512" viewBox="0 0 512 512" width="512" xmlns="http://www.w3.org/2000/svg"><g><path d="m245.318 152.472c2.553 3.387 6.45 5.329 10.691 5.329s8.139-1.942 10.691-5.329l42.97-56.988c3.078-4.082 3.573-9.459 1.294-14.034-2.28-4.576-6.873-7.418-11.985-7.418h-14.695v-60.642c0-7.383-6.007-13.39-13.391-13.39h-29.768c-7.384 0-13.391 6.007-13.391 13.39v60.642h-14.694c-5.112 0-9.705 2.842-11.985 7.418-2.279 4.575-1.784 9.953 1.294 14.033zm-15.972-63.44c7.383 0 13.39-6.007 13.39-13.39v-60.642h26.549v60.642c0 7.383 6.007 13.39 13.39 13.39h13.075l-39.739 52.705-39.741-52.705z"/><path d="m225.766 481.438c6.902 0 12.519-5.616 12.519-12.519v-31.457c0-6.903-5.616-12.519-12.519-12.519h-78.457c-6.902 0-12.519 5.616-12.519 12.519v31.457c0 6.903 5.616 12.519 12.519 12.519zm-75.976-41.495h73.494v26.494h-73.494z"/><path d="m497.562 131.598c0-4.705-1.833-9.129-5.159-12.455l-10.727-10.728c-3.326-3.327-7.75-5.16-12.455-5.16s-9.129 1.832-12.456 5.159l-38.361 38.361c-2.929 2.929-2.929 7.678 0 10.606 2.93 2.929 7.678 2.929 10.607 0l38.361-38.361c.666-.666 1.444-.766 1.849-.766s1.182.099 1.848.766l10.729 10.729c.666.666.766 1.444.766 1.848s-.1 1.182-.767 1.849l-74.083 74.083h-28.85l26.89-26.89c2.929-2.929 2.929-7.678 0-10.606-2.93-2.929-7.678-2.929-10.607 0l-37.496 37.497h-203.277l-99.139-99.138c-3.327-3.327-7.751-5.159-12.456-5.159s-9.129 1.832-12.455 5.159l-10.726 10.728c-3.327 3.327-5.16 7.75-5.16 12.456 0 4.705 1.833 9.128 5.159 12.455l74.106 74.107v155.692c0 4.142 3.357 7.5 7.5 7.5s7.5-3.358 7.5-7.5v-151.3h91.807v81.161c0 4.728 2.581 9.067 6.735 11.324 1.925 1.046 4.041 1.565 6.153 1.565 2.444 0 4.884-.696 7.012-2.077l35.6-23.089 35.6 23.089c3.965 2.572 9.011 2.769 13.165.511 4.154-2.257 6.735-6.596 6.735-11.324v-25.229c0-4.142-3.357-7.5-7.5-7.5s-7.5 3.358-7.5 7.5v21.341l-33.488-21.72c-4.26-2.762-9.765-2.762-14.024 0l-33.487 21.719v-77.271h81v23.125c0 4.142 3.357 7.5 7.5 7.5s7.5-3.358 7.5-7.5v-23.125h91.807v256.877c0 9.701-7.892 17.593-17.593 17.593h-259.429c-9.701 0-17.593-7.892-17.593-17.593v-72.77c0-4.142-3.357-7.5-7.5-7.5s-7.5 3.358-7.5 7.5v72.77c0 17.972 14.621 32.593 32.593 32.593h259.428c17.972 0 32.593-14.621 32.593-32.593v-261.267l74.086-74.087c3.326-3.327 5.159-7.75 5.159-12.455zm-393.252 75.932-74.107-74.107c-.666-.666-.766-1.444-.766-1.848s.1-1.182.767-1.849l10.727-10.728c.666-.666 1.443-.765 1.848-.765s1.183.099 1.849.766l88.532 88.532h-28.85z"/></g></svg>