<svg id="Capa_1" enable-background="new 0 0 512 512" height="512" viewBox="0 0 512 512" width="512" xmlns="http://www.w3.org/2000/svg"><g><path d="m90.442 91.776 21.197-22.71c1.947-2.087 4.431-3.622 7.184-4.44l146.508-43.529c2.813-.836 5.726-1.184 8.656-1.032l99.706 5.116c4.126.202 7.662-2.969 7.874-7.105s-2.969-7.663-7.106-7.875l-99.705-5.116c-4.639-.237-9.248.312-13.699 1.634l-146.507 43.529c-5.312 1.579-10.111 4.548-13.877 8.584l-30.747 32.942h-47.426c-12.406 0-22.499 10.093-22.499 22.499v160.192c0 12.406 10.093 22.499 22.499 22.499h131.453c4.142 0 7.5-3.357 7.5-7.5 0-4.142-3.358-7.5-7.5-7.5h-131.453c-4.136 0-7.5-3.364-7.5-7.5v-160.191c0-4.135 3.364-7.5 7.5-7.5l166.611.002c-5.798 7.035-9.28 16.021-9.28 25.798 0 6.204 1.408 12.086 3.914 17.356-19.393 5.575-33.469 23.485-33.469 44.441 0 25.5 20.745 46.245 46.245 46.245s46.245-20.745 46.245-46.245c0-7.424-1.749-14.576-5.032-21.001h52.599c4.218 0 8.287 1.726 11.458 4.859 7.954 7.858 18.217 13.805 29.786 17.483v53.151c0 1.379-1.122 2.5-2.5 2.5h-54.181c-4.142 0-7.5 3.357-7.5 7.5s3.358 7.5 7.5 7.5h54.181c9.649 0 17.499-7.85 17.499-17.499v-49.783c4.315.596 8.733.913 13.222.913 6.261 0 12.378-.599 18.244-1.737v76.209c0 4.135-3.364 7.5-7.5 7.5h-183.904c-4.142 0-7.5 3.357-7.5 7.5 0 4.142 3.358 7.5 7.5 7.5h183.905c12.406 0 22.499-10.093 22.499-22.499v-80.511c13.836-5.36 25.325-14.061 32.553-25.214.466-.719 1.194-1.146 1.952-1.146h.016l67.486.531c9.333 0 16.925-7.555 16.925-16.843v-118.029c0-8.969-7.051-16.358-16.054-16.821l-88.773-4.555c-4.127-.227-7.662 2.97-7.874 7.105-.212 4.137 2.969 7.663 7.106 7.875l88.772 4.555c1.023.053 1.824.861 1.824 1.842v118.027c0 1.017-.864 1.844-1.867 1.844l-67.426-.531c-.047 0-.093 0-.14 0-5.863 0-11.288 2.979-14.535 7.989-9.61 14.829-30.496 24.411-53.209 24.411-18.669 0-36.413-6.518-47.465-17.438-5.997-5.924-13.81-9.187-22-9.187h-69.413c-14.386 0-26.09-11.573-26.09-25.797 0-14.225 11.704-25.798 26.09-25.798.129 0 .255-.013.383-.019.128.006.254.019.383.019h118.675c4.142 0 7.5-3.357 7.5-7.5 0-4.142-3.358-7.5-7.5-7.5h-249.919zm129.184 81.56c5.26 5.765 8.142 13.177 8.142 21.034 0 17.229-14.017 31.245-31.246 31.245s-31.246-14.017-31.246-31.245c0-16.241 12.506-29.776 28.595-31.127 6.93 6.032 15.91 9.788 25.755 10.093z"/><path d="m63.966 137.376h54.181c4.142 0 7.5-3.357 7.5-7.5 0-4.142-3.358-7.5-7.5-7.5h-54.181c-9.649 0-17.499 7.85-17.499 17.499v108.986c0 9.649 7.85 17.499 17.499 17.499h54.181c4.142 0 7.5-3.357 7.5-7.5s-3.358-7.5-7.5-7.5h-54.181c-1.378 0-2.5-1.121-2.5-2.5v-108.984c0-1.379 1.121-2.5 2.5-2.5z"/><path d="m506.994 326.76-7.186-7.123c-15.891-15.752-41.652-15.658-57.424.21l-67.424 67.825c-1.402 1.411-3.357 2.22-5.364 2.22h-38.845c.905-3.393 1.392-6.902 1.392-10.464 0-22.495-18.433-40.796-41.089-40.796h-69.413c-4.218 0-8.287-1.725-11.458-4.859-14.002-13.832-35.145-21.765-58.007-21.765-28.091 0-53.303 11.975-65.797 31.252-.466.72-1.194 1.147-1.951 1.147-.005 0-.011 0-.016 0l-67.487-.531c-9.332 0-16.925 7.555-16.925 16.843v118.027c0 8.969 7.051 16.358 16.054 16.821l47.694 2.447c.131.007.261.01.391.01 3.966 0 7.278-3.11 7.483-7.115.212-4.137-2.969-7.663-7.106-7.875l-47.693-2.447c-1.023-.053-1.824-.861-1.824-1.842v-118.026c0-1.017.864-1.844 1.867-1.844l67.426.531c5.917.03 11.402-2.939 14.675-7.989 9.61-14.829 30.497-24.411 53.209-24.411 18.669 0 36.413 6.518 47.465 17.438 5.998 5.924 13.81 9.187 22 9.187h69.413c14.386 0 26.09 11.573 26.09 25.797 0 4.946-1.417 9.75-4.099 13.89-.024.037-.042.076-.066.114-.036.057-.071.114-.105.172-.054.073-.113.141-.164.217-4.867 7.141-12.963 11.405-21.656 11.405h-109.442c-4.142 0-7.5 3.357-7.5 7.5s3.358 7.5 7.5 7.5h109.442c12.555 0 24.313-5.683 32.085-15.333h46.457c5.972 0 11.805-2.422 16.002-6.645l67.423-67.825c9.951-10.009 26.203-10.07 36.228-.132l7.186 7.124c.697.69.719 1.791.05 2.508l-96.15 103.014c-1.947 2.086-4.431 3.621-7.184 4.439l-146.508 43.529c-2.812.836-5.724 1.189-8.656 1.032l-140.785-7.224c-4.124-.226-7.662 2.97-7.874 7.105-.212 4.137 2.969 7.663 7.106 7.875l140.784 7.224c.704.036 1.406.054 2.108.054 3.925 0 7.815-.565 11.591-1.688l146.508-43.529c5.312-1.579 10.111-4.548 13.877-8.585l96.149-103.012c6.237-6.684 6.037-16.961-.457-23.397z"/></g></svg>