<svg id="Capa_1" enable-background="new 0 0 512 512" height="512" viewBox="0 0 512 512" width="512" xmlns="http://www.w3.org/2000/svg"><g><path d="m491.542 230.677-70.131-70.129c-2.929-2.928-7.677-2.928-10.608 0-2.929 2.93-2.929 7.678 0 10.608l70.131 70.129c.638.637.733 1.381.733 1.768 0 .386-.095 1.13-.732 1.767l-34.892 34.89c-.637.637-1.38.732-1.767.732s-1.131-.095-1.769-.732l-112.774-112.775c-.638-.638-.733-1.381-.733-1.768s.095-1.13.734-1.767l34.889-34.89c.974-.975 2.562-.977 3.535 0l19.532 19.532c2.93 2.928 7.678 2.928 10.608 0 2.929-2.93 2.929-7.678 0-10.608l-19.533-19.532c-6.823-6.824-17.925-6.82-24.749 0l-34.888 34.889c-3.307 3.305-5.128 7.701-5.128 12.376s1.821 9.071 5.126 12.376l3.699 3.699-13.421 13.419c-.61.611-1.515.864-2.353.663l-43.259-10.434c-8.513-2.054-17.652.518-23.849 6.712l-6.407 6.407-30.147-5.749c-1.483-.283-2.831-.997-3.9-2.064l-6.634-6.633.019-.019c3.306-3.305 5.127-7.701 5.127-12.376 0-4.674-1.821-9.07-5.127-12.375l-34.889-34.889c-3.306-3.305-7.701-5.125-12.376-5.125-4.674 0-9.069 1.82-12.375 5.125l-68.816 68.814c-2.929 2.93-2.929 7.678 0 10.607s7.678 2.93 10.607.001l68.817-68.814c.637-.638 1.381-.732 1.767-.732.387 0 1.131.095 1.769.732l34.89 34.889c.638.638.732 1.381.732 1.767 0 .387-.095 1.13-.733 1.768l-112.776 112.773c-.637.638-1.381.732-1.768.732s-1.13-.095-1.768-.732l-34.89-34.889c-.638-.637-.733-1.381-.733-1.768s.095-1.131.731-1.768l20.847-20.845c2.93-2.929 2.93-7.678.001-10.607s-7.678-2.93-10.607-.001l-20.848 20.845c-3.305 3.306-5.125 7.701-5.125 12.376s1.82 9.07 5.126 12.376l34.89 34.888c3.305 3.306 7.7 5.126 12.375 5.126 3.755 0 7.319-1.192 10.293-3.367l8.532 8.532c.505.505.936 1.081 1.279 1.712l17.786 32.635c1.406 2.581 3.172 4.942 5.247 7.017l11.041 11.039-1.12 1.12c-5.812 5.812-9.013 13.538-9.013 21.756 0 8.219 3.201 15.945 9.012 21.757l.161.161c5.209 5.208 11.835 8.152 18.649 8.838-3.141 10.496-.577 22.349 7.698 30.625l.162.162c5.999 5.998 13.877 8.997 21.757 8.997 2.984 0 5.969-.432 8.852-1.293.703 7.042 3.783 13.569 8.84 18.626l.161.162c.006.006.011.011.017.017 5.998 5.997 13.878 8.997 21.756 8.997.749 0 1.497-.036 2.244-.09-.622 8.611 2.345 17.437 8.922 24.014l.153.153c5.998 5.992 13.873 8.99 21.749 8.989 7.877 0 15.758-2.999 21.755-8.997l1.121-1.121.455.455c6.144 6.143 14.289 9.237 22.387 9.237 7.641 0 15.241-2.754 21.08-8.299 4.381-4.162 7.379-9.368 8.759-15.084 8.41 6.809 19.94 8.779 30.22 4.959 4.175-1.551 7.897-3.944 11.065-7.111 4.741-4.742 7.615-10.654 8.622-16.814 7.231 3.175 15.571 3.537 23.219.696 4.24-1.576 8.013-4.019 11.211-7.259 8.865-8.983 10.855-22.737 6.061-34.083 2.02-.319 4.015-.841 5.957-1.563 4.242-1.576 8.014-4.02 11.214-7.261 11.677-11.836 11.421-31.955-.559-43.934l-16.813-16.813 3.666-3.666c8.376-8.377 12.163-20.346 10.127-32.014l-4.159-23.852c-.14-.801.12-1.622.694-2.196l10.441-10.44 3.476 3.476c3.306 3.305 7.701 5.125 12.376 5.125s9.07-1.82 12.374-5.125l34.892-34.889c3.305-3.306 5.125-7.701 5.125-12.375.002-4.676-1.819-9.07-5.124-12.376zm-360.155 162.357c-2.978-2.978-4.618-6.937-4.618-11.149 0-4.211 1.641-8.17 4.618-11.148l28.287-28.285c3.071-3.072 7.106-4.609 11.142-4.609 4.042 0 8.087 1.54 11.172 4.624l.145.146c6.146 6.145 6.147 16.143.007 22.29-.002.002-.005.004-.007.007l-23.805 23.804-4.481 4.481c-6.147 6.149-16.151 6.149-22.298 0zm26.671 39.787-.162-.162c-6.148-6.147-6.148-16.149-.001-22.296l34.846-34.844c3.074-3.074 7.111-4.611 11.149-4.611 4.037 0 8.076 1.536 11.149 4.611l.161.161c6.148 6.147 6.148 16.15 0 22.297l-28.286 28.286c-.005.005-.01.011-.016.017l-6.541 6.541c-6.147 6.149-16.15 6.149-22.299 0zm39.634 26.518-.17-.172c-6.148-6.147-6.148-16.149 0-22.296l28.286-28.286c6.146-6.148 16.15-6.149 22.282-.017l.177.179c6.148 6.147 6.148 16.149.001 22.297l-28.287 28.285c-6.142 6.145-16.138 6.149-22.289.01zm33.059 33.056c-.006-.005-.011-.011-.017-.016l-.145-.145c-6.148-6.147-6.148-16.15-.001-22.297l28.287-28.286c2.978-2.978 6.937-4.618 11.149-4.618s8.171 1.641 11.149 4.619l.162.161c2.978 2.978 4.618 6.937 4.618 11.149 0 4.211-1.641 8.17-4.618 11.148l-28.287 28.285c-6.146 6.15-16.15 6.148-22.297 0zm67.618.002c-6.182 5.872-16.289 5.573-22.53-.667l-.455-.455 16.557-16.557c2.025-2.025 3.724-4.286 5.091-6.715l1.639 1.639c.002.002.004.003.005.005 3.051 3.053 4.701 7.112 4.646 11.43-.055 4.319-1.815 8.34-4.953 11.32zm115.493-105.967c6.268 6.268 6.492 16.705.487 22.79-5.014 5.082-13.004 6.116-18.482 1.049l-41.251-38.165c-2.93-2.928-7.678-2.928-10.608 0-2.929 2.93-2.929 7.678 0 10.608l46.624 46.623c6.269 6.269 6.493 16.706.486 22.791-1.648 1.671-3.586 2.927-5.758 3.735-5.813 2.158-12.398.724-16.778-3.658l-47.034-47.033c-2.93-2.928-7.678-2.928-10.608 0-2.929 2.93-2.929 7.678 0 10.608l37.195 37.194c6.193 6.192 6.193 16.268 0 22.459-1.631 1.632-3.543 2.862-5.682 3.657-5.81 2.158-12.395.725-16.778-3.657l-24.818-24.818c-.55-7.333-3.662-14.154-8.915-19.408l-.161-.16c-5.812-5.812-13.538-9.013-21.757-9.013-.751 0-1.497.036-2.239.089.62-8.601-2.34-17.411-8.894-23.965l-.178-.179c-6.568-6.566-15.39-9.53-23.998-8.906.624-8.609-2.34-17.431-8.907-23.999l-.162-.161c-6.568-6.567-15.391-9.53-24-8.906.622-8.611-2.345-17.438-8.922-24.015l-.145-.145c-11.997-11.995-31.515-11.998-43.512 0l-16.558 16.557-11.041-11.041c-1.061-1.06-1.962-2.265-2.68-3.584l-17.788-32.639c-1.029-1.889-2.324-3.62-3.846-5.141l-8.367-8.367 93.461-93.46 6.633 6.633c3.19 3.19 7.265 5.348 11.697 6.193l20.133 3.839-15.226 15.225c-3.798 3.798-6.259 8.809-6.577 14.171-.369 6.207 1.879 12.104 6.233 16.458 18.021 18.021 47.345 18.021 65.368 0l6.805-6.806 33.401 33.399c1.464 1.464 3.383 2.196 5.303 2.196 1.919 0 3.839-.733 5.304-2.197 2.929-2.929 2.929-7.678-.001-10.607l-38.704-38.702c-2.928-2.928-7.677-2.928-10.607 0l-12.11 12.109c-12.069 12.065-31.637 12.173-43.833.316-1.192-1.159-2.047-2.667-2.178-4.324-.151-1.907.523-3.725 1.856-5.059l34.806-34.804c2.525-2.527 6.249-3.575 9.723-2.738l43.26 10.434c5.878 1.419 12.197-.359 16.477-4.638l13.421-13.421 84.387 84.384-10.44 10.439c-4.025 4.026-5.843 9.776-4.866 15.382l4.159 23.852c1.197 6.863-1.029 13.902-5.957 18.829l-3.666 3.667-52.614-52.614c-2.93-2.928-7.678-2.928-10.608 0-2.929 2.93-2.929 7.678 0 10.608z"/><path d="m256.314 162.676c44.851 0 81.34-36.487 81.34-81.337s-36.489-81.339-81.34-81.339-81.34 36.488-81.34 81.339c-.001 44.85 36.488 81.337 81.34 81.337zm0-147.675c36.58 0 66.34 29.758 66.34 66.338 0 36.578-29.76 66.337-66.34 66.337s-66.34-29.758-66.34-66.337c0-36.58 29.759-66.338 66.34-66.338z"/><path d="m239.511 107.38c3.351 2.227 6.056 3.42 8.931 4.041.025 4.095 3.334 7.423 7.441 7.453h.056c4.116 0 7.469-3.323 7.499-7.446l.006-.781c6.531-2.535 11.503-8.312 12.778-15.57 1.634-9.305-3.342-17.753-12.382-21.023-3.846-1.391-8.551-3.223-10.978-5.103-.113-.29-.17-1.079.176-1.932.229-.564.682-1.29 1.543-1.542 3.605-1.058 5.918.6 6.31.909l.979.908c3.037 2.816 7.784 2.637 10.599-.401 2.816-3.037 2.637-7.783-.401-10.599l-1.045-.969c-1.45-1.357-3.938-2.98-7.151-4.047-.014-4.106-3.327-7.444-7.441-7.476-.02 0-.038 0-.057 0-4.116 0-7.469 3.321-7.499 7.445l-.003.356c-5.5 2.183-9.56 7.109-10.754 13.201-1.211 6.18.82 12.236 5.301 15.803 4.068 3.238 9.766 5.543 15.318 7.552.807.292 3.261 1.18 2.709 4.322-.298 1.696-1.78 4.565-5.451 4.565-.001 0-.003 0-.005 0-4.25-.002-5.153-.149-8.177-2.159-3.448-2.292-8.105-1.355-10.398 2.095-2.292 3.449-1.355 8.105 2.096 10.398zm21.281-41.084s.002.002.007.006l.075.07c-.053-.047-.083-.076-.082-.076z"/></g></svg>