<svg id="Capa_1" enable-background="new 0 0 512 512" height="512" viewBox="0 0 512 512" width="512" xmlns="http://www.w3.org/2000/svg"><g><path d="m67.102 340.663c2.78 2.781 6.477 4.312 10.41 4.312 3.932 0 7.629-1.531 10.409-4.311l183.751-183.751 13.936 13.936c3.973 3.974 9.751 5.333 15.082 3.551 5.329-1.783 9.125-6.35 9.905-11.914l12.152-86.648c.647-4.618-.873-9.157-4.171-12.454-3.298-3.296-7.831-4.814-12.453-4.168l-86.646 12.151c-5.565.78-10.131 4.575-11.915 9.904-1.785 5.329-.424 11.109 3.55 15.084l13.938 13.937-183.75 183.75c-2.781 2.78-4.312 6.477-4.312 10.409 0 3.933 1.531 7.629 4.312 10.409zm168.752-219.962c0-.001 0-.001 0 0 5.739-5.74 5.739-15.079 0-20.819l-13.738-13.737 85.726-12.022-12.023 85.725-13.737-13.738c-5.738-5.736-15.075-5.739-20.819 0l-183.751 183.749-25.408-25.408z"/><path d="m484.213 441.182h-9.2v-172.489c0-4.143-3.357-7.5-7.5-7.5s-7.5 3.357-7.5 7.5v172.488h-54.317v-274.681c8.463 3.151 17.611 4.881 27.158 4.881s18.696-1.73 27.159-4.881v69.507c0 4.143 3.357 7.5 7.5 7.5s7.5-3.357 7.5-7.5v-77.041c21.579-13.905 35.909-38.13 35.909-65.654 0-43.047-35.022-78.068-78.068-78.068s-78.068 35.021-78.068 78.068c0 27.524 14.331 51.749 35.91 65.654v282.215h-33.586v-188.592c0-9.649-7.851-17.5-17.5-17.5h-49.316c-9.649 0-17.5 7.851-17.5 17.5v188.593h-33.586v-41.316c0-4.143-3.358-7.5-7.5-7.5s-7.5 3.357-7.5 7.5v41.316h-54.318v-100.816c0-1.379 1.122-2.5 2.5-2.5h49.317c1.378 0 2.5 1.121 2.5 2.5v26.813c0 4.143 3.358 7.5 7.5 7.5s7.5-3.357 7.5-7.5v-26.813c0-9.649-7.851-17.5-17.5-17.5h-49.317c-9.649 0-17.5 7.851-17.5 17.5v100.815h-33.585v-58.593c0-9.649-7.851-17.5-17.5-17.5h-49.317c-9.649 0-17.5 7.851-17.5 17.5v58.593h-9.201c-15.322.001-27.787 12.466-27.787 27.788s12.465 27.787 27.787 27.787h351.869c4.142 0 7.5-3.357 7.5-7.5s-3.358-7.5-7.5-7.5h-351.869c-7.051 0-12.787-5.736-12.787-12.787s5.736-12.787 12.787-12.787h456.426c7.051 0 12.787 5.736 12.787 12.787s-5.736 12.787-12.787 12.787h-71.87c-4.143 0-7.5 3.357-7.5 7.5s3.357 7.5 7.5 7.5h71.87c15.322 0 27.787-12.465 27.787-27.787s-12.465-27.787-27.787-27.787zm-114.428-347.87c0-34.776 28.292-63.068 63.068-63.068s63.068 28.292 63.068 63.068-28.292 63.068-63.068 63.068-63.068-28.291-63.068-63.068zm-81.992 159.277c0-1.379 1.121-2.5 2.5-2.5h49.316c1.379 0 2.5 1.121 2.5 2.5v188.593h-54.316zm-235.805 130c0-1.379 1.122-2.5 2.5-2.5h49.317c1.378 0 2.5 1.121 2.5 2.5v58.593h-54.317z"/><path d="m439.832 135.083.022-3.095c9.898-2.944 16.278-11.561 17.776-20.098 2.016-11.479-4.139-21.908-15.316-25.951-5.973-2.16-12.57-4.76-16.21-7.658-.927-.737-1.314-2.583-.94-4.487.195-.996 1.094-4.322 4.463-5.311 6.538-1.914 10.743 1.233 11.452 1.82.019.016.034.029.048.041l1.058.962c3.062 2.788 7.807 2.567 10.595-.497 2.788-3.062 2.566-7.807-.497-10.595l-1.036-.943c-2.093-1.942-5.889-4.306-10.823-5.541l.015-2.079c.029-4.142-3.304-7.523-7.446-7.554-.018 0-.036 0-.055 0-4.117 0-7.469 3.322-7.499 7.446l-.018 2.542c-.005.001-.01.002-.015.004-7.634 2.239-13.366 8.684-14.961 16.819-1.472 7.513.949 14.834 6.317 19.107 5.322 4.237 12.975 7.324 20.451 10.028 5.946 2.151 6.089 6.72 5.644 9.252-.74 4.217-4.323 8.753-10.443 8.753-.002 0-.006 0-.008 0-6.365-.004-8.183-.306-12.972-3.488-3.448-2.292-8.104-1.354-10.397 2.095s-1.355 8.105 2.095 10.397c5.202 3.458 9.106 4.967 13.718 5.591l-.017 2.332c-.029 4.142 3.304 7.523 7.446 7.554h.055c4.116 0 7.468-3.322 7.498-7.446z"/></g></svg>