<svg id="Capa_1" enable-background="new 0 0 512 512" height="512" viewBox="0 0 512 512" width="512" xmlns="http://www.w3.org/2000/svg"><g><path d="m472.3 404.862-63.508-63.508c20.193-36.821 19.023-82.322-3.513-118.135v-139.514c0-18.822-15.312-34.135-34.135-34.135h-64.572c-3.958-6.381-11.024-10.642-19.07-10.642h-23.95c-3.62-22.343-22.947-38.928-45.826-38.928-22.877 0-42.203 16.587-45.825 38.929h-23.95c-8.046 0-15.112 4.261-19.07 10.642h-64.572c-18.822 0-34.135 15.312-34.135 34.135v46.916c0 4.143 3.357 7.5 7.5 7.5s7.5-3.357 7.5-7.5v-46.917c0-10.551 8.584-19.135 19.135-19.135h61.215v24.89h-33.986c-12.889 0-23.374 10.485-23.374 23.374v335.901c0 12.889 10.485 23.374 23.374 23.374h174.82c4.143 0 7.5-3.357 7.5-7.5s-3.357-7.5-7.5-7.5h-174.82c-4.617 0-8.374-3.757-8.374-8.374v-335.901c0-4.617 3.757-8.374 8.374-8.374h38.71c4.107 5.278 10.513 8.684 17.703 8.684h139.552c7.19 0 13.597-3.405 17.703-8.684h38.71c4.617 0 8.374 3.757 8.374 8.374v65.237c-42.448-18.009-93.482-9.744-128.039 24.81-45.431 45.433-45.431 119.356 0 164.789 22.717 22.715 52.556 34.073 82.394 34.073 15.552 0 31.101-3.093 45.645-9.263v56.255c0 4.617-3.757 8.374-8.374 8.374h-44.871c-4.143 0-7.5 3.357-7.5 7.5s3.357 7.5 7.5 7.5h44.871c12.889 0 23.374-10.485 23.374-23.374v-56.747l23.056 23.055c-.039.312-.067.627-.067.95v61.872c0 10.551-8.584 19.135-19.135 19.135h-306.835c-10.551 0-19.135-8.584-19.135-19.135v-314.557c0-4.143-3.357-7.5-7.5-7.5s-7.5 3.357-7.5 7.5v314.558c0 18.822 15.312 34.135 34.135 34.135h306.835c18.822 0 34.135-15.312 34.135-34.135v-47.889l20.953 20.953c6.152 6.153 14.333 9.542 23.034 9.542 8.7 0 16.881-3.389 23.034-9.541 12.701-12.703 12.701-33.367 0-46.069zm-177.371-314.145c0 4.095-3.332 7.427-7.427 7.427h-139.551c-4.095 0-7.427-3.332-7.427-7.427v-29.362c0-4.095 3.332-7.427 7.427-7.427h26.156c6.342 0 11.672-4.781 12.396-11.122 1.815-15.852 15.238-27.806 31.223-27.806s29.409 11.954 31.224 27.807c.725 6.341 6.055 11.122 12.396 11.122h26.156c4.095 0 7.427 3.332 7.427 7.427zm48.987-1.257h-33.986v-24.89h61.215c10.551 0 19.135 8.584 19.135 19.135v120.447c-.412-.425-.82-.852-1.239-1.271-6.691-6.691-14.005-12.388-21.75-17.108v-72.939c-.001-12.889-10.487-23.374-23.375-23.374zm-109.058 267.604c-39.583-39.584-39.583-103.992-.001-143.575 19.792-19.792 45.79-29.688 71.788-29.688s51.996 9.896 71.787 29.687c39.583 39.584 39.583 103.992.001 143.575-39.585 39.584-103.992 39.582-143.575.001zm226.834 83.259c-3.319 3.319-7.732 5.147-12.427 5.147-4.693 0-9.106-1.828-12.426-5.148l-61.163-61.163c4.67-3.438 9.14-7.267 13.364-11.49 4.223-4.223 8.052-8.694 11.49-13.363l61.163 61.163c3.319 3.319 5.147 7.732 5.147 12.426 0 4.695-1.828 9.108-5.148 12.428z"/><path d="m363.805 228.115c-31.52-31.518-82.801-31.518-114.32 0-31.518 31.519-31.518 82.802 0 114.32 1.339 1.338 2.733 2.64 4.146 3.869 3.123 2.72 7.861 2.391 10.581-.735 2.719-3.124 2.39-7.861-.735-10.581-1.152-1.003-2.291-2.065-3.385-3.16-25.67-25.669-25.67-67.436 0-93.105 25.668-25.67 67.438-25.67 93.105 0 25.67 25.669 25.67 67.437 0 93.106-16.631 16.631-41.089 23.142-63.814 16.993-4-1.082-8.117 1.282-9.199 5.28-1.081 3.999 1.283 8.117 5.281 9.199 6.95 1.88 14.028 2.796 21.06 2.795 21.198-.001 41.947-8.328 57.28-23.661 31.518-31.518 31.518-82.801 0-114.32z"/><path d="m296.017 315.926c3.2 0 6.402-1.219 8.839-3.654l38.781-38.781c2.929-2.93 2.929-7.678 0-10.607-2.93-2.928-7.678-2.928-10.607 0l-37.014 37.014-15.756-15.758c-2.93-2.928-7.678-2.928-10.607 0-2.929 2.93-2.929 7.678 0 10.608l17.526 17.525c2.437 2.435 5.637 3.653 8.838 3.653z"/><path d="m115.634 219.439h61.244c4.143 0 7.5-3.357 7.5-7.5s-3.357-7.5-7.5-7.5h-61.244c-4.143 0-7.5 3.357-7.5 7.5 0 4.142 3.358 7.5 7.5 7.5z"/><path d="m115.634 150.593h126.164c4.143 0 7.5-3.357 7.5-7.5s-3.357-7.5-7.5-7.5h-126.164c-4.143 0-7.5 3.357-7.5 7.5 0 4.142 3.358 7.5 7.5 7.5z"/><path d="m115.634 425.978h126.164c4.143 0 7.5-3.357 7.5-7.5s-3.357-7.5-7.5-7.5h-126.164c-4.143 0-7.5 3.357-7.5 7.5 0 4.142 3.358 7.5 7.5 7.5z"/><path d="m115.634 357.132h61.244c4.143 0 7.5-3.357 7.5-7.5s-3.357-7.5-7.5-7.5h-61.244c-4.143 0-7.5 3.357-7.5 7.5 0 4.142 3.358 7.5 7.5 7.5z"/><path d="m115.634 288.285h38.099c4.143 0 7.5-3.357 7.5-7.5s-3.357-7.5-7.5-7.5h-38.099c-4.143 0-7.5 3.357-7.5 7.5s3.358 7.5 7.5 7.5z"/><path d="m217.727 30.202c-4.862 0-8.804 3.942-8.804 8.804 0 4.862 3.942 8.804 8.804 8.804s8.804-3.942 8.804-8.804c0-4.862-3.942-8.804-8.804-8.804z"/></g></svg>