<svg id="Capa_1" enable-background="new 0 0 512 512" height="512" viewBox="0 0 512 512" width="512" xmlns="http://www.w3.org/2000/svg"><g><path d="m130.577 107.931c0-27.04-21.999-49.038-49.039-49.038s-49.039 21.998-49.039 49.038 21.999 49.039 49.039 49.039 49.039-21.999 49.039-49.039zm-83.078 0c0-18.769 15.27-34.038 34.039-34.038s34.039 15.27 34.039 34.038c0 18.77-15.27 34.039-34.039 34.039s-34.039-15.269-34.039-34.039z"/><path d="m184.215 86.578h108.804c4.142 0 7.5-3.357 7.5-7.5s-3.358-7.5-7.5-7.5h-108.804c-4.142 0-7.5 3.357-7.5 7.5 0 4.142 3.358 7.5 7.5 7.5z"/><path d="m376.978 130.631c0-4.143-3.358-7.5-7.5-7.5h-185.263c-4.142 0-7.5 3.357-7.5 7.5s3.358 7.5 7.5 7.5h185.263c4.142 0 7.5-3.357 7.5-7.5z"/><path d="m201.379 485.607c4.142 0 7.5-3.358 7.5-7.5 0-4.143-3.358-7.5-7.5-7.5h-72.801c20.851-14.784 34.498-39.09 34.498-66.538s-13.647-51.754-34.498-66.538h301.883c23.28 0 43.793 12.027 55.687 30.184h-147.784c-4.142 0-7.5 3.358-7.5 7.5 0 4.143 3.358 7.5 7.5 7.5h155.101c2.28 6.708 3.535 13.885 3.535 21.354 0 5.23-.626 10.315-1.772 15.2h-66.262c-4.142 0-7.5 3.357-7.5 7.5s3.358 7.5 7.5 7.5h60.756c-11.025 21.546-33.44 36.338-59.259 36.338h-196.397c-4.142 0-7.5 3.357-7.5 7.5 0 4.142 3.358 7.5 7.5 7.5h196.396c44.961 0 81.538-36.578 81.538-81.538 0-32.771-19.444-61.07-47.392-74.016 8.885-4.101 17.049-9.805 24.091-16.991 15.026-15.331 23.301-35.6 23.301-57.069 0-21.233-8.118-41.34-22.86-56.615-7.126-7.384-15.44-13.249-24.514-17.438 27.939-12.95 47.374-41.245 47.374-74.009 0-44.96-36.578-81.538-81.538-81.538h-348.924c-44.96 0-81.538 36.578-81.538 81.538 0 32.784 19.459 61.092 47.424 74.031-27.965 12.939-47.424 41.247-47.424 74.031 0 32.79 19.466 61.103 47.44 74.038-27.974 12.935-47.44 41.248-47.44 74.038 0 44.96 36.578 81.538 81.538 81.538zm-186.379-377.676c0-36.689 29.849-66.538 66.538-66.538s66.538 29.849 66.538 66.538c0 36.593-29.693 66.374-66.249 66.531-.097 0-.192-.007-.289-.007s-.192.007-.289.007c-36.556-.157-66.249-29.938-66.249-66.531zm0 148.062c0-36.593 29.693-66.374 66.249-66.531.097 0 .192.007.289.007s.192-.007.289-.007c36.557.157 66.249 29.938 66.249 66.531 0 36.689-29.849 66.538-66.538 66.538s-66.538-29.849-66.538-66.538zm133.076 148.076c0 36.689-29.849 66.538-66.538 66.538s-66.538-29.849-66.538-66.538 29.849-66.538 66.538-66.538 66.538 29.848 66.538 66.538zm-19.498-81.538c20.851-14.784 34.498-39.09 34.498-66.538 0-27.439-13.638-51.738-34.477-66.523h193.421c4.142 0 7.5-3.357 7.5-7.5s-3.358-7.5-7.5-7.5h-193.442c20.851-14.784 34.498-39.09 34.498-66.538s-13.647-51.754-34.498-66.538h301.883c23.28 0 43.793 12.027 55.687 30.185h-147.784c-4.142 0-7.5 3.357-7.5 7.5s3.358 7.5 7.5 7.5h155.101c2.28 6.708 3.535 13.885 3.535 21.354 0 5.23-.626 10.314-1.772 15.2h-66.262c-4.142 0-7.5 3.357-7.5 7.5s3.358 7.5 7.5 7.5h60.756c-11.025 21.546-33.44 36.338-59.259 36.338h-75.755c-4.142 0-7.5 3.357-7.5 7.5s3.358 7.5 7.5 7.5l78.318.033c22.469.85 41.887 12.627 53.262 30.137h-147.924c-4.142 0-7.5 3.357-7.5 7.5s3.358 7.5 7.5 7.5h155.154c2.25 6.702 3.482 13.879 3.482 21.354 0 5.18-.605 10.27-1.754 15.2h-66.281c-4.142 0-7.5 3.357-7.5 7.5s3.358 7.5 7.5 7.5h60.8c-3.037 5.95-6.979 11.472-11.78 16.37-12.244 12.493-28.605 19.579-46.069 19.953z"/><path d="m81.538 206.955c-5.847 0-11.57 1.021-17.013 3.033-3.885 1.437-5.87 5.751-4.433 9.636 1.436 3.885 5.75 5.869 9.636 4.433 3.771-1.395 7.745-2.102 11.81-2.102 18.769 0 34.039 15.27 34.039 34.038 0 18.77-15.27 34.039-34.039 34.039s-34.039-15.27-34.039-34.039c0-4.692.935-9.233 2.779-13.496 1.644-3.802-.104-8.217-3.906-9.861-3.804-1.646-8.217.105-9.861 3.906-2.662 6.154-4.011 12.698-4.011 19.451 0 27.04 21.999 49.039 49.039 49.039s49.039-21.999 49.039-49.039-22-49.038-49.04-49.038z"/><path d="m184.215 234.639h108.804c4.142 0 7.5-3.357 7.5-7.5s-3.358-7.5-7.5-7.5h-108.804c-4.142 0-7.5 3.357-7.5 7.5s3.358 7.5 7.5 7.5z"/><path d="m369.478 271.193h-185.263c-4.142 0-7.5 3.357-7.5 7.5s3.358 7.5 7.5 7.5h185.263c4.142 0 7.5-3.357 7.5-7.5s-3.358-7.5-7.5-7.5z"/><path d="m81.538 355.031c-27.04 0-49.039 21.998-49.039 49.038s21.999 49.039 49.039 49.039 49.039-21.999 49.039-49.039-21.999-49.038-49.039-49.038zm0 83.077c-18.769 0-34.039-15.27-34.039-34.039s15.27-34.038 34.039-34.038 34.039 15.27 34.039 34.038c0 18.769-15.27 34.039-34.039 34.039z"/><path d="m184.215 382.715h108.804c4.142 0 7.5-3.357 7.5-7.5 0-4.142-3.358-7.5-7.5-7.5h-108.804c-4.142 0-7.5 3.358-7.5 7.5 0 4.143 3.358 7.5 7.5 7.5z"/><path d="m184.215 434.269h185.263c4.142 0 7.5-3.357 7.5-7.5s-3.358-7.5-7.5-7.5h-185.263c-4.142 0-7.5 3.357-7.5 7.5s3.358 7.5 7.5 7.5z"/></g></svg>