<svg id="Capa_1" enable-background="new 0 0 512 512" height="512" viewBox="0 0 512 512" width="512" xmlns="http://www.w3.org/2000/svg"><g><path d="m76.979 426.467h-54.479c-4.135 0-7.5-3.364-7.5-7.5v-392.997c0-4.136 3.365-7.5 7.5-7.5h135.139v105.287c0 5.21 2.844 9.991 7.421 12.479 4.578 2.489 10.137 2.272 14.508-.563l45.279-29.367 45.28 29.367c2.346 1.521 5.033 2.289 7.727 2.289 2.327 0 4.66-.572 6.781-1.726 4.578-2.487 7.422-7.269 7.422-12.479v-105.287h135.139c4.136 0 7.5 3.364 7.5 7.5v94.381c0 4.143 3.358 7.5 7.5 7.5s7.5-3.357 7.5-7.5v-94.381c0-12.406-10.093-22.5-22.5-22.5h-404.696c-12.407 0-22.5 10.094-22.5 22.5v392.997c0 12.406 10.093 22.5 22.5 22.5h54.479c4.142 0 7.5-3.357 7.5-7.5s-3.358-7.5-7.5-7.5zm200.078-304.179-44.482-28.851c-4.694-3.042-10.761-3.043-15.455.001l-44.481 28.85v-103.818h104.418z"/><path d="m65.404 326.544c-6.893 0-12.5 5.607-12.5 12.5v41.617c0 6.893 5.607 12.5 12.5 12.5h100.083c6.893 0 12.5-5.607 12.5-12.5v-41.617c0-6.893-5.607-12.5-12.5-12.5zm97.583 51.617h-95.083v-36.617h95.083z"/><path d="m449.585 242.625c.068-.405.111-.818.111-1.242v-88.346c0-4.143-3.358-7.5-7.5-7.5s-7.5 3.357-7.5 7.5v80.414c-20.534-11.016-43.985-17.274-68.873-17.274-14.819 0-29.443 2.211-43.466 6.573-3.955 1.23-6.164 5.434-4.934 9.389s5.435 6.169 9.389 4.934c12.579-3.912 25.704-5.895 39.011-5.895 72.331 0 131.177 58.846 131.177 131.177s-58.846 131.177-131.177 131.177-131.177-58.846-131.177-131.177c0-23.083 6.077-45.778 17.573-65.632 11.16-19.273 27.159-35.515 46.267-46.968 3.553-2.129 4.707-6.735 2.577-10.288s-6.736-4.707-10.289-2.577c-21.284 12.757-39.105 30.848-51.536 52.316-12.817 22.136-19.592 47.43-19.592 73.148 0 22.985 5.34 44.744 14.833 64.113h-124.814c-4.142 0-7.5 3.357-7.5 7.5s3.358 7.5 7.5 7.5h133.294c26.052 40.319 71.392 67.064 122.864 67.064 80.602-.001 146.177-65.575 146.177-146.178 0-49.466-24.703-93.266-62.415-119.728z"/><path d="m369.72 268.782c-32.882 0-62.854 17.267-79.639 44.469l-2.247-7.433c-1.2-3.965-5.386-6.208-9.35-5.008-3.965 1.198-6.207 5.385-5.008 9.35l7.833 25.905c.98 3.241 3.956 5.331 7.176 5.331.719 0 1.45-.105 2.173-.323l25.906-7.832c3.965-1.198 6.208-5.384 5.009-9.35-1.198-3.965-5.385-6.207-9.35-5.008l-9.828 2.971c14.003-23.265 39.418-38.073 67.326-38.073 33.398 0 63.214 21.178 74.192 52.697 1.078 3.096 3.979 5.035 7.082 5.035.818 0 1.651-.135 2.467-.419 3.912-1.362 5.978-5.639 4.616-9.55-13.076-37.539-48.583-62.762-88.358-62.762z"/><path d="m361.93 440.921c-33.398 0-63.214-21.178-74.192-52.697-1.363-3.913-5.639-5.979-9.549-4.616-3.912 1.362-5.978 5.639-4.616 9.55 13.075 37.541 48.583 62.764 88.357 62.764 32.882 0 62.854-17.266 79.639-44.469l2.247 7.434c.98 3.241 3.957 5.331 7.176 5.331.719 0 1.45-.104 2.173-.323 3.965-1.198 6.207-5.385 5.009-9.35l-7.832-25.906c-1.199-3.965-5.386-6.206-9.35-5.008l-25.906 7.832c-3.965 1.198-6.208 5.384-5.009 9.349 1.199 3.966 5.387 6.208 9.35 5.009l9.829-2.971c-14.004 23.263-39.419 38.071-67.326 38.071z"/></g></svg>