<svg id="Capa_1" enable-background="new 0 0 512 512" height="512" viewBox="0 0 512 512" width="512" xmlns="http://www.w3.org/2000/svg"><g><path d="m479.961 459.425h-14.023v-219.252c0-.369-.035-.728-.087-1.082 7.568-8.816 12.157-20.26 12.157-32.762v-24.072h1.954c14.489 0 26.276-11.787 26.276-26.299 0-14.489-11.787-26.276-26.276-26.276h-78.945c-4.142 0-7.5 3.358-7.5 7.5s3.358 7.5 7.5 7.5h78.945c6.218 0 11.276 5.059 11.276 11.299 0 6.217-5.058 11.276-11.276 11.276h-447.923c-6.218 0-11.276-5.059-11.276-11.299 0-6.218 5.058-11.276 11.276-11.276h336.291c4.142 0 7.5-3.358 7.5-7.5s-3.358-7.5-7.5-7.5h-45.826v-31.633h76.744c12.407 0 22.5-10.093 22.5-22.5v-53.049c0-12.407-10.093-22.5-22.5-22.5h-233.632c-4.142 0-7.5 3.358-7.5 7.5s3.358 7.5 7.5 7.5h233.631c4.136 0 7.5 3.364 7.5 7.5v53.049c0 4.136-3.364 7.5-7.5 7.5h-286.495c-4.136 0-7.5-3.364-7.5-7.5v-53.049c0-4.136 3.364-7.5 7.5-7.5h20.177c4.142 0 7.5-3.358 7.5-7.5s-3.358-7.5-7.5-7.5h-20.177c-12.407 0-22.5 10.093-22.5 22.5v53.049c0 12.407 10.093 22.5 22.5 22.5h76.744v31.632h-157.457c-14.489 0-26.276 11.788-26.276 26.299 0 14.489 11.787 26.276 26.276 26.276h1.89v26.428c0 .135.003.27.011.406.631 11.658 5.201 22.211 12.379 30.404-.161.612-.256 1.251-.256 1.914v122.048c0 4.142 3.358 7.5 7.5 7.5s7.5-3.358 7.5-7.5v-112.399c6.962 3.611 14.867 5.647 23.231 5.647 18.101 0 33.997-9.601 42.879-23.973 8.896 14.423 24.844 23.973 42.956 23.973 18.101 0 33.997-9.601 42.879-23.973 8.896 14.423 24.844 23.973 42.956 23.973 18.101 0 33.997-9.601 42.879-23.973 8.896 14.423 24.844 23.973 42.956 23.973 18.101 0 33.997-9.601 42.879-23.973 8.896 14.423 24.844 23.973 42.956 23.973 8.406 0 16.331-2.081 23.305-5.737v208.458h-36.571v-171.984c0-9.649-7.851-17.5-17.5-17.5h-74.879c-9.649 0-17.5 7.851-17.5 17.5v171.983h-243.427v-63.283c0-4.142-3.358-7.5-7.5-7.5s-7.5 3.358-7.5 7.5v63.283h-14.023c-14.489 0-26.276 11.787-26.276 26.299 0 14.49 11.787 26.277 26.276 26.277h447.923c14.489 0 26.276-11.787 26.276-26.299-.001-14.489-11.788-26.276-26.277-26.276zm-275.465-361.376h103.008v31.632h-103.008zm-120.256 143.655c-18.728 0-34.201-14.58-35.311-33.231v-26.215h70.74v24.072c-.001 19.505-15.87 35.374-35.429 35.374zm85.835 0c-18.69 0-34.094-14.921-35.323-33.425-.571-8.606-.084-17.389-.084-26.022h70.835v24.072c0 19.506-15.869 35.375-35.428 35.375zm85.835 0c-19.248 0-35.407-16.11-35.407-35.375v-24.072h70.835v24.072c0 19.506-15.869 35.375-35.428 35.375zm85.835 0c-19.248 0-35.407-16.11-35.407-35.375v-24.072h70.835v24.072c0 19.506-15.869 35.375-35.428 35.375zm85.835 0c-19.248 0-35.407-16.11-35.407-35.375v-24.072h70.835v24.072c0 19.506-15.869 35.375-35.428 35.375zm-108.092 45.737c0-1.378 1.122-2.5 2.5-2.5h74.879c1.378 0 2.5 1.122 2.5 2.5v171.983h-79.879zm160.473 209.559h-447.922c-6.218 0-11.276-5.059-11.276-11.299 0-6.217 5.058-11.276 11.276-11.276h447.923c6.218 0 11.276 5.059 11.276 11.299-.001 6.217-5.059 11.276-11.277 11.276z"/><path d="m240.944 436.165c9.65 0 17.5-7.851 17.5-17.5v-131.224c0-9.649-7.85-17.5-17.5-17.5h-135.637c-9.649 0-17.5 7.851-17.5 17.5v131.223c0 9.649 7.851 17.5 17.5 17.5h135.637zm0-15h-60.319v-60.611h62.819v58.111c0 1.378-1.122 2.5-2.5 2.5zm2.5-133.724v58.112h-62.819v-60.612h60.319c1.378 0 2.5 1.122 2.5 2.5zm-138.137-2.5h60.318v60.612h-62.818v-58.112c0-1.378 1.121-2.5 2.5-2.5zm-2.5 133.724v-58.111h62.818v60.611h-60.318c-1.379 0-2.5-1.122-2.5-2.5z"/><path d="m156.502 56.525c.095 0 .19-.001.286-.005 5.123-.191 140.107-.08 210.765.005h.009c4.138 0 7.495-3.352 7.5-7.491.005-4.142-3.349-7.504-7.491-7.509-8.353-.011-204.655-.246-211.345.005-4.139.155-7.369 3.636-7.214 7.775.152 4.045 3.477 7.22 7.49 7.22z"/><path d="m339.68 384.188c-4.142 0-7.5 3.358-7.5 7.5 0 4.142 3.358 7.5 7.5 7.5s7.5-3.358 7.5-7.5c0-4.142-3.358-7.5-7.5-7.5z"/></g></svg>