<svg id="Capa_1" enable-background="new 0 0 512 512" height="512" viewBox="0 0 512 512" width="512" xmlns="http://www.w3.org/2000/svg"><g><path d="m89.652 221.307h16.84c.067 7.766 1.852 15.202 5.33 22.105 1.865 3.7 6.372 5.187 10.073 3.323 3.699-1.864 5.187-6.374 3.323-10.072-2.482-4.924-3.739-10.241-3.739-15.804 0-19.401 15.784-35.185 35.185-35.185 19.4 0 35.185 15.784 35.185 35.185s-15.784 35.185-35.185 35.185c-3.754 0-7.445-.586-10.972-1.742-3.938-1.292-8.173.855-9.463 4.791s.855 8.173 4.791 9.463c5.036 1.651 10.3 2.488 15.643 2.488 27.521 0 49.931-22.271 50.173-49.737h106.21c.176 0 .349-.014.522-.026.173.012.346.026.522.026h15.367c.243 27.466 22.652 49.737 50.173 49.737 27.522 0 49.931-22.271 50.174-49.737h14.197c11.263 0 20.425-9.045 20.425-20.163v-57.105c0-8.459-5.413-16.078-13.469-18.958l-22.061-7.888c-.659-.235-1.151-.744-1.327-1.366l-14.993-67.108c-.014-.06-.027-.12-.042-.18-2.683-10.752-12.399-18.262-23.629-18.262h-68.444c-1.146-16.887-15.241-30.277-32.413-30.277h-188.396c-17.921 0-32.5 14.58-32.5 32.5v166.307c0 12.407 10.094 22.5 22.5 22.5zm289.98 34.737c-19.4 0-35.185-15.784-35.185-35.185s15.784-35.185 35.185-35.185 35.186 15.784 35.186 35.185-15.785 35.185-35.186 35.185zm31.268-146.044h-59.2c-1.379 0-2.5-1.122-2.5-2.5v-28.6c0-1.378 1.121-2.5 2.5-2.5h51.693zm-328.748-77.5c0-9.649 7.851-17.5 17.5-17.5h188.396c9.649 0 17.5 7.851 17.5 17.5v87.68c0 4.142 3.357 7.5 7.5 7.5 4.142 0 7.5-3.358 7.5-7.5v-74.905h68.359c4.304 0 8.016 2.799 9.056 6.817l2.08 9.308h-48.343c-9.649 0-17.5 7.851-17.5 17.5v28.6c0 9.649 7.851 17.5 17.5 17.5h63.854c2.003 2.867 4.877 5.095 8.294 6.316l22.06 7.888c2.105.753 3.52 2.695 3.52 4.834v57.105c0 2.847-2.434 5.163-5.425 5.163h-16.345c-6.253-20.597-25.413-35.633-48.027-35.633-22.613 0-41.773 15.036-48.026 35.633h-11.058v-53.441c0-4.142-3.358-7.5-7.5-7.5-4.143 0-7.5 3.358-7.5 7.5v53.441h-100.856c-6.253-20.597-25.413-35.633-48.026-35.633s-41.774 15.036-48.027 35.633h-18.986c-4.136 0-7.5-3.365-7.5-7.5z"/><path d="m164.165 220.859c0-4.142-3.358-7.5-7.5-7.5s-7.5 3.358-7.5 7.5c0 4.142 3.358 7.5 7.5 7.5s7.5-3.358 7.5-7.5z"/><path d="m379.632 213.359c-4.142 0-7.5 3.358-7.5 7.5 0 4.142 3.358 7.5 7.5 7.5s7.5-3.358 7.5-7.5c0-4.142-3.358-7.5-7.5-7.5z"/><path d="m391.576 288.847c-31.148 0-61.104 13.163-82.187 36.113-2.802 3.05-2.6 7.795.449 10.597 3.049 2.801 7.794 2.6 10.598-.45 18.25-19.866 44.179-31.26 71.14-31.26 53.252 0 96.576 43.324 96.576 96.576 0 53.253-43.324 96.577-96.576 96.577s-96.576-43.324-96.576-96.577c0-13.729 2.819-26.989 8.38-39.412 1.692-3.781-.001-8.217-3.781-9.91-3.782-1.69-8.218.001-9.91 3.782-6.429 14.363-9.689 29.685-9.689 45.54 0 61.524 50.053 111.577 111.576 111.577s111.576-50.053 111.576-111.577c0-61.523-50.052-111.576-111.576-111.576z"/><path d="m455.591 388.077c2.929-2.929 2.929-7.678-.001-10.606-2.928-2.93-7.677-2.929-10.606 0-3.552 3.552-8.275 5.509-13.299 5.509s-9.748-1.957-13.301-5.509c-2.928-2.93-7.677-2.929-10.606 0s-2.929 7.678.001 10.606c6.386 6.386 14.875 9.902 23.906 9.902 9.03 0 17.52-3.517 23.906-9.902z"/><path d="m364.769 377.47c-7.333 7.333-19.266 7.334-26.601 0-2.928-2.93-7.677-2.929-10.607 0-2.929 2.929-2.929 7.678.001 10.606 6.591 6.591 15.248 9.886 23.905 9.886 8.658 0 17.315-3.295 23.906-9.886 2.93-2.929 2.93-7.677.001-10.606-2.928-2.929-7.677-2.929-10.605 0z"/><path d="m346.518 445.143c-2.929 2.929-2.929 7.678 0 10.606 2.93 2.929 7.678 2.929 10.607 0 18.996-18.996 49.906-18.996 68.902 0 1.465 1.464 3.385 2.197 5.304 2.197s3.839-.732 5.304-2.197c2.929-2.929 2.929-7.678 0-10.606-24.846-24.846-65.272-24.846-90.117 0z"/><path d="m120.424 288.847c-61.524 0-111.576 50.053-111.576 111.576 0 61.524 50.052 111.577 111.576 111.577 61.523 0 111.576-50.053 111.576-111.577 0-61.523-50.053-111.576-111.576-111.576zm0 208.153c-53.252 0-96.576-43.324-96.576-96.577 0-53.252 43.324-96.576 96.576-96.576s96.576 43.324 96.576 96.576c0 53.253-43.324 96.577-96.576 96.577z"/><path d="m93.616 379.201c1.464 1.465 3.384 2.197 5.303 2.197s3.839-.732 5.304-2.197c2.929-2.929 2.929-7.678-.001-10.607-6.386-6.386-14.875-9.902-23.906-9.902-9.03 0-17.521 3.517-23.906 9.902-2.929 2.929-2.929 7.678.001 10.607 2.928 2.93 7.677 2.929 10.606 0 3.552-3.552 8.275-5.509 13.299-5.509s9.747 1.957 13.3 5.509z"/><path d="m160.532 358.692c-9.031 0-17.52 3.517-23.906 9.902-2.93 2.929-2.93 7.677-.001 10.607 2.929 2.929 7.678 2.93 10.606 0 3.553-3.552 8.276-5.509 13.301-5.509 5.023 0 9.747 1.956 13.299 5.509 1.465 1.465 3.384 2.197 5.304 2.197 1.919 0 3.839-.732 5.303-2.197 2.93-2.929 2.93-7.677.001-10.607-6.386-6.385-14.877-9.902-23.907-9.902z"/><path d="m154.875 436.267c-18.996 18.996-49.906 18.996-68.902 0-2.93-2.929-7.678-2.929-10.608 0-2.929 2.929-2.929 7.678 0 10.606 12.423 12.423 28.741 18.634 45.059 18.634s32.636-6.211 45.059-18.634c2.929-2.929 2.929-7.678 0-10.606-2.93-2.929-7.678-2.929-10.608 0z"/><path d="m263.907 163.567c4.143 0 7.5-3.358 7.5-7.5v-98.827c0-4.142-3.357-7.5-7.5-7.5s-7.5 3.358-7.5 7.5v98.827c0 4.142 3.358 7.5 7.5 7.5z"/><path d="m193.85 163.567c4.143 0 7.5-3.358 7.5-7.5v-98.827c0-4.142-3.357-7.5-7.5-7.5s-7.5 3.358-7.5 7.5v98.827c0 4.142 3.357 7.5 7.5 7.5z"/><path d="m123.793 163.567c4.143 0 7.5-3.358 7.5-7.5v-98.827c0-4.142-3.357-7.5-7.5-7.5s-7.5 3.358-7.5 7.5v98.827c0 4.142 3.357 7.5 7.5 7.5z"/></g></svg>