<svg id="Capa_1" enable-background="new 0 0 512 512" height="512" viewBox="0 0 512 512" width="512" xmlns="http://www.w3.org/2000/svg"><g><path d="m507.828 386.652c-2.635-2.358-6.155-3.488-9.659-3.1-10.658 1.182-16.993 5.26-22.582 8.858-4.845 3.119-8.86 5.697-15.786 6.525l30.576-100.271c1.627-5.364.645-11.022-2.693-15.523-3.334-4.495-8.457-7.073-14.055-7.073h-5.57v-12.869c0-10.031-8.161-18.192-18.191-18.192h-33.062v-52.315c0-10.031-8.161-18.192-18.192-18.192h-16.954c-4.142 0-7.5 3.358-7.5 7.5s3.358 7.5 7.5 7.5h16.955c1.76 0 3.192 1.432 3.192 3.192v52.315h-33.062c-3.963 0-7.675 1.294-10.699 3.5-3.004-2.191-6.69-3.5-10.684-3.5h-33.062v-52.315c0-1.76 1.432-3.192 3.192-3.192h31.482c4.142 0 7.5-3.358 7.5-7.5s-3.358-7.5-7.5-7.5h-31.482c-10.031 0-18.192 8.161-18.192 18.192v52.315h-33.061c-10.031 0-18.192 8.161-18.192 18.192v54.259h-25.894v-86.92c8.003-1.607 14.051-8.686 14.051-17.155v-17.707c0-9.649-7.851-17.5-17.5-17.5h-35.376v-72.911c0-9.649-7.851-17.5-17.5-17.5h-20.593v-35.503h15.359c4.142 0 7.5-3.358 7.5-7.5s-3.358-7.5-7.5-7.5h-15.359v-14.362c0-4.142-3.358-7.5-7.5-7.5s-7.5 3.358-7.5 7.5v14.362h-15.359c-4.142 0-7.5 3.358-7.5 7.5s3.358 7.5 7.5 7.5h15.359v35.503h-20.593c-9.649 0-17.5 7.851-17.5 17.5v72.911h-35.377c-9.649 0-17.5 7.851-17.5 17.5v17.707c0 8.469 6.048 15.548 14.05 17.155v45.53h-14.945c-5.598 0-10.721 2.578-14.055 7.073-3.338 4.5-4.32 10.159-2.689 15.534l30.573 100.26c-6.929-.826-10.944-3.405-15.79-6.525-5.588-3.598-11.921-7.676-22.578-8.858-3.504-.389-7.025.741-9.659 3.1-2.652 2.374-4.172 5.776-4.172 9.332v83.116c0 9.649 7.851 17.5 17.5 17.5h359.772c4.142 0 7.5-3.358 7.5-7.5s-3.358-7.5-7.5-7.5h-359.772c-1.378 0-2.5-1.122-2.5-2.5v-80.207c5.456 1.086 8.983 3.357 13.289 6.129 6.693 4.31 14.279 9.194 28.91 9.194 14.63 0 22.217-4.884 28.91-9.194 5.906-3.803 10.57-6.806 20.79-6.806 10.218 0 14.883 3.003 20.788 6.806 6.693 4.31 14.279 9.194 28.91 9.194s22.217-4.885 28.91-9.194c5.906-3.803 10.57-6.806 20.79-6.806 10.219 0 14.883 3.003 20.789 6.806 6.693 4.31 14.279 9.194 28.909 9.194s22.216-4.884 28.909-9.194c5.906-3.803 10.57-6.806 20.789-6.806s14.884 3.003 20.79 6.806c6.693 4.31 14.279 9.194 28.91 9.194 14.63 0 22.216-4.884 28.909-9.194 5.906-3.803 10.57-6.806 20.79-6.806 10.221 0 14.886 3.003 20.792 6.806 6.694 4.31 14.281 9.194 28.913 9.194s22.219-4.884 28.913-9.194c4.307-2.772 7.835-5.044 13.293-6.13v80.208c0 1.378-1.122 2.5-2.5 2.5h-84.542c-4.142 0-7.5 3.358-7.5 7.5s3.358 7.5 7.5 7.5h84.539c9.649 0 17.5-7.851 17.5-17.5v-83.116c0-3.556-1.521-6.958-4.172-9.332zm-139.083-126.645h81.124c1.76 0 3.191 1.432 3.191 3.192v12.869h-21.856c-6.67 0-12.855 3.881-15.757 9.886l-14.541 30.092c-.414.858-1.298 1.412-2.25 1.412h-33.103v-54.259c0-.075-.01-.148-.011-.223.012-.073.031-.143.041-.217.211-1.569 1.571-2.752 3.162-2.752zm-105.699 3.192c0-1.76 1.432-3.192 3.192-3.192h81.124c1.76 0 3.191 1.432 3.191 3.192v54.259h-87.507zm-94.719-115.046h-23.093v-16.786h23.093zm-61.186-42.889c0-1.379 1.122-2.5 2.5-2.5h56.186c1.378 0 2.5 1.121 2.5 2.5v11.103h-25.285c-7.062 0-12.808 5.746-12.808 12.808v21.171c0 7.062 5.746 12.808 12.808 12.808h25.285v15.023h-61.186zm-38.826 170.804v-45.185h66.981c4.142 0 7.5-3.358 7.5-7.5s-3.358-7.5-7.5-7.5h-78.531c-1.378 0-2.5-1.122-2.5-2.5v-17.707c0-1.378 1.122-2.5 2.5-2.5h161.939c1.378 0 2.5 1.122 2.5 2.5v17.707c0 1.378-1.122 2.5-2.5 2.5h-50.721c-4.142 0-7.5 3.358-7.5 7.5s3.358 7.5 7.5 7.5h39.17v86.575h-33.808c-.953 0-1.836-.554-2.251-1.413l-14.541-30.091c-2.902-6.006-9.087-9.886-15.757-9.886zm36.514 51.986c7.636 0 13.848 6.212 13.848 13.849 0 7.636-6.212 13.848-13.848 13.848s-13.849-6.212-13.849-13.848 6.213-13.849 13.849-13.849zm300.26 55.163c-14.63 0-22.217 4.885-28.91 9.194-5.906 3.802-10.57 6.806-20.789 6.806s-14.884-3.003-20.79-6.806c-6.693-4.309-14.279-9.194-28.91-9.194-14.63 0-22.216 4.885-28.91 9.194-5.905 3.802-10.57 6.806-20.788 6.806-10.219 0-14.883-3.003-20.789-6.806-6.693-4.31-14.279-9.194-28.909-9.194s-22.217 4.884-28.91 9.194c-5.906 3.803-10.571 6.806-20.79 6.806s-14.883-3.003-20.789-6.806c-6.693-4.309-14.279-9.194-28.909-9.194s-22.217 4.885-28.91 9.194c-3.452 2.223-6.488 4.167-10.449 5.404l-31.56-103.504c-.321-1.059.104-1.854.386-2.234.28-.377.913-1.01 2.007-1.01h58.971c-.008 6.919-.017 16.96-.008 22.98-12.284 3.309-21.352 14.54-21.352 27.855 0 15.907 12.941 28.848 28.849 28.848 15.907 0 28.848-12.941 28.848-28.848 0-13.312-9.065-24.541-21.345-27.853-.009-5.941.001-16.047.009-22.982h28.455c.953 0 1.836.555 2.251 1.413l14.54 30.091c2.902 6.006 9.087 9.887 15.757 9.887h225.312c6.67 0 12.855-3.881 15.757-9.886l14.541-30.092c.414-.858 1.298-1.412 2.25-1.412h42.426c1.095 0 1.728.632 2.007 1.01.282.38.707 1.175.389 2.223l-31.567 103.515c-3.966-1.236-7.004-3.182-10.458-5.406-6.694-4.309-14.281-9.193-28.913-9.193z"/></g></svg>