<svg id="Capa_1" enable-background="new 0 0 512 512" height="512" viewBox="0 0 512 512" width="512" xmlns="http://www.w3.org/2000/svg"><g><path d="m512 220.595c0-18.781-14.723-34.183-33.233-35.283l4.87-14.657c3.911-11.773-2.485-24.534-14.259-28.446l-115.722-38.445c-.222-.074-.445-.133-.668-.185l-51.228-85.772c-4.062-6.802-10.531-11.615-18.213-13.552-7.681-1.936-15.658-.766-22.46 3.296-1.844 1.101-3.542 2.391-5.084 3.835-1.539-1.438-3.237-2.728-5.089-3.834-6.802-4.064-14.781-5.234-22.461-3.297-7.682 1.937-14.15 6.75-18.213 13.552l-21.216 35.523c-.26.096-.518.204-.771.331l-76.491 38.342c-3.703 1.856-5.2 6.363-3.344 10.066 1.316 2.624 3.962 4.141 6.711 4.141 1.129 0 2.276-.257 3.355-.797l56.283-28.213-63.37 106.101c-.381.638-.726 1.288-1.054 1.942h-64.512l-14.03-27.991c-.898-1.791-1.045-3.824-.413-5.726.631-1.901 1.966-3.442 3.757-4.34l54.104-27.12c3.703-1.856 5.2-6.363 3.344-10.066-1.857-3.702-6.362-5.197-10.066-3.344l-54.103 27.12c-5.373 2.693-9.376 7.317-11.271 13.02-1.895 5.704-1.456 11.804 1.237 17.176l10.926 21.797c-16.626 2.874-29.316 17.392-29.316 34.826 0 19.23 15.434 34.911 34.564 35.333l11.401 87.747c.491 3.779 3.716 6.534 7.428 6.534.322 0 .648-.021.976-.064 4.108-.534 7.005-4.296 6.471-8.404l-11.147-85.793h232.549c4.142 0 7.5-3.357 7.5-7.5s-3.358-7.5-7.5-7.5h-246.889c-11.223.001-20.353-9.13-20.353-20.353s9.13-20.352 20.353-20.352h71.911c.569 9.469 5.648 18.51 14.388 23.73.001 0 .001 0 .001.001 4.754 2.839 9.987 4.188 15.159 4.188 10.104 0 19.967-5.157 25.514-14.444l8.049-13.476h171.251l8.049 13.476c5.548 9.288 15.409 14.444 25.514 14.444 5.171 0 10.407-1.351 15.16-4.189 8.74-5.221 13.82-14.262 14.388-23.73h71.911c11.223 0 20.353 9.13 20.353 20.352 0 11.223-9.13 20.354-20.353 20.354h-161.719c-4.142 0-7.5 3.357-7.5 7.5s3.358 7.5 7.5 7.5h147.379l-28.957 222.858c-1.1 8.466-8.367 14.85-16.904 14.85h-320.894c-8.537 0-15.804-6.384-16.904-14.85l-13.562-104.379c-.534-4.107-4.292-7.015-8.404-6.471-4.107.533-7.005 4.296-6.471 8.404l13.562 104.379c2.068 15.915 15.73 27.916 31.779 27.916h320.894c16.049 0 29.71-12.001 31.779-27.916l29.21-224.812c19.13-.422 34.564-16.103 34.564-35.333zm-47.352-64.152c3.925 1.305 6.057 5.559 4.753 9.483l-6.418 19.316h-61.326c-.328-.654-.673-1.304-1.054-1.942l-35.865-60.05zm-209.297-44.497-14.711-29.349 15.36-25.716 15.862 26.558c-5.29 2.611-9.448 7.249-11.385 13.079zm-105.903 94.081c-4.146 6.939-13.163 9.216-20.104 5.068l.001.001c-6.94-4.146-9.215-13.165-5.069-20.105l98.843-165.493c2.008-3.362 5.205-5.741 9.002-6.698s7.739-.379 11.102 1.63c6.255 3.735 8.702 11.424 6.094 17.988-.158.305-.289.622-.404.946-.19.395-.392.786-.621 1.17zm82.069-108.155 43.795 87.371h-95.979zm60.574 87.371-27.234-54.332 9.855-29.665c.777-2.339 2.634-4.088 4.925-4.79l53.029 88.787zm90.565 25.852c-6.941 4.146-15.958 1.871-20.104-5.068l-98.368-164.696c1.475-5.02 1.594-10.36.281-15.566-.086-.34-.184-.675-.281-1.011 1.19-1.746 2.747-3.221 4.594-4.324 3.362-2.008 7.303-2.587 11.101-1.629 3.797.957 6.994 3.336 9.002 6.698l98.843 165.493c4.146 6.939 1.872 15.958-5.068 20.103z"/><path d="m284.978 423.114v-102.485c0-15.978-13-28.977-28.978-28.977-15.979 0-28.978 12.999-28.978 28.977v102.485c0 15.979 12.999 28.978 28.978 28.978 15.978 0 28.978-12.999 28.978-28.978zm-42.956 0v-102.485c0-7.707 6.27-13.977 13.978-13.977 7.707 0 13.978 6.271 13.978 13.977v102.485c0 7.707-6.271 13.978-13.978 13.978-7.708 0-13.978-6.271-13.978-13.978z"/><path d="m392.537 423.114v-102.485c0-15.978-12.999-28.977-28.978-28.977-15.978 0-28.978 12.999-28.978 28.977v102.485c0 15.979 13 28.978 28.978 28.978 15.979 0 28.978-12.999 28.978-28.978zm-42.956 0v-102.485c0-7.707 6.271-13.977 13.978-13.977s13.977 6.271 13.977 13.977v102.485c0 7.707-6.271 13.978-13.977 13.978h-.001c-7.706 0-13.977-6.271-13.977-13.978z"/><path d="m177.418 423.114v-102.485c0-15.978-13-28.977-28.978-28.977s-28.978 12.999-28.978 28.977v102.485c0 15.979 12.999 28.978 28.978 28.978s28.978-12.999 28.978-28.978zm-42.955 0v-102.485c0-7.707 6.271-13.977 13.978-13.977s13.978 6.271 13.978 13.977v102.485c0 7.707-6.271 13.978-13.978 13.978-7.708 0-13.978-6.271-13.978-13.978z"/></g></svg>