<svg id="Capa_1" enable-background="new 0 0 512 512" height="512" viewBox="0 0 512 512" width="512" xmlns="http://www.w3.org/2000/svg"><g><path d="m0 406.2c.015 5.871 2.691 11.936 7.356 16.65l78.426 78.879c4.414 4.429 10.53 6.969 16.779 6.969h46.137c4.143 0 7.5-3.357 7.5-7.5 0-4.142-3.357-7.5-7.5-7.5h-38.485v-71.447c0-13.05-10.617-23.666-23.667-23.666h-71.546v-372.463c-.003-2.024.82-4.044 2.258-5.541 1.41-1.468 3.23-2.276 5.118-2.279h334.938.009c4.074 0 7.391 3.311 7.396 7.376v36.479c0 4.143 3.357 7.5 7.5 7.5s7.5-3.357 7.5-7.5v-36.488c-.015-12.34-10.058-22.367-22.386-22.367-.009 0-.02 0-.027 0h-334.94c-6.01.008-11.667 2.454-15.926 6.888-4.161 4.333-6.448 9.998-6.44 15.942zm19.296 7.385h67.25c4.779 0 8.667 3.888 8.667 8.666v67.689z"/><path d="m386.146 508.698c9.265 0 16.803-7.537 16.803-16.802v-26.306c4.911-1.614 9.706-3.602 14.322-5.935l18.603 18.604c3.174 3.173 7.394 4.921 11.882 4.921 4.487 0 8.707-1.748 11.881-4.922l21.925-21.925c6.551-6.552 6.551-17.211 0-23.763l-18.603-18.603c2.333-4.613 4.319-9.407 5.935-14.322h26.307c9.265 0 16.802-7.537 16.802-16.802v-31.007c0-9.265-7.537-16.802-16.802-16.802h-26.307c-1.615-4.914-3.602-9.709-5.935-14.322l18.603-18.603c6.551-6.552 6.551-17.211 0-23.763l-21.925-21.925c-6.551-6.55-17.211-6.55-23.762 0l-18.604 18.603c-4.615-2.333-9.409-4.319-14.322-5.935v-26.306c0-9.265-7.538-16.803-16.803-16.803h-6.428v-132.893c0-4.143-3.357-7.5-7.5-7.5s-7.5 3.357-7.5 7.5v132.896h-9.579c-9.265 0-16.802 7.538-16.802 16.803v26.306c-4.913 1.614-9.707 3.602-14.322 5.935l-18.603-18.603c-6.551-6.55-17.211-6.55-23.762 0l-21.927 21.925c-3.173 3.174-4.921 7.393-4.921 11.881s1.748 8.708 4.922 11.882l18.604 18.603c-2.333 4.613-4.32 9.408-5.936 14.322h-26.306c-9.265 0-16.803 7.537-16.803 16.802v31.007c0 9.265 7.538 16.802 16.803 16.802h26.306c1.615 4.913 3.602 9.708 5.936 14.322l-18.604 18.603c-3.173 3.174-4.921 7.394-4.921 11.882 0 4.487 1.748 8.707 4.921 11.881l21.926 21.926c3.174 3.173 7.394 4.921 11.881 4.921 4.488 0 8.708-1.748 11.882-4.922l18.603-18.603c4.614 2.333 9.408 4.319 14.322 5.935v26.307c0 .609.037 1.209.1 1.802h-156.81c-4.143 0-7.5 3.358-7.5 7.5 0 4.143 3.357 7.5 7.5 7.5h204.518zm110.854-125.854c0 .993-.809 1.802-1.802 1.802h-29.852c-4.511 0-8.534 3.02-9.784 7.339-1.808 6.241-4.312 12.287-7.444 17.968-2.177 3.944-1.466 8.927 1.725 12.114l21.111 21.111c.436.436.528.934.528 1.274s-.092.838-.528 1.275l-21.925 21.925c-.435.437-.934.528-1.273.528-.341 0-.839-.092-1.274-.528l-21.112-21.112c-3.192-3.191-8.175-3.898-12.11-1.726-5.688 3.135-11.734 5.64-17.969 7.445-4.322 1.251-7.341 5.274-7.341 9.785v29.853c0 .993-.809 1.802-1.803 1.802h-15.503-15.504c-.993 0-1.802-.809-1.802-1.802v-29.853c0-4.511-3.02-8.534-7.339-9.784-6.237-1.807-12.284-4.312-17.97-7.445-1.527-.843-3.21-1.252-4.885-1.252-2.647 0-5.273 1.023-7.228 2.978l-21.111 21.111c-.436.437-.934.528-1.274.528s-.838-.092-1.274-.528l-21.926-21.926c-.437-.436-.528-.934-.528-1.273 0-.341.092-.839.527-1.274l21.113-21.111c3.188-3.189 3.898-8.169 1.727-12.111-3.135-5.686-5.641-11.732-7.446-17.968-1.251-4.322-5.274-7.342-9.784-7.342h-29.853c-.994 0-1.803-.809-1.803-1.802v-31.007c0-.993.809-1.802 1.803-1.802h29.853c4.51 0 8.533-3.02 9.783-7.339 1.807-6.239 4.312-12.284 7.449-17.974 2.17-3.941 1.459-8.921-1.729-12.108l-21.111-21.111c-.437-.435-.528-.934-.528-1.274s.092-.838.527-1.273l21.927-21.925c.701-.702 1.847-.704 2.548 0l21.111 21.111c3.19 3.189 8.173 3.898 12.111 1.726 5.687-3.135 11.733-5.64 17.968-7.445 4.322-1.251 7.342-5.274 7.342-9.785v-29.852c0-.994.809-1.803 1.802-1.803h31.007c.994 0 1.803.809 1.803 1.803v29.852c0 4.511 3.019 8.534 7.338 9.784 6.237 1.807 12.284 4.312 17.968 7.444 3.941 2.173 8.924 1.466 12.113-1.724l21.113-21.111c.702-.704 1.848-.702 2.548 0l21.925 21.925c.436.436.528.934.528 1.273 0 .341-.092.839-.528 1.274l-21.107 21.108c-3.193 3.19-3.904 8.172-1.73 12.115 3.133 5.683 5.638 11.728 7.444 17.967 1.251 4.322 5.275 7.342 9.785 7.342h29.852c.993 0 1.802.809 1.802 1.802v31.006z"/><path d="m370.643 303.945c-34.956 0-63.395 28.439-63.395 63.396 0 34.955 28.439 63.394 63.395 63.394s63.395-28.439 63.395-63.394c-.001-34.956-28.439-63.396-63.395-63.396zm-48.395 63.396c0-24.893 18.893-45.448 43.091-48.099-.04.316-.069.635-.069.962v95.225c-24.164-2.682-43.022-23.22-43.022-48.088zm58.023 47.429v-94.565c0-.1-.011-.197-.015-.297 22.095 4.471 38.781 24.039 38.781 47.433 0 23.389-16.679 42.952-38.766 47.429z"/><path d="m314.006 58.541c0-9.626-7.832-17.457-17.458-17.457h-220.803c-9.626 0-17.457 7.831-17.457 17.457v33.471c0 9.626 7.831 17.457 17.457 17.457h39.116c4.143 0 7.5-3.357 7.5-7.5s-3.357-7.5-7.5-7.5h-39.116c-1.354 0-2.457-1.103-2.457-2.457v-33.471c0-1.355 1.103-2.457 2.457-2.457h220.803c1.355 0 2.458 1.102 2.458 2.457v33.471c0 1.354-1.103 2.457-2.458 2.457h-149.141c-4.143 0-7.5 3.357-7.5 7.5s3.357 7.5 7.5 7.5h149.141c9.626 0 17.458-7.831 17.458-17.457z"/><path d="m123.474 151.87c0-9.121-7.421-16.542-16.542-16.542h-32.1c-9.122 0-16.543 7.421-16.543 16.542v29.834c0 9.122 7.421 16.543 16.543 16.543h32.1c9.121 0 16.542-7.421 16.542-16.543zm-15 29.834c0 .851-.691 1.543-1.542 1.543h-32.1c-.851 0-1.543-.692-1.543-1.543v-29.834c0-.851.692-1.542 1.543-1.542h32.1c.851 0 1.542.691 1.542 1.542z"/><path d="m123.474 240.648c0-9.122-7.421-16.543-16.542-16.543h-32.1c-9.122 0-16.543 7.421-16.543 16.543v29.834c0 9.121 7.421 16.542 16.543 16.542h32.1c9.121 0 16.542-7.421 16.542-16.542zm-15 29.834c0 .851-.691 1.542-1.542 1.542h-32.1c-.851 0-1.543-.691-1.543-1.542v-29.834c0-.85.692-1.543 1.543-1.543h32.1c.851 0 1.542.692 1.542 1.543z"/><path d="m106.932 312.884h-32.1c-9.122 0-16.543 7.421-16.543 16.542v29.835c0 9.121 7.421 16.542 16.543 16.542h32.1c9.121 0 16.542-7.421 16.542-16.542v-29.835c0-9.121-7.421-16.542-16.542-16.542zm1.542 46.377c0 .851-.691 1.542-1.542 1.542h-32.1c-.851 0-1.543-.691-1.543-1.542v-29.835c0-.851.692-1.542 1.543-1.542h32.1c.851 0 1.542.691 1.542 1.542z"/><path d="m314.006 152.501c0-4.143-3.358-7.5-7.5-7.5h-146.735c-4.143 0-7.5 3.357-7.5 7.5s3.357 7.5 7.5 7.5h146.735c4.142 0 7.5-3.357 7.5-7.5z"/><path d="m159.771 190.109h73.049c4.143 0 7.5-3.357 7.5-7.5s-3.357-7.5-7.5-7.5h-73.049c-4.143 0-7.5 3.357-7.5 7.5s3.357 7.5 7.5 7.5z"/><path d="m260.599 240.511c0-4.143-3.357-7.5-7.5-7.5h-93.328c-4.143 0-7.5 3.357-7.5 7.5s3.357 7.5 7.5 7.5h93.328c4.142 0 7.5-3.358 7.5-7.5z"/><path d="m159.771 278.12h36.524c4.143 0 7.5-3.357 7.5-7.5s-3.357-7.5-7.5-7.5h-36.524c-4.143 0-7.5 3.357-7.5 7.5s3.357 7.5 7.5 7.5z"/><path d="m159.771 336.789h48.685c4.143 0 7.5-3.358 7.5-7.5 0-4.143-3.357-7.5-7.5-7.5h-48.685c-4.143 0-7.5 3.357-7.5 7.5s3.357 7.5 7.5 7.5z"/><path d="m191.507 359.398c0-4.143-3.357-7.5-7.5-7.5h-24.236c-4.143 0-7.5 3.357-7.5 7.5 0 4.142 3.357 7.5 7.5 7.5h24.236c4.142 0 7.5-3.358 7.5-7.5z"/></g></svg>