<svg id="Capa_1" enable-background="new 0 0 512 512" height="512" viewBox="0 0 512 512" width="512" xmlns="http://www.w3.org/2000/svg"><g><path d="m479.755 325.556c-4.142 0-7.5 3.358-7.5 7.5v48.715c0 6.893-5.607 12.5-12.5 12.5h-407.51c-6.893 0-12.5-5.607-12.5-12.5v-171.505c0-4.142-3.358-7.5-7.5-7.5s-7.5 3.358-7.5 7.5v171.505c0 15.164 12.336 27.5 27.5 27.5h89.004l-27.095 59.508c-6.981 15.333-.187 33.487 15.146 40.469 4.093 1.864 8.387 2.746 12.616 2.746 11.613 0 22.735-6.652 27.853-17.892l38.625-84.831h17.052v23.302c0 4.142 3.358 7.5 7.5 7.5s7.5-3.358 7.5-7.5v-23.302h31.108v72.175c0 8.577-6.978 15.554-15.554 15.554-8.577 0-15.554-6.978-15.554-15.554v-16.186c0-4.142-3.358-7.5-7.5-7.5s-7.5 3.358-7.5 7.5v16.186c0 16.847 13.706 30.554 30.554 30.554s30.554-13.707 30.554-30.554v-72.175h17.052l38.625 84.831c5.118 11.241 16.239 17.892 27.853 17.892 4.228 0 8.523-.882 12.616-2.746 15.333-6.981 22.127-25.136 15.146-40.469l-27.095-59.508h89.004c15.164 0 27.5-12.336 27.5-27.5v-48.715c0-4.142-3.358-7.5-7.5-7.5zm-323.638 162.33c-3.554 7.805-12.794 11.265-20.602 7.71-7.806-3.554-11.265-12.796-7.71-20.602l29.925-65.724h34.182zm228.078-12.891c1.722 3.781 1.868 8.006.412 11.897-1.457 3.891-4.341 6.982-8.122 8.704-7.807 3.555-17.047.095-20.602-7.71l-35.795-78.615h34.182z"/><path d="m459.755 65.656h-173.201v-35.102c0-16.847-13.706-30.554-30.554-30.554s-30.554 13.707-30.554 30.554v35.102h-173.201c-15.164 0-27.5 12.336-27.5 27.5v84.424c0 4.142 3.358 7.5 7.5 7.5s7.5-3.358 7.5-7.5v-84.424c0-6.893 5.607-12.5 12.5-12.5h407.51c6.893 0 12.5 5.607 12.5 12.5v207.214c0 4.142 3.358 7.5 7.5 7.5s7.5-3.358 7.5-7.5v-207.214c0-15.164-12.337-27.5-27.5-27.5zm-219.309-35.102c0-8.576 6.977-15.554 15.554-15.554s15.554 6.978 15.554 15.554v35.102h-31.108z"/><path d="m59.257 325.068c0 18.785 15.283 34.068 34.068 34.068s34.068-15.283 34.068-34.068-15.283-34.068-34.068-34.068-34.068 15.283-34.068 34.068zm53.136 0c0 10.514-8.554 19.068-19.068 19.068s-19.068-8.554-19.068-19.068 8.554-19.068 19.068-19.068 19.068 8.554 19.068 19.068z"/><path d="m324.081 295.196c0 18.785 15.283 34.068 34.068 34.068s34.068-15.283 34.068-34.068-15.283-34.068-34.068-34.068-34.068 15.283-34.068 34.068zm53.136 0c0 10.514-8.554 19.068-19.068 19.068s-19.068-8.554-19.068-19.068 8.554-19.068 19.068-19.068c10.515 0 19.068 8.554 19.068 19.068z"/><path d="m139.483 124.87c-18.785 0-34.068 15.283-34.068 34.068s15.283 34.068 34.068 34.068 34.068-15.283 34.068-34.068-15.283-34.068-34.068-34.068zm0 53.136c-10.514 0-19.068-8.554-19.068-19.068s8.554-19.068 19.068-19.068 19.068 8.554 19.068 19.068-8.554 19.068-19.068 19.068z"/><path d="m176.509 273.932c1.464 1.465 3.384 2.197 5.303 2.197s3.839-.732 5.303-2.197l15.279-15.279 15.279 15.279c1.464 1.464 3.384 2.197 5.303 2.197s3.839-.732 5.303-2.197c2.929-2.929 2.929-7.678 0-10.606l-15.279-15.279 15.279-15.279c2.929-2.929 2.929-7.678 0-10.607s-7.678-2.929-10.607 0l-15.279 15.279-15.279-15.279c-2.929-2.929-7.678-2.929-10.606 0-2.929 2.929-2.929 7.678 0 10.607l15.279 15.279-15.279 15.279c-2.928 2.928-2.928 7.677.001 10.606z"/><path d="m373.909 196.131c1.464 1.464 3.384 2.197 5.303 2.197s3.839-.732 5.303-2.197l15.279-15.279 15.279 15.279c1.464 1.464 3.384 2.197 5.303 2.197s3.839-.732 5.303-2.197c2.929-2.929 2.929-7.678 0-10.606l-15.279-15.279 15.279-15.279c2.929-2.929 2.929-7.678 0-10.607s-7.678-2.929-10.606 0l-15.279 15.279-15.279-15.279c-2.929-2.929-7.678-2.929-10.606 0-2.929 2.929-2.929 7.678 0 10.607l15.279 15.279-15.279 15.279c-2.93 2.929-2.93 7.678 0 10.606z"/><path d="m145.802 325.846c0 4.142 3.358 7.5 7.5 7.5h107.882c12.809 0 23.23-10.42 23.23-23.229v-124.141c0-4.538 3.691-8.229 8.229-8.229h44.008l-6.015 6.358c-2.846 3.009-2.714 7.756.295 10.602 1.45 1.371 3.303 2.051 5.152 2.051 1.99 0 3.975-.787 5.45-2.346l17.984-19.012c2.748-2.904 2.733-7.454-.032-10.341l-17.985-18.78c-2.864-2.991-7.613-3.095-10.604-.229-2.992 2.865-3.094 7.612-.229 10.604l5.834 6.092h-43.859c-12.809 0-23.229 10.421-23.229 23.229v124.142c0 4.538-3.692 8.229-8.23 8.229h-107.881c-4.142 0-7.5 3.358-7.5 7.5z"/></g></svg>