<svg id="Capa_1" enable-background="new 0 0 512 512" height="512" viewBox="0 0 512 512" width="512" xmlns="http://www.w3.org/2000/svg"><g><path d="m182.311 284.367c-7.273 0-13.19 5.906-13.19 13.166v18.884c0 7.259 5.917 13.165 13.19 13.165h14.027c.643 1.758 1.364 3.49 2.157 5.188l-9.891 9.848c-2.498 2.488-3.874 5.798-3.874 9.321 0 3.522 1.376 6.832 3.876 9.321l13.411 13.352c5.136 5.114 13.492 5.115 18.63.001l9.921-9.877c1.721.799 3.476 1.523 5.259 2.171v13.927c0 7.259 5.917 13.165 13.191 13.165h18.966c7.273 0 13.19-5.906 13.19-13.165v-13.927c1.783-.648 3.539-1.373 5.259-2.171l9.921 9.877c5.136 5.113 13.491 5.115 18.631.001l13.411-13.353c2.498-2.488 3.874-5.798 3.874-9.32 0-3.523-1.376-6.833-3.874-9.321l-9.891-9.847c.793-1.698 1.514-3.43 2.158-5.188h14.026c7.272 0 13.189-5.906 13.189-13.165v-18.884c0-7.259-5.917-13.166-13.189-13.166h-14.027c-.645-1.758-1.364-3.49-2.157-5.188l9.891-9.848c2.498-2.488 3.874-5.798 3.874-9.32 0-3.523-1.376-6.833-3.874-9.321l-13.412-13.354c-5.136-5.113-13.494-5.113-18.63.001l-9.921 9.877c-1.72-.798-3.476-1.523-5.259-2.171v-13.927c0-7.259-5.917-13.165-13.19-13.165h-18.966c-7.273 0-13.191 5.906-13.191 13.165v13.927c-1.783.648-3.538 1.373-5.259 2.171l-9.921-9.877c-5.136-5.115-13.492-5.115-18.63-.001l-13.412 13.354c-2.498 2.488-3.874 5.798-3.874 9.32s1.376 6.832 3.874 9.321l9.891 9.847c-.793 1.698-1.514 3.429-2.157 5.188h-14.028zm29.792-12.807-11.6-11.548 10.829-10.781 11.644 11.593c2.857 2.847 7.319 3.481 10.85 1.543 3.291-1.806 6.791-3.25 10.398-4.291 3.888-1.12 6.602-4.729 6.602-8.778v-16.346h15.347v16.346c0 4.049 2.715 7.659 6.6 8.777 3.609 1.042 7.109 2.485 10.399 4.291 3.531 1.939 7.994 1.304 10.851-1.541l11.646-11.595 10.828 10.781-11.601 11.55c-2.877 2.866-3.515 7.344-1.551 10.887 1.812 3.273 3.26 6.753 4.305 10.345 1.128 3.87 4.738 6.573 8.778 6.573h16.45v15.214h-16.45c-4.04 0-7.65 2.703-8.78 6.578-1.043 3.588-2.491 7.067-4.3 10.336-1.968 3.548-1.33 8.027 1.549 10.893l11.6 11.549-10.828 10.781-11.647-11.596c-2.858-2.844-7.321-3.478-10.849-1.54-3.291 1.807-6.79 3.25-10.402 4.292-3.885 1.121-6.598 4.73-6.598 8.777v16.346h-15.347v-16.346c0-4.046-2.713-7.656-6.601-8.778-3.609-1.041-7.108-2.484-10.398-4.291-3.527-1.936-7.99-1.305-10.851 1.541l-11.646 11.594-10.828-10.781 11.599-11.547c2.88-2.867 3.518-7.346 1.553-10.889-1.812-3.274-3.26-6.753-4.305-10.346-1.128-3.87-4.738-6.573-8.778-6.573h-16.45v-15.214h16.45c4.04 0 7.65-2.703 8.779-6.578 1.044-3.587 2.492-7.067 4.303-10.337 1.966-3.545 1.328-8.023-1.55-10.891z"/><path d="m258.5 342.163c19.469 0 35.309-15.785 35.309-35.188s-15.84-35.189-35.309-35.189c-19.47 0-35.31 15.786-35.31 35.189.001 19.403 15.841 35.188 35.31 35.188zm0-55.377c11.198 0 20.309 9.057 20.309 20.189s-9.11 20.188-20.309 20.188c-11.198 0-20.31-9.056-20.31-20.188.001-11.132 9.112-20.189 20.31-20.189z"/><path d="m450.136 449.06-27.665-7.135c-.103-.027-.206-.051-.31-.073-.902-.192-1.557-.987-1.557-1.89v-10.667c8.918-7.381 14.61-18.53 14.61-30.984v-15.578c0-2.426-.228-4.799-.642-7.108.09-.207.192-.406.264-.624 6.111-18.489 9.21-37.829 9.21-57.482 0-38.073-11.578-74.574-33.483-105.557-20.792-29.408-49.314-51.781-82.638-64.865v-42.1c.154.003.308.019.462.019 7.02-.001 13.994-2.981 18.834-8.755 4.203-5.012 6.195-11.356 5.609-17.864-.586-6.512-3.684-12.405-8.721-16.592l-69.572-57.823c-6.391-5.31-15.665-5.31-22.054 0l-69.571 57.824c-5.038 4.187-8.135 10.079-8.721 16.591-.586 6.507 1.406 12.852 5.609 17.864 4.947 5.9 12.121 8.878 19.296 8.744v40.201c-33.327 11.964-62.265 33.197-83.852 61.566-2.508 3.296-1.869 8.002 1.427 10.51 1.357 1.033 2.953 1.532 4.536 1.532 2.262 0 4.498-1.02 5.974-2.959 18.718-24.6 43.461-43.33 71.915-54.591v9.091c0 8.353 6.81 15.148 15.182 15.148h98.466c8.371 0 15.182-6.795 15.182-15.148v-7.004c28.233 12.248 52.449 31.894 70.39 57.269 20.104 28.437 30.731 61.943 30.731 96.897 0 12.921-1.465 25.69-4.351 38.128-7.358-8.06-17.944-13.125-29.692-13.125h-.143c-22.173 0-40.211 18.038-40.211 40.21v15.578c0 12.451 5.689 23.598 14.604 30.979v10.671c0 .903-.654 1.698-1.556 1.89-.103.022-.208.046-.31.073l-27.66 7.135c-10.298 2.278-17.755 11.527-17.755 22.059v3.036c-19.414 7.568-39.909 11.411-60.973 11.411-28.736 0-57.02-7.376-81.935-21.314v-68.715c0-9.909-8.062-17.971-17.971-17.971h-57.085c-7.33-19.145-11.056-39.333-11.056-60.046 0-26.403 5.947-51.673 17.675-75.107 1.854-3.704.354-8.21-3.35-10.064-3.704-1.853-8.209-.354-10.064 3.35-12.781 25.537-19.261 53.065-19.261 81.821 0 20.631 3.393 40.79 10.084 60.046h-25.956c-9.909 0-17.971 8.062-17.971 17.971v45.39c0 4.142 3.358 7.5 7.5 7.5s7.5-3.358 7.5-7.5v-45.39c0-1.638 1.333-2.971 2.971-2.971h19.781v34.302c0 3.656 1.997 7.015 5.21 8.765 1.496.815 3.142 1.22 4.785 1.22 1.891 0 3.778-.537 5.426-1.601l14.306-9.238 14.306 9.237c3.078 1.989 6.99 2.135 10.211.381 3.213-1.75 5.21-5.109 5.21-8.765v-34.302h19.781c1.638 0 2.971 1.333 2.971 2.971v98.493c0 1.638-1.333 2.971-2.971 2.971h-99.016c-1.638 0-2.971-1.333-2.971-2.971v-20.417c0-4.142-3.358-7.5-7.5-7.5s-7.5 3.358-7.5 7.5v20.417c0 9.909 8.062 17.971 17.971 17.971h99.014c9.909 0 17.971-8.062 17.971-17.971v-12.808c25.307 12.67 53.419 19.344 81.935 19.344 20.978 0 41.445-3.498 60.973-10.404v9.812c0 6.631 5.404 12.026 12.047 12.026h29.126c4.143 0 7.5-3.358 7.5-7.5s-3.357-7.5-7.5-7.5h-26.173v-25.875c0-3.556 2.545-6.678 6.052-7.425.104-.022.208-.046.31-.073l26.94-6.949 12.937 12.897c3.23 3.212 7.473 4.818 11.717 4.818s8.489-1.607 11.723-4.822l12.946-12.89 26.931 6.946c.103.027.206.051.311.073 3.507.747 6.052 3.87 6.052 7.426v25.879h-57.059c-4.143 0-7.5 3.358-7.5 7.5s3.357 7.5 7.5 7.5h60.012c6.642 0 12.047-5.395 12.047-12.026v-28.854c-.002-10.532-7.458-19.781-17.757-22.06zm-258.842-362.436c-1.62-1.933-2.389-4.376-2.163-6.881.225-2.51 1.422-4.783 3.369-6.401l69.571-57.824c.833-.692 2.043-.694 2.878 0l69.572 57.824c1.946 1.618 3.142 3.892 3.369 6.401.226 2.504-.543 4.948-2.164 6.882-3.371 4.019-9.395 4.556-13.432 1.2l-47.758-39.693c-3.195-2.655-7.11-3.982-11.026-3.982s-7.833 1.328-11.027 3.982l-47.757 39.693c-4.037 3.355-10.063 2.818-13.432-1.201zm87.588 83.881h-30.742v-56.915c0-.062.062-.148.181-.148h30.38c.118 0 .182.086.182.148v56.915zm33.862 0h-18.861v-56.915c0-8.353-6.811-15.148-15.182-15.148h-30.38c-8.371 0-15.181 6.795-15.181 15.148v56.915h-18.862c-.118 0-.182-.086-.182-.148v-70.824c.072-.059.147-.113.219-.173l47.757-39.693c.833-.693 2.043-.694 2.878 0l47.758 39.693c.071.059.147.107.218.165v70.831c-.001.063-.064.149-.182.149zm-186.43 247.162-9.302-6.007c-3.296-2.127-7.556-2.127-10.851.001l-9.3 6.006v-25.102h29.453zm243.336-34.934c0-13.901 11.31-25.21 25.211-25.21h.143c13.901 0 25.211 11.309 25.211 25.21v15.578c0 13.901-11.31 25.21-25.211 25.21h-.143c-13.901 0-25.211-11.309-25.211-25.21zm26.422 76.199c-.629.626-1.653.626-2.276.007l-11.393-11.358c1.179-2.313 1.852-4.906 1.852-7.619v-2.87c3.381.926 6.935 1.43 10.606 1.43h.143c3.669 0 7.221-.503 10.601-1.428v2.869c0 2.717.675 5.313 1.858 7.629z"/></g></svg>