<svg id="Capa_1" enable-background="new 0 0 512 512" height="512" viewBox="0 0 512 512" width="512" xmlns="http://www.w3.org/2000/svg"><g><path d="m305.507 377.565h-99.014c-9.91 0-17.972 8.062-17.972 17.972v98.492c0 9.909 8.062 17.972 17.972 17.972h99.014c9.91 0 17.972-8.062 17.972-17.972v-98.492c0-9.91-8.062-17.972-17.972-17.972zm-64.234 15h29.453v25.102l-9.3-6.006c-3.296-2.129-7.557-2.127-10.852 0l-9.301 6.006zm67.206 101.463c0 1.639-1.333 2.972-2.972 2.972h-99.014c-1.639 0-2.972-1.333-2.972-2.972v-98.492c0-1.639 1.333-2.972 2.972-2.972h19.78v34.302c0 3.657 1.997 7.017 5.212 8.767 1.496.814 3.142 1.219 4.784 1.219 1.892 0 3.778-.536 5.425-1.601l14.306-9.238 14.305 9.237c3.08 1.99 6.992 2.137 10.211.382 3.214-1.75 5.211-5.108 5.211-8.766v-34.302h19.78c1.639 0 2.972 1.333 2.972 2.972z"/><path d="m479.978 377.565h-99.014c-9.909 0-17.971 8.062-17.971 17.972v98.492c0 9.909 8.062 17.972 17.971 17.972h15.289c4.142 0 7.5-3.357 7.5-7.5s-3.358-7.5-7.5-7.5h-15.289c-1.638 0-2.971-1.333-2.971-2.972v-98.492c0-1.639 1.333-2.972 2.971-2.972h19.781v34.302c0 3.657 1.997 7.017 5.211 8.767 1.496.814 3.142 1.219 4.784 1.219 1.892 0 3.778-.536 5.425-1.601l14.306-9.238 14.304 9.237c3.078 1.988 6.992 2.137 10.211.383 3.214-1.75 5.211-5.109 5.211-8.767v-34.302h19.781c1.638 0 2.971 1.333 2.971 2.972v98.492c0 1.639-1.333 2.972-2.971 2.972h-51.039c-4.142 0-7.5 3.357-7.5 7.5s3.358 7.5 7.5 7.5h51.039c9.909 0 17.971-8.062 17.971-17.972v-98.492c0-9.91-8.062-17.972-17.971-17.972zm-34.781 40.102-9.3-6.006c-3.296-2.129-7.556-2.127-10.852 0l-9.301 6.006v-25.102h29.453z"/><path d="m131.037 377.565h-99.014c-9.909 0-17.971 8.062-17.971 17.972v98.492c0 9.909 8.062 17.972 17.971 17.972h99.014c9.909 0 17.971-8.062 17.971-17.972v-18.434c0-4.143-3.358-7.5-7.5-7.5s-7.5 3.357-7.5 7.5v18.434c0 1.639-1.333 2.972-2.971 2.972h-99.014c-1.638 0-2.971-1.333-2.971-2.972v-98.492c0-1.639 1.333-2.972 2.971-2.972h19.781v34.302c0 3.657 1.997 7.017 5.211 8.767 1.496.814 3.142 1.219 4.784 1.219 1.892 0 3.778-.536 5.425-1.601l14.306-9.238 14.304 9.237c3.078 1.988 6.992 2.137 10.21.383 3.214-1.75 5.212-5.109 5.212-8.767v-34.302h19.781c1.638 0 2.971 1.333 2.971 2.972v47.419c0 4.143 3.358 7.5 7.5 7.5s7.5-3.357 7.5-7.5v-47.419c0-9.91-8.062-17.972-17.971-17.972zm-34.781 40.102-9.302-6.007c-3.296-2.126-7.556-2.125-10.851.001l-9.3 6.006v-25.102h29.453z"/><path d="m189.011 185.636h133.982c6.893 0 12.5-5.607 12.5-12.5v-31.872c0-11.27-7.957-21.167-18.945-23.602l-30.438-7.886c-.104-.026-.208-.051-.312-.073-1.338-.286-2.31-1.487-2.31-2.856v-12.175c9.798-7.993 16.068-20.153 16.068-33.754v-17.365c0-24.015-19.538-43.553-43.554-43.553s-43.554 19.538-43.554 43.553v17.365c0 13.597 6.267 25.756 16.061 33.748v12.18c0 1.369-.971 2.57-2.31 2.856-.104.022-.209.047-.312.073l-30.432 7.885c-10.988 2.436-18.945 12.334-18.945 23.603v31.872c.001 6.893 5.609 12.501 12.501 12.501zm38.438-142.083c0-15.744 12.809-28.553 28.554-28.553 15.744 0 28.553 12.809 28.553 28.553v17.365c0 15.744-12.809 28.553-28.553 28.553-15.745 0-28.554-12.809-28.554-28.553zm28.553 60.918c4.339 0 8.528-.646 12.485-1.833v4.209c0 3.077.805 6.013 2.223 8.588l-12.94 12.94c-.975.975-2.561.975-3.536 0l-12.944-12.945c1.416-2.574 2.22-5.509 2.22-8.584v-4.211c3.959 1.189 8.151 1.836 12.492 1.836zm-64.491 36.793c0-4.299 3.051-8.072 7.255-8.972.105-.023.208-.047.312-.073l30.011-7.776 14.54 14.54c3.412 3.412 7.893 5.117 12.375 5.117 4.48 0 8.963-1.706 12.374-5.117l14.539-14.538 30.012 7.776c.104.026.208.051.312.073 4.203.899 7.254 4.672 7.254 8.971v29.372h-22.117v-8.7c0-4.143-3.358-7.5-7.5-7.5s-7.5 3.357-7.5 7.5v8.7h-54.749v-8.7c0-4.143-3.358-7.5-7.5-7.5s-7.5 3.357-7.5 7.5v8.7h-22.117v-29.373z"/><path d="m369.472 271.462h41.24c6.761 0 12.261 5.501 12.261 12.262v54.892c0 4.143 3.358 7.5 7.5 7.5s7.5-3.357 7.5-7.5v-54.892c0-15.032-12.229-27.262-27.261-27.262h-41.24c-4.142 0-7.5 3.357-7.5 7.5 0 4.142 3.358 7.5 7.5 7.5z"/><path d="m336.785 256.462h-73.283v-53.148c0-4.143-3.358-7.5-7.5-7.5s-7.5 3.357-7.5 7.5v53.148h-147.209c-15.032 0-27.261 12.229-27.261 27.262v54.892c0 4.143 3.358 7.5 7.5 7.5s7.5-3.357 7.5-7.5v-54.892c0-6.761 5.501-12.262 12.261-12.262h147.209v67.153c0 4.143 3.358 7.5 7.5 7.5s7.5-3.357 7.5-7.5v-67.153h73.283c4.142 0 7.5-3.357 7.5-7.5s-3.358-7.5-7.5-7.5z"/></g></svg>