<svg id="Capa_1" enable-background="new 0 0 512 512" height="512" viewBox="0 0 512 512" width="512" xmlns="http://www.w3.org/2000/svg"><g><path d="m486.69 284.968c-16.184-23.015-38.591-40.422-64.799-50.342-3.874-1.467-8.203.486-9.67 4.359-1.466 3.874.486 8.203 4.359 9.67 23.39 8.853 43.39 24.393 57.84 44.94 14.772 21.007 22.58 45.734 22.58 71.511 0 68.633-55.837 124.47-124.47 124.47s-124.47-55.837-124.47-124.47c0-68.632 55.837-124.469 124.47-124.469 4.619 0 9.272.255 13.829.759 4.116.436 7.823-2.516 8.278-6.632.454-4.117-2.515-7.823-6.632-8.278-5.102-.562-10.309-.849-15.476-.849-35.607 0-68.134 13.419-92.806 35.457-1.084-3.496-1.264-6.981-.451-10.166 1.075-4.207 3.714-7.653 7.63-9.966 58.566-34.585 95.31-99.613 96.58-170.379 15.356-2.185 27.205-15.415 27.205-31.365v-.106c0-17.473-14.216-31.689-31.689-31.689h-347.309c-17.473.001-31.689 14.217-31.689 31.689v.106c0 16.045 11.99 29.334 27.479 31.4 1.778 33.331 11.212 66.201 27.421 95.28 16.821 30.178 40.944 56.324 69.761 75.614 4.69 3.14 7.273 7.977 7.273 13.62s-2.583 10.48-7.273 13.619c-28.975 19.396-53.189 45.707-70.026 76.091-16.051 28.966-25.388 61.648-27.16 94.804-15.487 2.07-27.475 15.358-27.475 31.402v.106c0 17.474 14.216 31.69 31.689 31.69h82.931c4.142 0 7.5-3.358 7.5-7.5 0-4.143-3.358-7.5-7.5-7.5h-82.931c-9.202 0-16.689-7.487-16.689-16.69v-.106c0-9.202 7.487-16.689 16.689-16.689h233.651c.034 0 .068-.005.102-.005 11.346 13.591 25.222 25 40.901 33.49h-159.036c-4.142 0-7.5 3.357-7.5 7.5 0 4.142 3.358 7.5 7.5 7.5h203.274c7.152 1.135 14.482 1.732 21.949 1.732 76.904 0 139.47-62.565 139.47-139.47 0-28.881-8.752-56.593-25.31-80.138zm-353.685-3.75c8.852-5.926 13.929-15.433 13.929-26.084s-5.077-20.159-13.929-26.085c-26.855-17.977-49.332-42.338-65.003-70.452-14.925-26.775-23.688-57.004-25.489-87.689h80.578c4.142 0 7.5-3.357 7.5-7.5s-3.358-7.5-7.5-7.5h-91.402c-9.202-.001-16.689-7.487-16.689-16.689v-.106c0-9.202 7.487-16.689 16.689-16.689h347.311c9.202 0 16.689 7.486 16.689 16.689v.106c0 9.202-7.486 16.688-16.689 16.688h-223.222c-4.142 0-7.5 3.357-7.5 7.5s3.358 7.5 7.5 7.5h212.701c-1.369 65.356-35.269 125.291-89.202 157.14-7.319 4.321-12.482 11.129-14.536 19.168-2.089 8.176-.815 17.094 3.575 25.314-8.599 9.669-15.881 20.532-21.55 32.315-2.913-.906-5.862-1.726-8.81-2.434-3.788-.911-6.433-4.302-6.433-8.246v-73.936c0-3.91 2.624-7.295 6.382-8.231 37.43-9.334 69.188-34.31 87.13-68.525 2.963-5.65 2.755-12.291-.555-17.764-3.329-5.504-9.151-8.79-15.576-8.79h-207.117c-6.425 0-12.248 3.286-15.577 8.79-3.31 5.474-3.517 12.114-.554 17.766 17.941 34.214 49.699 59.189 87.129 68.523 3.757.937 6.382 4.322 6.382 8.232v73.935c0 3.944-2.645 7.335-6.432 8.246-44.685 10.743-80.843 42.551-96.724 85.086-6.224 16.669-9.949 34.094-11.111 51.864h-22.396c3.738-63.709 37.277-122.515 90.501-158.142zm-53.07 158.141c1.138-15.971 4.533-31.628 10.13-46.618 14.133-37.855 46.349-66.172 86.178-75.748 10.554-2.539 17.924-11.927 17.924-22.83v-73.935c0-10.811-7.3-20.181-17.753-22.787-33.28-8.299-61.518-30.509-77.474-60.936-.7-1.334-.234-2.475.105-3.036.282-.467 1.114-1.553 2.741-1.553h207.117c1.626 0 2.458 1.085 2.74 1.552.34.562.805 1.703.105 3.036-15.955 30.428-44.194 52.638-77.474 60.937-10.453 2.606-17.753 11.977-17.753 22.786v73.936c0 10.903 7.371 20.291 17.926 22.83 2.186.526 4.37 1.122 6.538 1.77-5.126 14.507-7.926 30.103-7.926 46.343 0 27.273 7.876 52.738 21.462 74.253z"/><path d="m274.224 365.106c0 54.207 44.101 98.308 98.307 98.308s98.307-44.101 98.307-98.308c0-54.206-44.101-98.307-98.307-98.307-54.207.001-98.307 44.101-98.307 98.307zm181.613 0c0 45.936-37.371 83.308-83.307 83.308s-83.307-37.372-83.307-83.308 37.371-83.307 83.307-83.307c45.936.001 83.307 37.372 83.307 83.307z"/><path d="m365.14 311.373-.036 4.908c-.513.128-1.031.265-1.554.419-9.049 2.654-15.848 10.315-17.744 19.991-1.74 8.875 1.08 17.494 7.358 22.492 5.338 4.25 12.786 7.891 25.707 12.564 9.472 3.426 9.204 11.142 8.649 14.3-1.103 6.283-6.441 13.043-15.558 13.043-.003 0-.008 0-.011 0-8.451-.005-11.311-.482-17.881-4.848-3.451-2.293-8.105-1.355-10.397 2.095-2.293 3.45-1.354 8.105 2.095 10.397 7.268 4.83 12.396 6.518 18.626 7.084l-.036 4.917c-.03 4.142 3.304 7.524 7.445 7.555h.056c4.116 0 7.469-3.322 7.499-7.445l.041-5.625c12.767-3.082 21.017-13.884 22.895-24.579 2.444-13.921-4.747-26.089-18.322-30.999-7.851-2.84-16.54-6.271-21.466-10.192-1.853-1.475-2.63-4.564-1.981-7.872.639-3.262 2.878-7.202 7.247-8.483 9.767-2.866 16.152 2.27 16.795 2.816.013.013.005.004.013.011.006.005.011.01.016.014.006.005.014.012.022.021l1.23 1.117c3.068 2.784 7.81 2.556 10.595-.511 2.784-3.067 2.556-7.81-.511-10.595l-1.23-1.117h-.001c-.78-.706-6.093-5.267-14.593-6.98l.032-4.386c.03-4.143-3.304-7.524-7.445-7.555-.018 0-.037 0-.056 0-4.117-.002-7.469 3.32-7.499 7.443z"/></g></svg>