<svg id="Capa_1" enable-background="new 0 0 512 512" height="512" viewBox="0 0 512 512" width="512" xmlns="http://www.w3.org/2000/svg"><g><path d="m79.787 0c-15.418 0-27.962 12.543-27.962 27.962v1.331c0 15.418 12.544 27.962 27.962 27.962h60.905v73.695c0 4.142 3.357 7.5 7.5 7.5s7.5-3.358 7.5-7.5v-115.95h16.402c5.75 0 10.428 4.678 10.428 10.427v339.69c-4.354-.8-8.833-1.24-13.415-1.24s-9.061.44-13.415 1.24v-202.088c0-4.142-3.357-7.5-7.5-7.5s-7.5 3.358-7.5 7.5v206.525c-26.775 11.167-45.646 37.61-45.646 68.385 0 11.73 2.665 22.952 7.92 33.354 1.868 3.696 6.379 5.182 10.076 3.312 3.697-1.868 5.181-6.379 3.312-10.076-4.187-8.286-6.309-17.232-6.309-26.591 0-32.566 26.495-59.061 59.062-59.061s59.061 26.495 59.061 59.061-26.494 59.062-59.061 59.062c-12.335 0-24.149-3.762-34.167-10.879-3.378-2.4-8.059-1.607-10.458 1.77-2.398 3.376-1.606 8.059 1.771 10.457 12.57 8.931 27.389 13.651 42.855 13.651 26.341 0 49.498-13.834 62.631-34.606h200.021c15.668 0 28.415-12.747 28.415-28.415s-12.747-28.415-28.415-28.415h-23.983v-52.283c0-4.142-3.357-7.5-7.5-7.5s-7.5 3.358-7.5 7.5v52.283h-151.686c-5.577-23.102-22-42.014-43.568-51.01v-144.275h61.048v51.404c0 4.576 2.474 8.82 6.456 11.076 3.979 2.254 8.893 2.195 12.818-.159l17.293-10.368 17.292 10.368c2.009 1.206 4.277 1.81 6.547 1.81 2.163 0 4.328-.549 6.271-1.649 3.983-2.255 6.456-6.499 6.456-11.076v-51.404h61.072v110.923c0 4.142 3.357 7.5 7.5 7.5s7.5-3.358 7.5-7.5v-178.204c0-4.142-3.357-7.5-7.5-7.5s-7.5 3.358-7.5 7.5v52.279h-195.253v-184.851c0-.739-.039-1.469-.101-2.192.045-.332.076-.669.076-1.013 0-3.982 3.24-7.222 7.223-7.222h53.85v51.4c0 4.576 2.474 8.82 6.455 11.075 3.98 2.254 8.892 2.195 12.82-.159l17.292-10.369 17.292 10.369c2.01 1.205 4.277 1.809 6.547 1.809 2.163 0 4.328-.549 6.271-1.649 3.983-2.255 6.456-6.499 6.456-11.076v-51.4h53.851c3.982 0 7.222 3.24 7.222 7.222v103.697c0 4.142 3.357 7.5 7.5 7.5s7.5-3.358 7.5-7.5v-103.697c-.001-12.253-9.969-22.222-22.222-22.222h-180.834c-6.114 0-11.658 2.482-15.68 6.49-4.502-4.032-10.441-6.49-16.946-6.49zm236.917 272.671-15.021-9.006c-4.037-2.421-9.055-2.422-13.092 0l-15.021 9.007v-47.394h43.134zm0-210.282-15.022-9.007c-4.037-2.419-9.052-2.419-13.091.001l-15.02 9.007v-47.39h43.134v47.389zm-236.917-20.135c-7.147 0-12.962-5.814-12.962-12.962v-1.331c0-7.146 5.815-12.961 12.962-12.961h60.905v27.254zm351.973 420.14h-192.759c2.689-7.661 4.168-15.887 4.168-24.455 0-.796-.035-1.584-.06-2.375h188.651c7.397 0 13.415 6.018 13.415 13.415s-6.018 13.415-13.415 13.415z"/><path d="m201.197 437.939c0-17.694-14.395-32.09-32.09-32.09-17.694 0-32.09 14.396-32.09 32.09s14.396 32.09 32.09 32.09c17.695-.001 32.09-14.396 32.09-32.09zm-49.179 0c0-9.423 7.666-17.09 17.09-17.09s17.09 7.667 17.09 17.09-7.666 17.09-17.09 17.09c-9.424-.001-17.09-7.667-17.09-17.09z"/></g></svg>