<svg id="Capa_1" enable-background="new 0 0 512 512" height="512" viewBox="0 0 512 512" width="512" xmlns="http://www.w3.org/2000/svg"><g><path d="m484.65 459.476h-17.14v-231.484c0-4.142-3.358-7.5-7.5-7.5s-7.5 3.358-7.5 7.5v231.485h-48.44v-245.951c8.59-1.108 15.255-8.452 15.255-17.339v-30.609c0-9.65-7.851-17.5-17.5-17.5h-204.789c-4.142 0-7.5 3.358-7.5 7.5s3.358 7.5 7.5 7.5h204.789c1.378 0 2.5 1.122 2.5 2.5v30.609c0 1.378-1.122 2.5-2.5 2.5h-291.65c-1.379 0-2.5-1.122-2.5-2.5v-30.609c0-1.378 1.121-2.5 2.5-2.5h54.175c4.142 0 7.5-3.358 7.5-7.5s-3.358-7.5-7.5-7.5h-54.175c-9.649 0-17.5 7.851-17.5 17.5v30.609c0 8.887 6.664 16.232 15.255 17.339v245.951h-48.44v-318.857l193.468-86.779c1.934-.867 4.151-.868 6.085 0l193.467 86.779v54.686c0 4.142 3.358 7.5 7.5 7.5s7.5-3.358 7.5-7.5v-48.396c1.965.491 3.97.745 5.978.745 2.994 0 5.995-.547 8.877-1.645 6.222-2.369 11.148-7.018 13.873-13.092s2.921-12.846.552-19.068-7.019-11.149-13.093-13.874l-218.515-98.012c-5.835-2.618-12.528-2.618-18.363-.001l-218.518 98.014c-6.074 2.725-10.724 7.651-13.093 13.874-2.369 6.222-2.172 12.994.552 19.067 2.725 6.074 7.651 10.724 13.873 13.092 4.816 1.834 9.96 2.123 14.856.9v312.566h-17.139c-14.481 0-26.262 11.781-26.262 26.262s11.781 26.262 26.262 26.262h123.826c4.142 0 7.5-3.358 7.5-7.5s-3.358-7.5-7.5-7.5h-123.826c-6.21 0-11.262-5.052-11.262-11.262s5.052-11.262 11.262-11.262h457.3c6.21 0 11.262 5.052 11.262 11.262s-5.052 11.262-11.262 11.262h-300.787c-4.142 0-7.5 3.358-7.5 7.5s3.358 7.5 7.5 7.5h300.787c14.481 0 26.262-11.781 26.262-26.262s-11.781-26.262-26.262-26.262zm-455.203-332.697c-1.085-2.418-1.163-5.114-.22-7.592.943-2.477 2.795-4.439 5.213-5.523l218.518-98.015c1.934-.867 4.151-.868 6.085 0l218.517 98.014c2.418 1.084 4.27 3.046 5.213 5.523.943 2.478.865 5.173-.22 7.592-1.085 2.418-3.046 4.269-5.523 5.212s-5.173.865-7.592-.22l-204.256-91.615c-5.835-2.618-12.528-2.618-18.363 0l-204.257 91.617c-4.992 2.24-10.876 0-13.115-4.993zm93.483 86.907h266.14v37.221h-266.14zm0 52.222h266.14v193.569h-68.49v-101.465c0-9.909-8.062-17.971-17.971-17.971h-99.015c-9.909 0-17.971 8.062-17.971 17.971v101.464h-62.693zm115.446 89.133h29.453v25.102l-9.3-6.005c-3.295-2.128-7.555-2.128-10.853 0l-9.3 6.006zm-9.79 43.067c1.496.815 3.142 1.22 4.784 1.22 1.891 0 3.778-.537 5.426-1.601l14.306-9.238 14.305 9.237c3.079 1.988 6.992 2.135 10.21.381 3.214-1.75 5.21-5.109 5.21-8.766v-34.301h19.781c1.638 0 2.971 1.333 2.971 2.971v101.464h-104.955v-101.463c0-1.638 1.333-2.971 2.971-2.971h19.781v34.301c0 3.657 1.996 7.016 5.21 8.766z"/></g></svg>