<svg id="Capa_1" enable-background="new 0 0 512 512" height="512" viewBox="0 0 512 512" width="512" xmlns="http://www.w3.org/2000/svg"><g><path d="m148.872 258.045c4.143 0 7.5-3.357 7.5-7.5v-62.54c0-4.136 3.364-7.5 7.5-7.5h55.01v52.513c0 4.612 2.493 8.889 6.506 11.162 4.012 2.272 8.962 2.211 12.917-.16l17.693-10.608 17.692 10.608c2.024 1.214 4.31 1.822 6.597 1.822 2.18 0 4.362-.554 6.32-1.662 4.013-2.273 6.506-6.55 6.506-11.162v-52.513h55.01c4.136 0 7.5 3.364 7.5 7.5v124.134c0 4.143 3.358 7.5 7.5 7.5 4.143 0 7.5-3.357 7.5-7.5v-124.134c0-12.406-10.094-22.5-22.5-22.5h-66.609v-49.979c20.693-9.649 35.075-30.64 35.075-54.937 0-33.409-27.18-60.589-60.589-60.589s-60.589 27.18-60.589 60.589c0 24.297 14.383 45.288 35.075 54.937v49.979h-66.614c-12.406 0-22.5 10.094-22.5 22.5v62.54c0 4.143 3.358 7.5 7.5 7.5zm129.241-28.863-15.518-9.305c-4.07-2.441-9.128-2.441-13.194-.001l-15.52 9.306v-48.677h44.232zm-22.113-214.182c25.138 0 45.589 20.451 45.589 45.589 0 5.229-.896 10.251-2.524 14.933-11.265-11.407-26.652-17.961-43.065-17.961-.8 0-1.596.021-2.39.052l-5.616-18.551c-1.201-3.965-5.393-6.204-9.352-5.006-3.965 1.2-6.205 5.387-5.006 9.352l5.045 16.666c-9.722 2.887-18.57 8.182-25.746 15.449-1.628-4.682-2.525-9.703-2.525-14.933.001-25.139 20.452-45.59 45.59-45.59zm-35.333 74.359c8.624-10.593 21.491-16.798 35.333-16.798s26.708 6.205 35.333 16.798c-8.366 10.256-21.096 16.82-35.333 16.82s-26.967-6.564-35.333-16.82zm24.819 30.888c3.417.601 6.927.932 10.514.932s7.096-.331 10.514-.932v45.258h-21.027v-45.258z"/><path d="m436.759 436.117c6.096 0 11.055 4.959 11.055 11.055s-4.959 11.056-11.055 11.056h-91.29c-4.143 0-7.5 3.357-7.5 7.5s3.357 7.5 7.5 7.5h38.421v21.272c0 9.649 7.851 17.5 17.5 17.5h23.97c9.649 0 17.5-7.851 17.5-17.5v-22.001c11.432-2.754 19.954-13.061 19.954-25.327 0-14.366-11.689-26.055-26.055-26.055h-3.538c2.092-3.935 3.282-8.42 3.282-13.179 0-15.538-12.641-28.179-28.179-28.179h-37.701v-34.936c0-4.143-3.357-7.5-7.5-7.5-4.142 0-7.5 3.357-7.5 7.5v34.936h-199.251v-96.528c0-4.143-3.357-7.5-7.5-7.5s-7.5 3.357-7.5 7.5v96.528h-37.696c-15.538 0-28.179 12.641-28.179 28.179 0 4.759 1.19 9.243 3.282 13.179h-3.538c-14.366 0-26.055 11.689-26.055 26.055 0 12.266 8.522 22.573 19.954 25.327v22.001c0 9.649 7.851 17.5 17.5 17.5h23.97c9.649 0 17.5-7.851 17.5-17.5v-21.272h184.672c4.143 0 7.5-3.357 7.5-7.5s-3.357-7.5-7.5-7.5h-237.541c-6.096 0-11.055-4.96-11.055-11.056s4.959-11.055 11.055-11.055zm-323.649 58.383c0 1.379-1.121 2.5-2.5 2.5h-23.97c-1.379 0-2.5-1.121-2.5-2.5v-21.272h28.97zm-9.434-99.74h304.648c7.267 0 13.179 5.912 13.179 13.179s-5.912 13.179-13.179 13.179h-304.648c-7.267 0-13.179-5.912-13.179-13.179s5.912-13.179 13.179-13.179zm321.683 102.24h-23.97c-1.379 0-2.5-1.121-2.5-2.5v-21.272h28.97v21.272c0 1.379-1.121 2.5-2.5 2.5z"/></g></svg>