<svg id="Capa_1" enable-background="new 0 0 512 512" height="512" viewBox="0 0 512 512" width="512" xmlns="http://www.w3.org/2000/svg"><g><path d="m410.733 369.999-85.657-18.956c-7.984-1.708-13.778-8.873-13.778-17.038v-14.515c24.549-15.404 42.264-40.734 47.468-70.324h3.595c11.228 0 21.739-4.416 29.6-12.436 7.858-8.017 12.062-18.62 11.836-29.855-.255-12.773-6.538-24.582-16.751-32.181 1.904-3.407 2.995-7.328 2.995-11.5 0-11.176-7.795-20.56-18.231-23.017v-1.019c0-20.896-5.628-41.378-16.274-59.232-2.121-3.559-6.728-4.722-10.282-2.601-3.558 2.121-4.723 6.725-2.601 10.282 9.262 15.533 14.157 33.358 14.157 51.551v.386h-72.3v-97.093c14.266 4.205 27.514 11.559 38.693 21.564 1.432 1.281 3.219 1.911 4.999 1.911 2.06 0 4.11-.843 5.592-2.498 2.762-3.087 2.499-7.828-.587-10.591-13.94-12.476-30.686-21.369-48.697-25.935v-9.402c0-9.649-7.851-17.5-17.5-17.5h-22.02c-9.649 0-17.5 7.851-17.5 17.5v9.408c-23.963 6.081-45.644 19.892-61.357 39.199-16.729 20.557-25.942 46.5-25.942 73.051v1.02c-10.437 2.457-18.231 11.84-18.231 23.017 0 4.173 1.09 8.093 2.995 11.5-10.214 7.599-16.496 19.407-16.752 32.18-.225 11.236 3.979 21.839 11.837 29.856 7.86 8.019 18.371 12.435 29.599 12.435h3.596c5.202 29.584 22.911 54.91 47.453 70.314v14.525c0 8.164-5.794 15.329-13.83 17.048l-85.54 18.934c-21.709 4.646-37.465 24.129-37.465 46.329v19.454c0 4.143 3.358 7.5 7.5 7.5s7.5-3.357 7.5-7.5v-19.454c0-15.171 10.768-28.486 25.655-31.672l17.565-3.888v116.244h-40.752c-1.361 0-2.469-1.107-2.469-2.47v-26.074c0-4.143-3.358-7.5-7.5-7.5s-7.5 3.357-7.5 7.5v26.074c0 9.633 7.836 17.47 17.469 17.47h349.358c9.633 0 17.47-7.837 17.47-17.47v-78.213c-.001-22.201-15.757-41.685-37.416-46.318zm-232.423-1.69 64.632 44.653c1.744 1.205 3.618 2.121 5.558 2.779v81.259h-78.844v-126.776zm85.19 47.238c1.949-.717 3.824-1.695 5.556-2.968l61.249-45.016 12.039 2.664v126.773h-78.844zm117.748-189.317c-5.016 5.117-11.723 7.936-18.887 7.936h-2.067c.031-1.038.051-2.078.051-3.123v-44.198h6.046c3.231 0 6.311-.653 9.119-1.831 8.047 4.68 13.109 13.05 13.292 22.162.142 7.173-2.54 13.94-7.554 19.054zm-136.258-211.23h22.02c1.379 0 2.5 1.121 2.5 2.5v122.044h-27.02v-122.044c0-1.379 1.121-2.5 2.5-2.5zm-67.223 60.575c12.873-15.817 30.339-27.391 49.723-33.115v97.084h-72.299v-.386c0-23.112 8.017-45.693 22.576-63.583zm-32.157 78.969h220.781c4.77 0 8.649 3.881 8.649 8.65 0 4.77-3.88 8.65-8.649 8.65h-220.781c-4.77 0-8.65-3.881-8.65-8.65-.001-4.769 3.88-8.65 8.65-8.65zm4.028 79.622c-7.164 0-13.871-2.818-18.886-7.935-5.014-5.115-7.696-11.883-7.552-19.056.182-9.113 5.244-17.482 13.29-22.162 2.808 1.178 5.889 1.831 9.12 1.831h6.045v44.198c0 1.045.02 2.085.051 3.123h-2.068zm17.017-3.123v-44.198h178.69v44.198c0 49.265-40.08 89.345-89.345 89.345s-89.345-40.08-89.345-89.345zm49.031 102.963v-6.723c12.409 5.217 26.03 8.105 40.314 8.105 14.277 0 27.893-2.885 40.298-8.099v6.716c0 11.733 6.435 22.354 16.183 28.043l-52.308 38.445c-2.577 1.893-6.075 1.944-8.705.127l-54.155-37.414c10.977-5.321 18.373-16.62 18.373-29.2zm-78.614 43.43 17.584-3.892v123.456h-17.584zm296.076 117.094c0 1.362-1.107 2.47-2.47 2.47h-40.751v-42.201c0-4.142-3.357-7.5-7.5-7.5-4.142 0-7.5 3.358-7.5 7.5v42.201h-17.584v-123.453l17.584 3.891v44.674c0 4.143 3.358 7.5 7.5 7.5 4.143 0 7.5-3.357 7.5-7.5v-41.354l17.616 3.898c14.837 3.174 25.604 16.489 25.604 31.661v78.213z"/><path d="m282.163 271.671c-1.458-3.876-5.779-5.838-9.66-4.379-11.582 4.356-22.312 4.383-32.801.08-3.833-1.571-8.213.261-9.785 4.094-1.572 3.832.261 8.213 4.093 9.785 7.014 2.877 14.221 4.315 21.57 4.315 7.279 0 14.697-1.412 22.204-4.235 3.877-1.458 5.838-5.782 4.379-9.66z"/><path d="m215.671 199.767c-4.142 0-7.5 3.357-7.5 7.5v11.123c0 4.143 3.358 7.5 7.5 7.5s7.5-3.357 7.5-7.5v-11.123c0-4.143-3.358-7.5-7.5-7.5z"/><path d="m296.328 225.89c4.143 0 7.5-3.357 7.5-7.5v-11.123c0-4.143-3.357-7.5-7.5-7.5s-7.5 3.357-7.5 7.5v11.123c0 4.142 3.357 7.5 7.5 7.5z"/><path d="m324.172 454.223h-33.95c-4.143 0-7.5 3.357-7.5 7.5s3.357 7.5 7.5 7.5h33.95c4.143 0 7.5-3.357 7.5-7.5s-3.357-7.5-7.5-7.5z"/></g></svg>